<svg width="703" height="278" viewBox="0 0 703 278" fill="none" xmlns="http://www.w3.org/2000/svg">
<path d="M77.3329 203.892C67.6208 205.976 59.1463 205.599 52.8599 197.271C47.5958 190.281 48.6002 187.811 48.2146 179.545C46.9501 152.081 47.5599 124.231 50.1426 96.8745C44.7171 93.3976 39.74 88.9685 34.5746 85.0425C33.5344 84.2519 32.0098 83.5511 31.1131 82.8594C31.7139 83.9375 31.4807 85.1952 31.4987 86.3632L35.6866 90.918C36.2874 100.729 37.4443 110.584 37.7313 120.395C38.3321 141.426 36.8524 163.841 38.09 184.63C38.8612 197.478 45.318 207.414 57.5231 211.861C53.3621 211.897 47.8917 208.717 44.6992 206.03C44.0625 205.491 40.1615 201.035 39.6593 201.547L35.7673 217.099C35.9018 217.18 35.9198 217.737 36.7358 217.889C38.6729 218.258 39.6324 217.395 41.1121 217.206C45.8471 216.569 52.4832 216.155 56.9133 214.754C57.3886 214.601 57.837 214.502 58.106 214.026L57.9266 212.059C64.2668 213.748 70.5353 213.352 76.9473 212.445C76.9742 211.304 77.0907 210.154 77.2073 209.013C77.2611 208.456 77.3149 207.899 77.3508 207.342C77.4315 206.201 77.4584 205.042 77.3418 203.892H77.3329ZM44.6095 105.733C44.0535 106.29 43.4706 106.46 42.9505 106.38C42.9057 106.371 42.8518 106.362 42.807 106.344C42.5559 106.281 42.3317 106.155 42.1165 105.975C42.0537 105.921 41.982 105.858 41.9192 105.796C41.8654 105.751 41.8116 105.688 41.7668 105.634C41.7219 105.58 41.6681 105.517 41.6322 105.454C41.5067 105.275 41.3991 105.068 41.3273 104.861C41.3004 104.798 41.2735 104.718 41.2646 104.637C41.2377 104.583 41.2287 104.52 41.2197 104.466V104.439C41.2197 104.439 41.2108 104.403 41.2018 104.385C41.1928 104.331 41.1838 104.268 41.1838 104.205C41.1569 103.954 41.1749 103.693 41.2377 103.442C41.2556 103.352 41.2825 103.271 41.3273 103.181C41.3901 103.011 41.4888 102.858 41.6233 102.705C41.6771 102.624 41.7488 102.561 41.8385 102.489C41.9192 102.418 41.9999 102.355 42.0986 102.301C42.1972 102.247 42.2869 102.184 42.4035 102.139C44.8427 101.052 46.0175 104.349 44.6275 105.751L44.6095 105.733Z" fill="white"/>
<path d="M306.253 14.8865C305.804 14.7967 305.185 15.201 304.961 15.1561L300.397 46.1869C300.253 46.5552 300.047 46.8607 299.652 46.9954C297.724 47.6423 293.142 46.3216 290.981 45.8904C290.487 47.5525 290.317 49.2415 290.595 50.9484C291.608 50.8765 293.339 51.5324 294.487 51.5324L288.658 138.111L296.819 137.33L302.648 48.6036L308.127 47.9927L311.822 19.5492C311.911 16.2791 308.979 15.4346 306.271 14.8686L306.253 14.8865Z" fill="white"/>
<path d="M222.996 30.3391C219.866 29.6383 216.279 29.1711 213.284 28.3895C212.97 29.1442 212.988 29.9348 212.898 30.7254L215.642 30.8961C216.243 31.3093 216.055 41.3355 216.019 42.9975C215.929 47.0763 215.364 51.3617 215.23 55.4404C214.782 68.8805 214.728 82.3925 213.687 95.8326L209.795 96.8837V97.27C213.508 98.7883 217.275 100.774 221.059 102.328L223.005 30.3391H222.996Z" fill="white"/>
<path d="M298.343 139.289L274.874 142.819L274.265 140.466L284.748 139.684C284.739 139.522 284.721 139.36 284.703 139.19C284.703 139.172 284.694 139.154 284.694 139.136V139.118C284.676 139.028 284.658 138.938 284.64 138.848C284.551 138.426 284.407 138.022 284.21 137.653C284.156 137.528 284.084 137.411 284.013 137.303C284.004 137.294 283.995 137.276 283.995 137.267C283.932 137.168 283.851 137.079 283.779 136.989C283.681 136.872 283.582 136.755 283.466 136.656C283.385 136.575 283.304 136.504 283.214 136.432C283.098 136.342 282.981 136.27 282.874 136.198C282.829 136.171 282.766 136.135 282.721 136.108C282.685 136.09 282.641 136.072 282.605 136.054C282.596 136.045 282.587 136.045 282.578 136.036H282.569C282.524 136.009 282.461 135.991 282.407 135.973C282.309 135.938 282.21 135.902 282.111 135.875C281.968 135.839 281.824 135.803 281.672 135.785H281.663C280.21 135.614 278.964 136.243 277.583 136.207C276.444 136.18 272.991 135.821 272.023 135.524C271.583 135.39 266.122 131.068 265.934 130.727C265.781 130.457 265.656 130.341 265.754 129.945C266.956 129.864 268.22 130.071 269.422 129.909C272.453 129.487 271.485 123.171 268.857 122.551L216.432 125.678L215.427 130.349L141.067 93.3802C141.111 95.0063 140.537 98.007 141.856 99.0132C148.671 102.319 155.433 105.778 162.105 109.354C172.615 114.996 183.35 120.692 194.147 126.397C195.357 127.043 199.142 128.301 199.339 129.379C199.518 130.394 199.303 131.94 199.339 133.081L203.993 137.95C204.235 139.729 204.056 141.606 203.868 143.421C203.814 144.005 203.742 144.598 203.697 145.173C203.67 145.461 203.653 145.748 203.635 146.036C203.617 146.314 203.608 146.593 203.599 146.871C203.59 147.383 203.581 147.886 203.581 148.398C203.572 149.414 203.563 150.42 203.554 151.417C203.545 152.414 203.545 153.403 203.527 154.391C203.518 155.379 203.5 156.349 203.473 157.302C203.455 157.948 203.437 158.586 203.392 159.224C203.392 159.332 203.392 159.422 203.384 159.53C203.375 159.745 203.366 159.943 203.348 160.158C203.33 160.626 203.294 161.093 203.258 161.551C203.204 162.333 203.123 163.096 203.034 163.869C203.016 164.031 202.998 164.201 202.98 164.372C202.926 164.794 202.863 165.208 202.801 165.621C202.747 166.025 202.675 166.429 202.603 166.825C202.541 167.22 202.46 167.615 202.37 168.002C202.325 168.217 202.272 168.424 202.227 168.63C202.182 168.837 202.128 169.035 202.083 169.232C201.904 169.933 201.707 170.625 201.464 171.308C201.375 171.559 201.294 171.82 201.195 172.071C201.061 172.449 200.917 172.808 200.756 173.185C200.532 173.688 200.308 174.183 200.056 174.677C199.967 174.856 199.877 175.036 199.778 175.207C199.761 175.234 199.752 175.261 199.734 175.297C199.725 175.315 199.707 175.341 199.698 175.359C199.465 175.782 199.222 176.204 198.936 176.617C198.837 176.779 198.738 176.941 198.622 177.111C198.514 177.255 198.406 177.408 198.308 177.552C198.146 177.785 197.976 178.01 197.797 178.234C197.797 178.234 197.791 178.24 197.779 178.252C197.599 178.495 197.411 178.719 197.223 178.944C197.124 179.052 197.043 179.169 196.936 179.268C196.792 179.438 196.64 179.609 196.478 179.78C196.218 180.058 195.949 180.337 195.671 180.597C195.438 180.822 195.214 181.037 194.963 181.262C194.954 181.271 194.945 181.28 194.927 181.289C194.649 181.54 194.362 181.792 194.057 182.026C193.878 182.178 193.68 182.331 193.492 182.475C193.376 182.574 193.25 182.654 193.124 182.744C192.811 182.987 192.47 183.211 192.138 183.445C191.806 183.67 191.465 183.885 191.116 184.11C190.721 184.361 190.309 184.604 189.878 184.838C189.555 185.008 189.223 185.197 188.883 185.368C188.452 185.601 188.013 185.817 187.546 186.032L95.8332 201.171C95.7884 201.18 95.7346 201.18 95.6987 201.18C95.4656 201.206 95.3669 201.206 95.3131 201.171C95.2952 201.153 95.2862 201.117 95.2862 201.063C95.2862 201.009 95.2952 200.919 95.2952 200.802C95.2952 200.748 95.2862 200.685 95.2773 200.614C95.2593 200.497 95.2504 200.38 95.2504 200.263C95.1248 198.88 95.3042 197.146 95.2773 195.735C94.8468 168.055 95.627 140.331 95.2683 112.642C95.4028 110.827 96.2009 106.299 97.2771 104.925C97.8151 104.242 100.165 103.056 101.106 102.535C111.016 96.9649 121.427 92.4908 131.381 86.9567L173.359 83.4888L184.623 42.0366H192.389C192.066 39.6827 194.443 37.5805 192.389 35.4243L96.443 32.7201C86.8745 32.4506 77.2969 32.774 67.7642 33.6994L45.9456 35.8106C45.9725 36.6461 45.6587 40.8237 44.9771 40.8686L5.9315 18.4804C5.54589 18.184 4.85537 18.714 4.77466 18.705C6.12879 19.9987 5.11544 21.8315 5.94944 23.3677C6.16466 23.4396 6.37092 23.5025 6.58615 23.5923C6.99866 23.7451 7.41118 23.9248 7.81473 24.1404C8.01202 24.2392 8.21828 24.338 8.40661 24.4458C8.6039 24.5447 8.80118 24.6615 8.98951 24.7693C9.1868 24.8771 9.38409 24.9939 9.57241 25.1017C9.95802 25.3263 10.3436 25.5509 10.7203 25.7755C11.4287 26.1887 12.1462 26.611 12.8725 27.0512C14.0473 27.7519 15.2311 28.4797 16.4238 29.2343C17.0156 29.6116 17.6255 29.98 18.2173 30.3663C18.8182 30.7436 19.428 31.1299 20.0288 31.5163C21.8403 32.6662 23.6608 33.8521 25.4991 35.038C26.4856 35.6848 27.4631 36.3137 28.4495 36.9516C28.8351 37.1942 29.2118 37.4277 29.5795 37.6703C30.3417 38.1465 31.0861 38.6226 31.8393 39.0988C32.5837 39.5659 33.3459 40.0421 34.0902 40.5003C34.1172 40.5182 34.1441 40.5362 34.1799 40.5452C34.8704 40.9764 35.561 41.3897 36.2515 41.803C36.3412 41.8569 36.4308 41.9108 36.5205 41.9647C37.1124 42.324 37.7222 42.6744 38.3141 43.0248C38.4037 43.0787 38.4934 43.1236 38.5831 43.1865C39.0315 43.456 39.4888 43.7166 39.9552 43.9681C40.6188 44.3365 41.2734 44.7048 41.937 45.0642C42.2778 45.2528 42.6276 45.4415 42.9773 45.6212C43.4167 45.8548 43.8472 46.0704 44.2776 46.295C44.9592 46.6543 45.6407 46.9867 46.3223 47.3102C47.1114 47.6875 47.7481 47.9391 48.6539 47.8851L50.2232 96.902L72.4902 95.7969C74.8308 98.4652 75.6468 101.915 76.7588 105.167C76.9741 105.796 76.8126 106.434 77.7991 106.245C77.826 106.209 77.8529 106.182 77.8977 106.138C77.9605 106.075 78.0502 105.994 78.1488 105.904C78.2385 105.823 78.3282 105.751 78.4358 105.67C78.4986 105.616 78.5793 105.554 78.66 105.509C78.7228 105.464 78.7855 105.41 78.8483 105.374C78.9559 105.311 79.0456 105.239 79.1532 105.185C79.216 105.149 79.2788 105.104 79.3415 105.068C79.4043 105.033 79.4671 105.006 79.5299 104.961C79.6464 104.907 79.7541 104.853 79.8527 104.808C79.8706 104.808 79.8886 104.799 79.8975 104.79C80.3011 104.628 80.6688 104.565 80.8661 104.709C82.5699 109.156 83.6461 113.702 84.0227 118.482L83.6012 237.583C84.6594 252.155 90.9996 261.921 104.209 267.913C104.801 268.173 107.204 268.775 107.312 268.892C107.42 268.991 107.473 269.18 107.438 269.341C107.429 269.368 107.42 269.404 107.402 269.44C107.384 269.458 107.375 269.476 107.357 269.494C107.267 269.593 107.097 269.638 106.819 269.593C99.4114 268.209 92.9546 264.193 87.5201 259.153L84.7939 276.663C86.7758 277.427 88.2914 276.888 90.3091 276.546C95.8422 275.63 101.375 274.148 106.846 272.899C107.976 272.378 107.231 270.294 107.716 269.278L116.065 270.437C141.174 266.889 165.262 260.806 190.12 255.533C208.728 251.571 227.794 247.582 246.832 243.44C253.63 241.958 260.553 240.709 267.351 238.733C268.391 238.427 269.87 237.511 270.749 237.43C271.664 237.34 272.776 238.508 273.924 238.76C277.834 239.586 285.438 236.577 289.644 236.172C291.922 234.654 287.053 232.345 286.057 230.89C285.331 229.821 283.501 225.517 283.663 224.367L288.667 216.83C291.375 209.508 292.532 201.764 293.366 193.983L295.68 158.613L298.424 157.796L299.222 140.636C299.455 139.765 298.549 139.522 298.415 139.298L298.343 139.289ZM271.736 224.888C266.077 229.875 261.297 231.276 254.141 232.947C210.325 243.162 165.71 250.403 121.804 260.294C121.14 260.348 120.468 260.384 119.813 260.384C119.436 260.384 119.069 260.375 118.692 260.357C118.638 260.357 118.575 260.357 118.513 260.348C118.208 260.33 117.885 260.312 117.571 260.285C117.508 260.276 117.428 260.267 117.356 260.267C116.997 260.231 116.656 260.178 116.298 260.133H116.28C116.28 260.133 116.226 260.124 116.19 260.115C115.831 260.07 115.482 259.998 115.123 259.935C114.737 259.854 114.352 259.773 113.975 259.675C113.616 259.585 113.276 259.504 112.917 259.387C112.872 259.378 112.809 259.369 112.764 259.351C112.433 259.252 112.092 259.135 111.76 259.028C111.751 259.028 111.733 259.019 111.715 259.01C111.347 258.884 110.989 258.749 110.621 258.596C110.253 258.453 109.895 258.3 109.536 258.138C109.518 258.129 109.509 258.12 109.491 258.12C109.159 257.959 108.819 257.797 108.487 257.617C108.155 257.437 107.814 257.249 107.491 257.069C107.204 256.898 106.917 256.728 106.639 256.539C106.505 256.449 106.37 256.368 106.236 256.27C105.985 256.108 105.743 255.946 105.509 255.757C105.222 255.56 104.944 255.335 104.666 255.111C104.415 254.913 104.164 254.706 103.931 254.5L103.554 254.158C103.312 253.943 103.088 253.727 102.855 253.493C102.64 253.278 102.442 253.071 102.254 252.847C102.093 252.685 101.949 252.523 101.815 252.344C101.617 252.119 101.429 251.903 101.25 251.67C100.918 251.247 100.595 250.807 100.299 250.349C100.003 249.891 99.7163 249.424 99.4562 248.957C99.1961 248.48 98.9451 247.986 98.7298 247.474C96.9542 245.453 97.582 245.246 96.9453 243.153C96.2368 240.799 95.3849 238.535 95.2145 236.002C94.6495 227.197 95.4745 218.105 95.4566 209.292L144.618 201.027C156.778 199.841 169.575 196.166 182.157 194.63C186.838 194.064 191.313 193.148 196.039 193.759C200.496 194.334 206.773 192.052 211.365 191.827C211.454 189.186 208.352 188.674 207.078 186.877C206.675 186.311 205.141 181.325 205.177 180.714C205.195 180.319 207.545 177.129 208.02 176.213C214.432 163.572 211.688 148.641 212.916 135.012C219.83 134.877 228.691 132.946 235.327 134.931C236.537 135.3 242.097 137.528 242.967 138.094C243.711 138.597 243.093 143.215 243.254 144.517C243.837 149.099 246.662 154.463 250.231 157.382L252.554 157.966C249.236 154.543 248.025 147.778 247.89 143.188C248.142 143.215 248.366 143.268 248.581 143.34C248.796 143.394 248.994 143.484 249.173 143.583C249.263 143.628 249.343 143.682 249.433 143.736C249.594 143.843 249.747 143.96 249.89 144.104C249.971 144.158 250.034 144.23 250.088 144.302C250.15 144.365 250.213 144.445 250.267 144.526C250.294 144.562 250.321 144.607 250.357 144.643C250.446 144.76 250.518 144.886 250.599 145.011C250.662 145.128 250.724 145.245 250.769 145.371C250.832 145.497 250.895 145.631 250.94 145.766C250.993 145.901 251.047 146.036 251.083 146.17C251.11 146.26 251.137 146.341 251.164 146.431C251.226 146.629 251.28 146.835 251.325 147.042C251.424 147.464 251.496 147.895 251.567 148.336C251.711 149.216 251.836 150.114 252.025 150.932C252.069 151.13 252.123 151.336 252.177 151.525C253.316 155.37 255.728 158.955 259.145 161.084C261.593 161.892 264.947 163.042 267.503 163.06C269.252 163.06 279.269 160.994 279.735 161.461C279.69 163.662 279.798 165.881 279.735 168.082C281.206 169.062 284.578 170.903 284.802 172.529C282.865 190.56 286.882 211.556 271.763 224.879L271.736 224.888Z" fill="white"/>
<path d="M215.086 1.40284e-05C213.723 0.215631 212.531 0.763657 212.217 2.21907L209.006 24.3108C209.383 27.0958 210.863 27.7606 213.293 28.3805C216.288 29.1532 219.875 29.6293 223.005 30.3301C245.631 35.3971 268.274 41.3445 290.981 45.8994C293.142 46.3306 297.724 47.6513 299.652 47.0044C300.047 46.8697 300.253 46.5642 300.397 46.1959L304.961 15.165C275.126 9.37036 245.003 5.32753 215.095 0.00899312L215.086 1.40284e-05Z" fill="white"/>
<path d="M181.628 86.3721C169.315 87.2346 156.213 87.2346 143.999 88.7529C142.232 88.9685 140.771 89.6243 140.618 91.6367C140.555 92.4183 141.031 93.0382 141.04 93.3796L215.391 130.358L216.396 125.677L268.83 122.56C253.289 115.391 237.013 108.886 221.05 102.328C217.266 100.773 213.499 98.779 209.786 97.2697C200.505 93.4874 190.909 90.2352 181.628 86.3721Z" fill="white"/>
<path d="M50.1515 96.8747L48.5821 47.8579C47.6764 47.9028 47.0397 47.6603 46.2505 47.2739C34.6642 41.7128 22.0645 32.3694 10.6575 25.7392C9.13299 24.8498 7.58157 23.8436 5.8777 23.3225L8.29002 64.2987C10.7472 67.0747 13.6796 69.2848 16.5852 71.5757C21.1587 75.1783 26.2973 79.1852 31.1309 82.8597C32.0366 83.5514 33.5612 84.2522 34.5925 85.0338C39.7669 88.9598 44.735 93.3889 50.1605 96.8658L50.1515 96.8747Z" fill="white"/>
<path d="M104.146 267.894C90.9278 261.902 84.5965 252.136 83.5383 237.564L83.9598 118.454C83.5921 113.683 82.507 109.138 80.8032 104.69C80.1933 104.259 78.2115 105.625 77.7272 106.218L77.3416 199.22C70.6965 199.948 63.8362 201.583 57.3166 199.238L52.8686 197.28C59.146 205.608 67.6295 205.985 77.3326 203.901C77.6375 206.776 77.0188 209.624 76.947 212.463C76.7408 221.168 76.5166 232.03 77.8348 240.565C78.7316 246.324 81.0363 251.445 84.2826 256.224C83.7894 261.004 81.8524 264.633 78.893 268.299C80.1126 270.814 82.0228 275.656 84.7131 276.681L87.4393 259.171C92.8827 264.202 99.3305 268.218 106.747 269.601C107.509 269.745 107.455 269.107 107.249 268.9C107.132 268.784 104.738 268.182 104.146 267.912V267.894Z" fill="white"/>
<path d="M95.7525 201.143L187.466 186.005C204.953 177.794 203.24 163.222 203.554 146.871C203.608 144.068 204.352 140.896 203.948 137.95L199.294 133.08C199.509 141.049 199.366 151.875 198.514 159.727C195.842 184.298 176.139 183.274 156.706 186.338C142.788 188.53 128.817 190.641 114.692 192.887C108.209 193.92 101.716 194.989 95.1965 195.726C95.2234 197.244 95.0082 199.167 95.1965 200.595C95.2683 201.17 94.9723 201.242 95.7525 201.152V201.143Z" fill="white"/>
<path d="M38.0899 184.639C36.8523 163.85 38.341 141.435 37.7312 120.404C37.4442 110.593 36.2963 100.747 35.6955 90.927L31.5076 86.3721C31.8304 109.668 32.3147 132.963 32.6913 156.205C32.8527 166.222 31.8214 177.937 33.1128 187.694C33.6688 191.916 35.3458 195.932 37.7312 199.427C36.9869 202.796 35.9018 205.617 33.8302 208.357C33.319 209.04 31.9649 209.947 31.6959 210.513C30.8708 212.292 34.0992 216.227 35.7762 217.117L39.6592 201.556C40.1614 201.044 44.0625 205.491 44.6992 206.03C47.8917 208.726 53.3621 211.906 57.5231 211.861C45.309 207.423 38.8432 197.486 38.0809 184.639H38.0899Z" fill="white"/>
<path d="M296.801 137.348L288.64 138.13L294.469 51.5506C293.321 51.5506 291.6 50.8857 290.577 50.9666C288.084 51.1463 288.12 53.4731 287.86 55.4496C284.757 79.1944 284.264 105.284 282.417 129.379C282.255 131.49 281.995 133.718 281.645 135.803C283.591 136.036 284.658 137.896 284.748 139.693L274.265 140.474L274.875 142.828L298.343 139.306C297.877 138.534 297.671 137.878 296.792 137.357L296.801 137.348Z" fill="white"/>
<path d="M57.5229 35.0015L57.5139 34.9745L56.9041 35.0374L57.5229 35.0015Z" fill="white"/>
<path d="M216.019 42.9975C216.055 41.3355 216.234 31.3004 215.642 30.8961L212.898 30.7254C210.378 52.2331 211.562 75.2053 209.795 96.8747L213.687 95.8236C214.737 82.3925 214.791 68.8805 215.23 55.4314C215.364 51.3617 215.929 47.0673 216.019 42.9886L216.019 42.9975Z" fill="white"/>
<path d="M279.708 168.082C279.43 177.345 278.82 188.673 277.762 197.846C276.04 212.814 267.646 223.603 252.984 227.116C209.114 237.627 163.396 243.952 119.436 254.419C111.482 255.856 104.03 253.511 98.7029 247.465C102.541 256.161 112.459 261.103 121.804 260.303C165.71 250.403 210.325 243.171 254.141 232.947C261.297 231.276 266.068 229.874 271.727 224.888C286.846 211.565 282.829 190.569 284.766 172.538C284.542 170.912 281.161 169.07 279.699 168.082H279.708Z" fill="white"/>
<path d="M247.855 143.187C247.989 147.778 249.2 154.552 252.518 157.975C253.989 159.484 257.1 160.419 259.118 161.093C255.701 158.963 253.289 155.379 252.15 151.534C251.227 148.434 251.8 143.78 247.855 143.196V143.187Z" fill="white"/>
<path d="M42.3946 102.121C39.5159 103.415 42.2511 108.105 44.6186 105.733C46.0086 104.34 44.8248 101.034 42.3946 102.121Z" fill="white"/>
<path d="M45.8739 35.7744L67.6924 33.6632C77.2252 32.7378 86.8027 32.4144 96.3713 32.6839L192.317 35.3971C191.501 34.5346 189.779 34.2202 188.632 33.8339C164.553 25.3799 139.668 18.9383 115.562 10.5383C65.0559 7.61847 37.1483 7.50168 21.7955 8.14853C21.7955 8.14853 6.27228 8.56179 1.5373 10.8347C1.52833 10.8347 1.51936 10.8437 1.50143 10.8527C1.49246 10.8527 1.48349 10.8617 1.46556 10.8707C0.828847 11.1941 0.407364 11.6882 0.192138 12.2632V12.2902C-0.301089 13.5839 0.192138 15.2998 1.25033 16.4767C1.82427 17.1236 3.87789 18.5071 4.69395 18.6778C4.78363 18.6868 5.47414 18.1567 5.85079 18.4532L44.8964 40.8414C45.5779 40.8055 45.8918 36.6189 45.8649 35.7834L45.8739 35.7744Z" fill="white"/>
<path d="M410.347 0C414.796 0.000100236 418.6 0.920879 421.755 2.76282C424.943 4.60484 427.373 7.07649 429.045 10.1772C430.75 13.2778 431.602 16.7163 431.602 20.4922H420.145C420.145 18.313 419.799 16.379 419.105 14.6908C418.411 13.0023 417.337 11.6804 415.885 10.7287C414.434 9.77706 412.554 9.30305 410.251 9.30305C408.137 9.30316 406.384 9.70164 404.996 10.4998C403.639 11.2979 402.631 12.3887 401.968 13.7699C401.337 15.1514 401.022 16.7319 401.022 18.5124C401.022 19.7401 401.288 20.8607 401.824 21.8736C402.361 22.856 403.135 23.7633 404.145 24.5922C405.155 25.4209 406.387 26.2022 407.838 26.9388C409.29 27.6755 410.962 28.3837 412.855 29.059C416.074 30.1949 418.884 31.4524 421.282 32.8338C423.68 34.2152 425.651 35.7665 427.198 37.4854C428.775 39.1739 429.943 41.0935 430.701 43.2425C431.49 45.3913 431.885 47.8313 431.886 50.5632C431.886 53.326 431.396 55.8438 430.417 58.1155C429.471 60.3566 428.081 62.2762 426.251 63.8726C424.421 65.4688 422.212 66.713 419.624 67.6032C417.036 68.4627 414.133 68.8936 410.914 68.8936C407.947 68.8935 405.091 68.4628 402.346 67.6032C399.632 66.7436 397.201 65.4378 395.055 63.6879C392.91 61.9075 391.204 59.6829 389.942 57.0124C388.711 54.3415 388.097 51.2077 388.097 47.6157H399.599C399.599 49.7647 399.867 51.6089 400.404 53.1439C400.94 54.6479 401.716 55.8897 402.725 56.8719C403.767 57.8236 404.982 58.5317 406.37 58.9922C407.79 59.4218 409.368 59.6374 411.104 59.6374C413.25 59.6373 415.002 59.2685 416.359 58.5317C417.747 57.7642 418.771 56.7035 419.434 55.3526C420.097 54.002 420.429 52.4372 420.429 50.6569C420.429 49.2757 420.271 48.0474 419.956 46.9731C419.672 45.8681 419.12 44.869 418.3 43.9788C417.48 43.0886 416.311 42.2133 414.797 41.3538C413.314 40.4942 411.387 39.6192 409.02 38.7289C406.306 37.7158 403.766 36.6092 401.399 35.412C399.064 34.184 396.996 32.8026 395.197 31.2677C393.43 29.7021 392.04 27.8762 391.031 25.7889C390.021 23.7013 389.517 21.2754 389.517 18.5124C389.517 15.7801 390.007 13.2924 390.985 11.0513C391.995 8.77986 393.415 6.82994 395.245 5.20305C397.107 3.54548 399.316 2.27165 401.872 1.38141C404.428 0.460389 407.254 0 410.347 0Z" fill="white"/>
<path d="M462.752 0C467.517 0 471.528 0.891126 474.778 2.67177C478.028 4.45239 480.536 7.06174 482.304 10.4998C484.071 13.9379 485.097 18.128 485.382 23.0703H473.925C473.767 19.7245 473.294 17.0529 472.505 15.0576C471.748 13.032 470.579 11.5747 469.002 10.6845C467.455 9.79414 465.371 9.34728 462.752 9.34728C460.575 9.34738 458.698 9.74847 457.12 10.5466C455.574 11.3447 454.295 12.5406 453.285 14.1367C452.307 15.7024 451.565 17.6839 451.06 20.0786C450.587 22.4424 450.351 25.2211 450.351 28.4139V40.3861C450.351 43.4557 450.556 46.1729 450.966 48.5366C451.377 50.9002 452.038 52.9119 452.953 54.5696C453.869 56.1966 455.084 57.4406 456.598 58.3002C458.113 59.129 460.007 59.5436 462.279 59.5437C464.992 59.5437 467.154 59.1288 468.764 58.3002C470.405 57.4712 471.62 56.074 472.409 54.1091C473.198 52.1443 473.688 49.4733 473.877 46.0964H485.334C485.113 50.9471 484.102 55.0771 482.304 58.4849C480.505 61.8619 477.917 64.4412 474.54 66.2218C471.195 68.0024 467.107 68.8936 462.279 68.8936C458.618 68.8935 455.335 68.2474 452.432 66.958C449.561 65.6687 447.116 63.8106 445.096 61.3856C443.077 58.9295 441.53 55.9357 440.457 52.4051C439.415 48.8747 438.895 44.868 438.895 40.3861V28.5049C438.895 24.0229 439.432 20.0163 440.505 16.4859C441.609 12.9556 443.187 9.9613 445.238 7.5054C447.289 5.04977 449.783 3.19151 452.718 1.93293C455.684 0.643998 459.029 0.000100739 462.752 0Z" fill="white"/>
<path fill-rule="evenodd" clip-rule="evenodd" d="M574.143 0C577.773 0 581.055 0.613852 583.99 1.84188C586.957 3.06991 589.497 4.89795 591.612 7.32329C593.726 9.74851 595.351 12.7725 596.487 16.3948C597.623 19.9865 598.19 24.1766 598.19 28.9654V40.3861C598.19 45.114 597.623 49.2601 596.487 52.8214C595.382 56.3822 593.774 59.3606 591.66 61.755C589.577 64.1189 587.05 65.8986 584.084 67.0959C581.149 68.2931 577.866 68.8936 574.237 68.8936C570.64 68.8934 567.359 68.2929 564.393 67.0959C561.458 65.8987 558.917 64.1185 556.771 61.755C554.657 59.3606 553.016 56.3822 551.848 52.8214C550.712 49.2601 550.142 45.114 550.142 40.3861V28.9654C550.142 24.1765 550.712 19.9865 551.848 16.3948C552.984 12.7724 554.609 9.74856 556.723 7.32329C558.869 4.89794 561.41 3.06991 564.345 1.84188C567.311 0.614001 570.577 1.02405e-05 574.143 0ZM574.143 9.53199C572.155 9.532 570.373 9.91704 568.795 10.6845C567.249 11.4211 565.923 12.5714 564.818 14.1367C563.745 15.6717 562.923 17.6693 562.355 20.1254C561.819 22.5505 561.55 25.4671 561.55 28.8743V40.3861C561.55 43.7323 561.835 46.6187 562.403 49.0439C562.971 51.4386 563.793 53.404 564.866 54.939C565.971 56.4428 567.311 57.5635 568.888 58.3002C570.466 59.0368 572.249 59.4057 574.237 59.4058C576.256 59.4058 578.056 59.0368 579.634 58.3002C581.212 57.5633 582.523 56.4433 583.565 54.939C584.638 53.404 585.441 51.4384 585.977 49.0439C586.514 46.6186 586.782 43.7324 586.782 40.3861V28.8743C586.782 25.4671 586.499 22.5505 585.932 20.1254C585.395 17.6693 584.59 15.6717 583.517 14.1367C582.444 12.5713 581.118 11.4212 579.54 10.6845C577.994 9.91694 576.195 9.53199 574.143 9.53199Z" fill="white"/>
<path fill-rule="evenodd" clip-rule="evenodd" d="M630.621 0C634.251 0 637.533 0.61394 640.468 1.84188C643.435 3.06991 645.975 4.89794 648.09 7.32329C650.204 9.74854 651.829 12.7724 652.965 16.3948C654.101 19.9865 654.671 24.1765 654.671 28.9654V40.3861C654.671 45.114 654.101 49.2601 652.965 52.8214C651.86 56.3822 650.252 59.3606 648.138 61.755C646.055 64.1186 643.53 65.8986 640.564 67.0959C637.63 68.2931 634.346 68.8935 630.718 68.8936C627.12 68.8936 623.837 68.2931 620.871 67.0959C617.936 65.8987 615.395 64.1186 613.249 61.755C611.135 59.3606 609.494 56.3822 608.326 52.8214C607.19 49.2601 606.622 45.114 606.622 40.3861V28.9654C606.622 24.1765 607.19 19.9865 608.326 16.3948C609.462 12.7725 611.087 9.74853 613.201 7.32329C615.347 4.89794 617.888 3.06991 620.823 1.84188C623.789 0.613948 627.055 5.73349e-05 630.621 0ZM630.621 9.53199C628.633 9.53205 626.851 9.91701 625.273 10.6845C623.727 11.4212 622.401 12.5713 621.296 14.1367C620.223 15.6717 619.401 17.6693 618.833 20.1254C618.297 22.5505 618.031 25.4672 618.031 28.8743V40.3861C618.031 43.7322 618.313 46.6187 618.881 49.0439C619.449 51.4386 620.271 53.404 621.344 54.939C622.449 56.4428 623.789 57.5634 625.366 58.3002C626.944 59.037 628.729 59.4058 630.718 59.4058C632.737 59.4057 634.537 59.0368 636.114 58.3002C637.692 57.5633 639.002 56.443 640.043 54.939C641.116 53.404 641.921 51.4385 642.458 49.0439C642.994 46.6187 643.263 43.7322 643.263 40.3861V28.8743C643.263 25.4671 642.977 22.5505 642.41 20.1254C641.873 17.6693 641.068 15.6717 639.995 14.1367C638.922 12.5714 637.596 11.4212 636.018 10.6845C634.472 9.91697 632.673 9.53199 630.621 9.53199Z" fill="white"/>
<path d="M505.027 28.8275H528.887V0.92094H540.341V67.9726H528.887V38.2216H505.027V67.9726H493.525V0.92094H505.027V28.8275Z" fill="white"/>
<path d="M675.878 58.6228H701.49V67.9726H664.376V0.92094H675.878V58.6228Z" fill="white"/>
<path fill-rule="evenodd" clip-rule="evenodd" d="M489.607 78.462C494.047 78.462 498.067 79.2247 501.665 80.7513C505.301 82.2407 508.422 84.4569 511.025 87.3982C513.667 90.3401 515.678 94.0112 517.056 98.4053C518.472 102.799 519.179 107.919 519.179 113.765V127.451C519.179 133.186 518.49 138.215 517.112 142.535C515.734 146.854 513.743 150.466 511.14 153.37C508.537 156.238 505.417 158.398 501.78 159.851C498.144 161.303 494.124 162.031 489.722 162.031C485.281 162.031 481.242 161.303 477.605 159.851C473.968 158.398 470.83 156.238 468.189 153.37C465.586 150.466 463.557 146.854 462.102 142.535C460.686 138.215 459.976 133.186 459.976 127.451V113.765C459.976 107.919 460.686 102.799 462.102 98.4053C463.519 94.0113 465.527 90.34 468.13 87.3982C470.771 84.4567 473.912 82.2408 477.549 80.7513C481.185 79.2249 485.205 78.462 489.607 78.462ZM489.607 91.0872C487.272 91.0872 485.204 91.5136 483.405 92.3697C481.645 93.226 480.151 94.5677 478.926 96.3917C477.739 98.179 476.84 100.51 476.228 103.377C475.615 106.244 475.308 109.669 475.308 113.653V127.451C475.308 131.361 475.615 134.713 476.228 137.506C476.84 140.299 477.76 142.572 478.985 144.322C480.248 146.072 481.76 147.376 483.52 148.232C485.319 149.051 487.387 149.46 489.722 149.46C492.018 149.46 494.048 149.051 495.809 148.232C497.607 147.376 499.102 146.072 500.288 144.322C501.513 142.572 502.412 140.299 502.986 137.506C503.599 134.713 503.906 131.361 503.906 127.451V113.653C503.906 109.669 503.599 106.244 502.986 103.377C502.374 100.51 501.454 98.1791 500.229 96.3917C499.004 94.5678 497.492 93.226 495.694 92.3697C493.933 91.5135 491.903 91.0872 489.607 91.0872Z" fill="white"/>
<path d="M544.566 135.776C544.566 139.462 545.025 142.311 545.943 144.322C546.9 146.333 548.24 147.711 549.963 148.456C551.685 149.201 553.809 149.572 556.335 149.572C558.862 149.572 560.988 149.201 562.711 148.456C564.433 147.711 565.753 146.332 566.671 144.322C567.59 142.311 568.051 139.462 568.051 135.776V79.578H583.439V135.776C583.439 141.994 582.253 147.042 579.88 150.914C577.506 154.787 574.27 157.616 570.175 159.403C566.079 161.153 561.465 162.031 556.335 162.031C551.091 162.031 546.421 161.153 542.325 159.403C538.229 157.616 535.014 154.787 532.679 150.914C530.382 147.042 529.232 141.995 529.232 135.776V79.578H544.566V135.776Z" fill="white"/>
<path d="M619.159 78.462C624.557 78.4621 629.189 79.5612 633.055 81.7581C636.921 83.955 639.908 86.9337 642.014 90.6944C644.119 94.4554 645.172 98.7023 645.172 103.431H629.84C629.84 100.974 629.458 98.7952 628.693 96.8964C627.966 94.9602 626.798 93.4496 625.19 92.3697C623.582 91.2901 621.514 90.7518 618.988 90.7516C616.615 90.7516 614.663 91.2181 613.132 92.1486C611.601 93.0422 610.471 94.2713 609.743 95.835C609.016 97.3614 608.652 99.1117 608.652 101.085C608.652 102.5 608.978 103.786 609.628 104.94C610.317 106.057 611.255 107.082 612.442 108.013C613.628 108.943 615.064 109.836 616.747 110.692C618.47 111.512 620.386 112.314 622.492 113.096C626.357 114.511 629.745 116.074 632.654 117.787C635.563 119.462 637.976 121.364 639.89 123.487C641.842 125.572 643.298 127.938 644.255 130.581C645.211 133.224 645.688 136.241 645.688 139.629C645.688 142.98 645.096 146.036 643.91 148.792C642.723 151.547 640.998 153.913 638.74 155.886C636.482 157.859 633.745 159.385 630.53 160.465C627.353 161.507 623.81 162.031 619.906 162.031C616.154 162.031 612.575 161.507 609.168 160.465C605.8 159.385 602.813 157.765 600.209 155.605C597.607 153.445 595.56 150.726 594.067 147.449C592.574 144.135 591.826 140.244 591.826 135.776H607.157C607.157 138.27 607.447 140.43 608.021 142.254C608.595 144.041 609.456 145.494 610.604 146.612C611.753 147.691 613.131 148.491 614.739 149.013C616.347 149.497 618.166 149.741 620.194 149.741C622.605 149.741 624.558 149.312 626.051 148.456C627.544 147.6 628.635 146.425 629.324 144.936C630.013 143.41 630.357 141.677 630.357 139.741C630.357 138.14 630.185 136.724 629.84 135.495C629.534 134.23 628.922 133.075 628.003 132.033C627.084 130.99 625.762 129.966 624.04 128.96C622.318 127.918 620.098 126.856 617.381 125.776C614.165 124.51 611.119 123.169 608.248 121.754C605.378 120.302 602.813 118.624 600.554 116.725C598.296 114.826 596.515 112.593 595.214 110.024C593.951 107.454 593.321 104.456 593.321 101.03C593.321 97.6789 593.933 94.6232 595.158 91.8676C596.421 89.0754 598.202 86.692 600.498 84.7186C602.795 82.7081 605.514 81.1626 608.652 80.0827C611.829 79.003 615.332 78.462 619.159 78.462Z" fill="white"/>
<path d="M406.86 112.984H433.848V79.578H449.121V160.912H433.848V125.44H406.86V160.912H391.469V79.578H406.86V112.984Z" fill="white"/>
<path d="M702.308 92.0914H670.669V112.984H697.657V125.105H670.669V148.456H702.538V160.912H655.278V79.578H702.308V92.0914Z" fill="white"/>
<path d="M414.979 258.568H452.237V277.052H391.469V172.341H414.979V258.568Z" fill="white"/>
<path fill-rule="evenodd" clip-rule="evenodd" d="M544.28 277.052H519.216L513.935 256.484H485.89L480.627 277.052H455.566L489.053 172.341H510.643L544.28 277.052ZM490.621 238H509.191L499.887 201.774L490.621 238Z" fill="white"/>
<path d="M603.943 237.857V172.341H626.786V277.052H603.793L573.336 211.894V277.052H550.417V172.341H573.411L603.943 237.857Z" fill="white"/>
<path d="M702.492 190.895H663.309V214.34H696.283V232.176H663.309V258.568H702.492V277.052H639.799V172.341H702.492V190.895Z" fill="white"/>
</svg>
