<svg width="703" height="336" viewBox="0 0 703 336" fill="none" xmlns="http://www.w3.org/2000/svg">
<path d="M77.3329 247.101C67.6208 249.627 59.1463 249.17 52.8599 239.077C47.5958 230.606 48.6002 227.612 48.2146 217.595C46.9501 184.31 47.5599 150.558 50.1426 117.404C44.7171 113.191 39.74 107.823 34.5746 103.065C33.5344 102.107 32.0098 101.257 31.1131 100.419C31.7139 101.726 31.4807 103.25 31.4987 104.665L35.6866 110.185C36.2875 122.075 37.4443 134.019 37.7313 145.909C38.3321 171.397 36.8524 198.563 38.09 223.757C38.8612 239.327 45.318 251.369 57.5231 256.759C53.3621 256.802 47.8917 252.948 44.6992 249.692C44.0625 249.039 40.1615 243.639 39.6593 244.259L35.7673 263.106C35.9018 263.204 35.9198 263.879 36.7358 264.064C38.6729 264.511 39.6324 263.466 41.1121 263.237C45.8471 262.464 52.4832 261.963 56.9133 260.265C57.3886 260.079 57.837 259.96 58.106 259.383L57.9266 256.998C64.2668 259.045 70.5353 258.566 76.9473 257.466C76.9742 256.084 77.0907 254.69 77.2073 253.307C77.2611 252.632 77.3149 251.957 77.3508 251.282C77.4315 249.899 77.4584 248.495 77.3418 247.101H77.3329ZM44.6095 128.14C44.0535 128.815 43.4706 129.022 42.9505 128.924C42.9057 128.913 42.8518 128.902 42.807 128.88C42.5559 128.804 42.3317 128.651 42.1165 128.434C42.0537 128.368 41.982 128.292 41.9192 128.216C41.8654 128.161 41.8116 128.085 41.7668 128.02C41.7219 127.955 41.6681 127.878 41.6322 127.802C41.5067 127.584 41.3991 127.334 41.3273 127.084C41.3004 127.007 41.2735 126.909 41.2646 126.811C41.2377 126.746 41.2287 126.67 41.2197 126.604V126.572C41.2197 126.572 41.2108 126.528 41.2018 126.506C41.1928 126.441 41.1838 126.365 41.1838 126.289C41.1569 125.984 41.1749 125.668 41.2377 125.363C41.2556 125.254 41.2825 125.156 41.3273 125.047C41.3901 124.841 41.4888 124.656 41.6233 124.47C41.6771 124.372 41.7488 124.296 41.8385 124.209C41.9192 124.122 41.9999 124.046 42.0986 123.98C42.1972 123.915 42.2869 123.839 42.4035 123.784C44.8427 122.467 46.0175 126.463 44.6275 128.161L44.6095 128.14Z" fill="black"/>
<path d="M306.253 18.0413C305.804 17.9324 305.185 18.4224 304.961 18.3679L300.397 55.9748C300.253 56.4212 300.047 56.7914 299.652 56.9547C297.724 57.7387 293.142 56.1381 290.981 55.6155C290.487 57.6298 290.317 59.6767 290.595 61.7454C291.608 61.6583 293.339 62.4531 294.487 62.4531L288.658 167.38L296.819 166.433L302.648 58.9037L308.127 58.1633L311.822 23.6921C311.911 19.7289 308.979 18.7055 306.271 18.0195L306.253 18.0413Z" fill="black"/>
<path d="M222.996 36.7685C219.866 35.9193 216.279 35.3531 213.284 34.4059C212.97 35.3204 212.988 36.2786 212.898 37.2367L215.642 37.4436C216.243 37.9444 216.055 50.0953 216.019 52.1096C215.929 57.0527 215.364 62.2463 215.23 67.1894C214.782 83.4777 214.728 99.8531 213.687 116.141L209.795 117.415V117.884C213.508 119.724 217.275 122.13 221.059 124.013L223.005 36.7685H222.996Z" fill="black"/>
<path d="M298.343 168.807L274.874 173.086L274.265 170.233L284.748 169.286C284.739 169.09 284.721 168.894 284.703 168.687C284.703 168.665 284.694 168.643 284.694 168.622V168.6C284.676 168.491 284.658 168.382 284.64 168.273C284.551 167.761 284.407 167.271 284.21 166.825C284.156 166.673 284.084 166.531 284.013 166.4C284.004 166.39 283.995 166.357 283.995 166.357C283.932 166.237 283.851 166.128 283.779 166.019C283.681 165.878 283.582 165.736 283.466 165.617C283.385 165.519 283.304 165.431 283.214 165.344C283.098 165.235 282.981 165.148 282.874 165.061C282.829 165.029 282.766 164.985 282.721 164.952C282.685 164.931 282.641 164.909 282.605 164.887C282.596 164.876 282.587 164.876 282.578 164.865H282.569C282.524 164.833 282.461 164.811 282.407 164.789C282.309 164.746 282.21 164.702 282.111 164.669C281.968 164.626 281.824 164.582 281.672 164.56H281.663C280.21 164.354 278.964 165.116 277.583 165.072C276.444 165.039 272.991 164.604 272.023 164.245C271.583 164.081 266.122 158.844 265.934 158.431C265.781 158.104 265.656 157.962 265.754 157.483C266.956 157.385 268.22 157.636 269.422 157.44C272.453 156.928 271.485 149.274 268.857 148.523L216.432 152.312L215.427 157.973L141.067 113.169C141.111 115.14 140.537 118.777 141.856 119.996C148.671 124.003 155.433 128.195 162.105 132.528C172.615 139.366 183.35 146.269 194.147 153.183C195.357 153.966 199.142 155.491 199.339 156.797C199.518 158.028 199.303 159.9 199.339 161.283L203.993 167.184C204.235 169.34 204.056 171.616 203.868 173.815C203.814 174.523 203.742 175.241 203.697 175.938C203.67 176.287 203.653 176.635 203.635 176.984C203.617 177.321 203.608 177.659 203.599 177.996C203.59 178.617 203.581 179.226 203.581 179.847C203.572 181.077 203.563 182.297 203.554 183.505C203.545 184.714 203.545 185.912 203.527 187.109C203.518 188.307 203.5 189.483 203.473 190.637C203.455 191.421 203.437 192.194 203.392 192.967C203.392 193.098 203.392 193.207 203.384 193.337C203.375 193.599 203.366 193.838 203.348 194.099C203.33 194.665 203.294 195.232 203.258 195.787C203.204 196.734 203.123 197.66 203.034 198.596C203.016 198.792 202.998 198.999 202.98 199.206C202.926 199.718 202.863 200.218 202.801 200.719C202.747 201.209 202.675 201.699 202.603 202.178C202.541 202.657 202.46 203.136 202.37 203.604C202.325 203.866 202.271 204.116 202.227 204.367C202.182 204.617 202.128 204.857 202.083 205.096C201.904 205.945 201.707 206.784 201.464 207.611C201.375 207.916 201.294 208.232 201.195 208.537C201.061 208.994 200.917 209.43 200.756 209.887C200.532 210.497 200.308 211.095 200.056 211.694C199.967 211.912 199.877 212.13 199.778 212.337C199.761 212.369 199.752 212.402 199.734 212.445C199.725 212.467 199.707 212.5 199.698 212.522C199.465 213.033 199.222 213.545 198.936 214.046C198.837 214.242 198.738 214.438 198.622 214.645C198.514 214.819 198.406 215.004 198.308 215.178C198.146 215.461 197.976 215.734 197.797 216.006C197.797 216.006 197.791 216.013 197.779 216.028C197.599 216.322 197.411 216.594 197.223 216.866C197.124 216.997 197.043 217.138 196.936 217.258C196.792 217.465 196.64 217.672 196.478 217.879C196.218 218.216 195.949 218.554 195.671 218.869C195.438 219.142 195.214 219.403 194.963 219.675C194.954 219.686 194.945 219.697 194.927 219.708C194.649 220.013 194.362 220.317 194.057 220.601C193.878 220.786 193.68 220.971 193.492 221.145C193.376 221.265 193.25 221.363 193.124 221.472C192.811 221.766 192.47 222.038 192.138 222.321C191.806 222.593 191.465 222.854 191.116 223.127C190.721 223.431 190.309 223.725 189.878 224.008C189.555 224.215 189.223 224.444 188.883 224.651C188.452 224.934 188.013 225.195 187.546 225.457L95.8332 243.803C95.7884 243.814 95.7346 243.814 95.6987 243.814C95.4656 243.846 95.3669 243.846 95.3131 243.803C95.2952 243.781 95.2862 243.737 95.2862 243.672C95.2862 243.607 95.2952 243.498 95.2952 243.356C95.2952 243.291 95.2862 243.215 95.2772 243.128C95.2593 242.986 95.2504 242.845 95.2504 242.703C95.1248 241.026 95.3041 238.925 95.2772 237.216C94.8468 203.67 95.627 170.07 95.2683 136.513C95.4028 134.314 96.2009 128.826 97.2771 127.16C97.8151 126.333 100.165 124.896 101.106 124.264C111.016 117.514 121.427 112.092 131.381 105.385L173.359 101.182L184.623 50.945H192.389C192.066 48.0923 194.443 45.5445 192.389 42.9314L96.443 39.6542C86.8744 39.3275 77.2969 39.7195 67.7642 40.841L45.9456 43.3996C45.9725 44.4122 45.6587 49.4751 44.9771 49.5295L5.9315 22.3968C5.54589 22.0375 4.85537 22.6799 4.77466 22.669C6.12879 24.2369 5.11544 26.458 5.94944 28.3198C6.16466 28.4069 6.37092 28.4832 6.58615 28.592C6.99866 28.7771 7.41118 28.9949 7.81473 29.2562C8.01202 29.376 8.21828 29.4958 8.40661 29.6264C8.6039 29.7462 8.80118 29.8877 8.98951 30.0184C9.1868 30.149 9.38409 30.2906 9.57241 30.4212C9.95802 30.6934 10.3436 30.9656 10.7203 31.2378C11.4287 31.7387 12.1462 32.2504 12.8725 32.7839C14.0473 33.6332 15.2311 34.5151 16.4238 35.4297C17.0156 35.887 17.6255 36.3334 18.2173 36.8015C18.8182 37.2588 19.428 37.727 20.0288 38.1952C21.8403 39.5888 23.6608 41.0261 25.4991 42.4633C26.4856 43.2472 27.4631 44.0093 28.4495 44.7824C28.8351 45.0764 29.2118 45.3595 29.5795 45.6534C30.3417 46.2305 31.0861 46.8075 31.8393 47.3846C32.5837 47.9508 33.3459 48.5278 34.0902 49.0831C34.1172 49.1049 34.1441 49.1267 34.1799 49.1376C34.8705 49.6602 35.561 50.161 36.2515 50.6619C36.3412 50.7272 36.4308 50.7925 36.5205 50.8579C37.1124 51.2934 37.7222 51.718 38.3141 52.1426C38.4037 52.2079 38.4934 52.2624 38.5831 52.3386C39.0315 52.6652 39.4888 52.981 39.9552 53.2859C40.6188 53.7323 41.2734 54.1787 41.937 54.6142C42.2778 54.8428 42.6276 55.0715 42.9773 55.2892C43.4167 55.5723 43.8472 55.8336 44.2776 56.1058C44.9592 56.5413 45.6407 56.9442 46.3223 57.3362C47.1114 57.7935 47.7481 58.0983 48.6539 58.033L50.2232 117.437L72.4902 116.098C74.8308 119.332 75.6468 123.513 76.7588 127.454C76.9741 128.217 76.8126 128.99 77.7991 128.761C77.826 128.717 77.8529 128.685 77.8977 128.63C77.9605 128.554 78.0502 128.456 78.1488 128.347C78.2385 128.249 78.3282 128.162 78.4358 128.064C78.4986 127.999 78.5793 127.923 78.66 127.868C78.7228 127.814 78.7855 127.748 78.8483 127.705C78.9559 127.629 79.0456 127.541 79.1532 127.476C79.216 127.433 79.2788 127.378 79.3415 127.335C79.4043 127.291 79.4671 127.258 79.5299 127.204C79.6464 127.139 79.7541 127.073 79.8527 127.019C79.8706 127.019 79.8886 127.008 79.8975 126.997C80.3011 126.801 80.6688 126.725 80.8661 126.899C82.5699 132.289 83.6461 137.798 84.0227 143.59L83.6012 287.931C84.6594 305.592 90.9996 317.427 104.209 324.689C104.801 325.005 107.204 325.734 107.312 325.876C107.42 325.996 107.473 326.224 107.438 326.42C107.429 326.453 107.42 326.496 107.402 326.54C107.384 326.562 107.375 326.584 107.357 326.605C107.267 326.725 107.097 326.78 106.819 326.725C99.4114 325.048 92.9546 320.181 87.5201 314.073L84.7939 335.294C86.7758 336.219 88.2914 335.566 90.3091 335.152C95.8422 334.042 101.375 332.245 106.846 330.732C107.976 330.1 107.231 327.574 107.716 326.344L116.065 327.749C141.174 323.448 165.262 316.077 190.12 309.685C208.728 304.884 227.794 300.05 246.832 295.03C253.63 293.234 260.553 291.72 267.351 289.325C268.391 288.955 269.87 287.844 270.749 287.746C271.664 287.637 272.776 289.053 273.924 289.358C277.834 290.359 285.438 286.712 289.644 286.222C291.922 284.382 287.053 281.584 286.057 279.82C285.331 278.524 283.501 273.309 283.663 271.915L288.667 262.78C291.375 253.907 292.532 244.521 293.366 235.092L295.68 192.227L298.424 191.236L299.222 170.44C299.455 169.384 298.549 169.09 298.415 168.818L298.343 168.807ZM271.736 272.547C266.077 278.59 261.297 280.288 254.141 282.313C210.325 294.693 165.71 303.469 121.804 315.456C121.14 315.521 120.468 315.565 119.813 315.565C119.436 315.565 119.069 315.554 118.692 315.532C118.638 315.532 118.575 315.532 118.513 315.521C118.208 315.5 117.885 315.478 117.571 315.445C117.508 315.434 117.428 315.423 117.356 315.423C116.997 315.38 116.656 315.315 116.298 315.26H116.28C116.28 315.26 116.226 315.249 116.19 315.238C115.831 315.184 115.482 315.097 115.123 315.021C114.737 314.923 114.352 314.825 113.975 314.705C113.616 314.596 113.276 314.498 112.917 314.356C112.872 314.346 112.809 314.335 112.764 314.313C112.433 314.193 112.092 314.052 111.76 313.921C111.76 313.921 111.733 313.91 111.715 313.899C111.347 313.747 110.989 313.583 110.621 313.398C110.253 313.224 109.895 313.039 109.536 312.843C109.518 312.832 109.509 312.821 109.491 312.821C109.159 312.625 108.819 312.429 108.487 312.211C108.155 311.994 107.814 311.765 107.491 311.547C107.204 311.34 106.917 311.134 106.639 310.905C106.505 310.796 106.37 310.698 106.236 310.578C105.985 310.382 105.743 310.186 105.509 309.958C105.222 309.718 104.944 309.446 104.666 309.174C104.415 308.934 104.164 308.684 103.931 308.433L103.554 308.02C103.312 307.758 103.088 307.497 102.855 307.214C102.64 306.953 102.442 306.702 102.254 306.43C102.093 306.234 101.949 306.038 101.815 305.82C101.617 305.548 101.429 305.287 101.25 305.004C100.918 304.492 100.595 303.958 100.299 303.403C100.003 302.848 99.7163 302.282 99.4562 301.716C99.1962 301.139 98.9451 300.54 98.7298 299.919C96.9542 297.469 97.582 297.219 96.9453 294.682C96.2368 291.829 95.3848 289.086 95.2145 286.015C94.6495 275.345 95.4745 264.326 95.4566 253.645L144.618 243.628C156.778 242.191 169.575 237.738 182.157 235.876C186.838 235.19 191.313 234.08 196.039 234.82C200.496 235.517 206.773 232.751 211.365 232.479C211.454 229.278 208.352 228.658 207.078 226.48C206.675 225.794 205.141 219.751 205.177 219.011C205.195 218.532 207.545 214.667 208.02 213.556C214.432 198.237 211.688 180.141 212.916 163.624C219.83 163.461 228.691 161.12 235.327 163.526C236.537 163.972 242.097 166.673 242.967 167.359C243.711 167.968 243.093 173.565 243.254 175.143C243.837 180.696 246.662 187.196 250.231 190.735L252.554 191.443C249.236 187.294 248.025 179.096 247.89 173.532C248.142 173.565 248.366 173.63 248.581 173.717C248.796 173.782 248.994 173.891 249.173 174.011C249.263 174.066 249.343 174.131 249.433 174.196C249.594 174.327 249.747 174.468 249.89 174.643C249.971 174.708 250.034 174.795 250.088 174.882C250.15 174.958 250.213 175.056 250.267 175.154C250.294 175.198 250.321 175.252 250.357 175.296C250.446 175.437 250.518 175.59 250.599 175.742C250.662 175.884 250.724 176.025 250.769 176.178C250.832 176.33 250.895 176.494 250.94 176.657C250.993 176.82 251.047 176.984 251.083 177.147C251.11 177.256 251.137 177.354 251.164 177.463C251.226 177.702 251.28 177.953 251.325 178.203C251.424 178.715 251.496 179.237 251.567 179.771C251.711 180.838 251.836 181.927 252.025 182.917C252.069 183.157 252.123 183.407 252.177 183.636C253.316 188.296 255.728 192.64 259.145 195.221C261.593 196.201 264.947 197.594 267.503 197.616C269.252 197.616 279.269 195.112 279.735 195.678C279.69 198.346 279.798 201.035 279.735 203.702C281.206 204.889 284.578 207.121 284.802 209.092C282.865 230.944 286.882 256.389 271.763 272.536L271.736 272.547Z" fill="black"/>
<path d="M215.086 1.70013e-05C213.723 0.261327 212.531 0.925492 212.217 2.68933L209.006 29.4627C209.383 32.838 210.863 33.6437 213.293 34.395C216.288 35.3313 219.875 35.9084 223.005 36.7576C245.631 42.8984 268.274 50.1062 290.981 55.6264C293.142 56.149 297.724 57.7496 299.652 56.9656C300.047 56.8023 300.253 56.4321 300.397 55.9857L304.961 18.3788C275.126 11.3561 245.003 6.45655 215.095 0.0108989L215.086 1.70013e-05Z" fill="black"/>
<path d="M181.628 104.676C169.315 105.721 156.213 105.721 143.999 107.561C142.232 107.823 140.771 108.618 140.618 111.056C140.555 112.004 141.031 112.755 141.04 113.169L215.391 157.983L216.396 152.311L268.83 148.533C253.289 139.844 237.013 131.961 221.05 124.013C217.266 122.129 213.499 119.712 209.786 117.883C200.505 113.299 190.909 109.358 181.628 104.676Z" fill="black"/>
<path d="M50.1515 117.404L48.5821 58C47.6764 58.0544 47.0397 57.7604 46.2505 57.2923C34.6642 50.5526 22.0645 39.2292 10.6575 31.1939C9.13299 30.116 7.58157 28.8966 5.8777 28.2651L8.29002 77.9249C10.7472 81.2892 13.6796 83.9677 16.5852 86.7441C21.1587 91.1101 26.2973 95.9661 31.1309 100.419C32.0366 101.258 33.5612 102.107 34.5925 103.054C39.7668 107.812 44.735 113.18 50.1605 117.394L50.1515 117.404Z" fill="black"/>
<path d="M104.146 324.667C90.9278 317.404 84.5965 305.569 83.5383 287.909L83.9598 143.557C83.5921 137.775 82.507 132.266 80.8032 126.877C80.1933 126.354 78.2115 128.009 77.7272 128.727L77.3416 241.439C70.6965 242.321 63.8362 244.303 57.3166 241.461L52.8686 239.087C59.146 249.181 67.6295 249.638 77.3326 247.112C77.6375 250.596 77.0188 254.047 76.947 257.488C76.7408 268.038 76.5166 281.202 77.8348 291.545C78.7316 298.525 81.0363 304.731 84.2826 310.523C83.7894 316.315 81.8524 320.714 78.893 325.157C80.1126 328.205 82.0228 334.074 84.7131 335.315L87.4393 314.094C92.8827 320.192 99.3305 325.058 106.747 326.735C107.509 326.909 107.455 326.136 107.249 325.886C107.132 325.744 104.738 325.015 104.146 324.688V324.667Z" fill="black"/>
<path d="M95.7525 243.77L187.466 225.424C204.953 215.472 203.24 197.812 203.554 177.996C203.608 174.599 204.352 170.755 203.948 167.184L199.294 161.283C199.509 170.94 199.366 184.06 198.514 193.576C195.842 223.355 176.139 222.114 156.706 225.826C142.788 228.483 128.817 231.042 114.692 233.764C108.209 235.016 101.716 236.311 95.1965 237.204C95.2234 239.044 95.0082 241.374 95.1965 243.106C95.2683 243.802 94.9723 243.889 95.7525 243.781V243.77Z" fill="black"/>
<path d="M38.0899 223.768C36.8523 198.574 38.341 171.408 37.7312 145.92C37.4442 134.03 36.2963 122.097 35.6955 110.196L31.5076 104.676C31.8304 132.908 32.3147 161.141 32.6913 189.308C32.8527 201.448 31.8214 215.646 33.1128 227.47C33.6688 232.587 35.3458 237.454 37.7312 241.69C36.9869 245.773 35.9018 249.192 33.8302 252.512C33.319 253.34 31.9649 254.439 31.6959 255.125C30.8708 257.281 34.0992 262.05 35.7762 263.128L39.6593 244.27C40.1614 243.65 44.0625 249.039 44.6992 249.692C47.8917 252.959 53.3621 256.813 57.5231 256.759C45.309 251.38 38.8432 239.338 38.0809 223.768H38.0899Z" fill="black"/>
<path d="M296.801 166.455L288.64 167.402L294.469 62.4752C293.321 62.4752 291.6 61.6695 290.577 61.7675C288.084 61.9852 288.12 64.8052 287.86 67.2005C284.757 95.9773 284.264 127.596 282.417 156.797C282.255 159.356 281.995 162.056 281.645 164.582C283.591 164.865 284.658 167.119 284.748 169.297L274.265 170.244L274.875 173.096L298.343 168.828C297.877 167.892 297.671 167.097 296.792 166.466L296.801 166.455Z" fill="black"/>
<path d="M57.5229 42.419L57.5139 42.3863L56.9041 42.4626L57.5229 42.419Z" fill="black"/>
<path d="M216.019 52.1096C216.055 50.0953 216.234 37.9335 215.642 37.4436L212.898 37.2367C210.378 63.3024 211.562 91.1428 209.795 117.404L213.687 116.131C214.737 99.8531 214.791 83.4777 215.23 67.1785C215.364 62.2463 215.929 57.0418 216.019 52.0987L216.019 52.1096Z" fill="black"/>
<path d="M279.708 203.702C279.43 214.928 278.82 228.657 277.762 239.774C276.04 257.913 267.646 270.989 252.984 275.247C209.114 287.986 163.396 295.651 119.436 308.335C111.482 310.077 104.03 307.235 98.7029 299.908C102.541 310.447 112.459 316.436 121.804 315.467C165.71 303.468 210.325 294.704 254.141 282.313C261.297 280.288 266.068 278.589 271.727 272.546C286.846 256.4 282.829 230.955 284.766 209.103C284.542 207.132 281.161 204.9 279.699 203.702H279.708Z" fill="black"/>
<path d="M247.855 173.532C247.989 179.095 249.2 187.305 252.518 191.453C253.989 193.282 257.1 194.415 259.118 195.231C255.701 192.651 253.289 188.307 252.15 183.647C251.227 179.89 251.8 174.25 247.855 173.543V173.532Z" fill="black"/>
<path d="M42.3946 123.763C39.5159 125.331 42.2511 131.014 44.6186 128.14C46.0086 126.452 44.8248 122.445 42.3946 123.763Z" fill="black"/>
<path d="M45.8739 43.3557L67.6924 40.7971C77.2252 39.6756 86.8027 39.2837 96.3713 39.6103L192.317 42.8984C191.501 41.8532 189.779 41.4721 188.632 41.0039C164.553 30.7584 139.668 22.9518 115.562 12.7715C65.0559 9.23297 37.1483 9.09144 21.7955 9.87537C21.7955 9.87537 6.27228 10.3762 1.5373 13.1309C1.5373 13.1309 1.51936 13.1417 1.50143 13.1526C1.50143 13.1526 1.48349 13.1635 1.46556 13.1744C0.828847 13.5664 0.407364 14.1652 0.192138 14.862V14.8947C-0.301089 16.4626 0.192138 18.5421 1.25033 19.9685C1.82427 20.7524 3.87789 22.4291 4.69395 22.636C4.78363 22.6469 5.47414 22.0045 5.85079 22.3638L44.8964 49.4965C45.5779 49.453 45.8918 44.3792 45.8649 43.3666L45.8739 43.3557Z" fill="black"/>
<path d="M410.347 0C414.796 0.000121478 418.6 1.11603 421.755 3.34832C424.943 5.5807 427.373 8.57614 429.045 12.3339C430.75 16.0916 431.602 20.2588 431.602 24.8349H420.145C420.145 22.194 419.799 19.8501 419.105 17.8041C418.411 15.7577 417.337 14.1557 415.885 13.0023C414.434 11.849 412.554 11.2746 410.251 11.2746C408.137 11.2747 406.384 11.7576 404.996 12.7249C403.639 13.6922 402.631 15.0141 401.968 16.688C401.337 18.3622 401.022 20.2777 401.022 22.4356C401.022 23.9234 401.288 25.2816 401.824 26.5091C402.361 27.6997 403.135 28.7992 404.145 29.8038C405.155 30.8081 406.387 31.7549 407.838 32.6477C409.29 33.5405 410.962 34.3988 412.855 35.2172C416.074 36.5938 418.884 38.1178 421.282 39.792C423.68 41.466 425.651 43.3461 427.197 45.4293C428.775 47.4757 429.943 49.802 430.701 52.4065C431.49 55.0107 431.885 57.9677 431.886 61.2786C431.886 64.6269 431.396 67.6782 430.417 70.4313C429.471 73.1474 428.081 75.4738 426.251 77.4085C424.421 79.343 422.212 80.8508 419.624 81.9297C417.036 82.9713 414.133 83.4935 410.914 83.4935C407.947 83.4935 405.091 82.9715 402.346 81.9297C399.632 80.8879 397.201 79.3054 395.055 77.1847C392.91 75.027 391.204 72.3309 389.942 69.0945C388.711 65.8575 388.097 62.0596 388.097 57.7064H399.599C399.599 60.3109 399.867 62.5459 400.404 64.4062C400.94 66.2289 401.716 67.7338 402.725 68.9243C403.767 70.0777 404.982 70.9357 406.37 71.4938C407.79 72.0145 409.368 72.2757 411.104 72.2757C413.25 72.2757 415.002 71.8287 416.359 70.9358C417.747 70.0056 418.771 68.7201 419.434 67.083C420.097 65.4462 420.429 63.5497 420.429 61.3921C420.429 59.7183 420.271 58.2297 419.956 56.9277C419.672 55.5885 419.12 54.3776 418.3 53.2988C417.48 52.2199 416.311 51.1592 414.797 50.1176C413.314 49.0758 411.387 48.0153 409.02 46.9363C406.306 45.7085 403.766 44.3675 401.399 42.9165C399.064 41.4283 396.996 39.7541 395.197 37.894C393.43 35.9966 392.04 33.7838 391.031 31.2541C390.021 28.7241 389.517 25.7841 389.517 22.4356C389.517 19.1242 390.007 16.1093 390.985 13.3933C391.995 10.6405 393.415 8.27735 395.245 6.30568C397.107 4.29684 399.316 2.75306 401.872 1.67416C404.428 0.557955 407.254 0 410.347 0Z" fill="black"/>
<path d="M462.752 0C467.517 0 471.528 1.07997 474.778 3.23797C478.028 5.39594 480.536 8.55827 482.304 12.7249C484.071 16.8917 485.097 21.9697 485.382 27.9594H473.925C473.767 23.9045 473.294 20.6668 472.505 18.2486C471.748 15.7937 470.579 14.0276 469.002 12.9487C467.455 11.8697 465.371 11.3282 462.752 11.3282C460.575 11.3283 458.698 11.8144 457.12 12.7816C455.574 13.7489 454.295 15.1982 453.285 17.1325C452.307 19.0301 451.565 21.4315 451.06 24.3336C450.587 27.1985 450.351 30.566 450.351 34.4353V48.9447C450.351 52.6649 450.556 55.9579 450.966 58.8225C451.377 61.687 452.038 64.125 452.953 66.134C453.869 68.1058 455.084 69.6134 456.598 70.6552C458.113 71.6596 460.007 72.1621 462.279 72.1622C464.992 72.1622 467.154 71.6594 468.764 70.6552C470.405 69.6506 471.62 67.9572 472.409 65.5759C473.198 63.1947 473.688 59.9577 473.877 55.8652H485.334C485.113 61.7439 484.102 66.7491 482.304 70.879C480.505 74.9717 477.917 78.0976 474.54 80.2556C471.195 82.4135 467.107 83.4935 462.279 83.4935C458.618 83.4934 455.335 82.7104 452.432 81.1478C449.561 79.5852 447.116 77.3333 445.096 74.3944C443.077 71.4179 441.53 67.7896 440.457 63.5108C439.415 59.2323 438.895 54.3765 438.895 48.9447V34.5457C438.895 29.1138 439.432 24.2581 440.505 19.9796C441.609 15.7011 443.187 12.0723 445.238 9.09595C447.289 6.11992 449.783 3.86786 452.718 2.34256C455.684 0.780475 459.029 0.000122088 462.752 0Z" fill="black"/>
<path fill-rule="evenodd" clip-rule="evenodd" d="M574.143 0C577.773 0 581.055 0.74394 583.99 2.23221C586.957 3.72048 589.497 5.93593 591.612 8.87525C593.726 11.8144 595.351 15.4793 596.487 19.8692C597.623 24.2221 598.19 29.3001 598.19 35.1037V48.9447C598.19 54.6745 597.623 59.6993 596.487 64.0153C595.382 68.3307 593.774 71.9403 591.66 74.8421C589.577 77.7071 587.05 79.8639 584.084 81.3149C581.149 82.7658 577.866 83.4935 574.237 83.4935C570.64 83.4934 567.359 82.7655 564.393 81.3149C561.458 79.864 558.917 77.7065 556.771 74.8421C554.657 71.9403 553.016 68.3307 551.848 64.0153C550.712 59.6993 550.142 54.6745 550.142 48.9447V35.1037C550.142 29.3 550.712 24.2221 551.848 19.8692C552.984 15.4791 554.609 11.8145 556.723 8.87525C558.869 5.93591 561.41 3.72048 564.345 2.23221C567.311 0.744121 570.577 1.24107e-05 574.143 0ZM574.143 11.552C572.155 11.552 570.373 12.0187 568.795 12.9487C567.249 13.8415 565.923 15.2355 564.818 17.1325C563.745 18.9929 562.923 21.4138 562.355 24.3904C561.819 27.3294 561.55 30.8641 561.55 34.9934V48.9447C561.55 53 561.835 56.4981 562.403 59.4374C562.971 62.3395 563.793 64.7214 564.866 66.5817C565.971 68.4042 567.311 69.7623 568.888 70.6552C570.466 71.5479 572.249 71.9949 574.237 71.9951C576.256 71.9951 578.056 71.5478 579.634 70.6552C581.212 69.7622 582.523 68.4048 583.565 66.5817C584.638 64.7214 585.441 62.3393 585.977 59.4374C586.514 56.4981 586.782 53.0002 586.782 48.9447V34.9934C586.782 30.8641 586.499 27.3294 585.932 24.3904C585.395 21.4138 584.59 18.9929 583.517 17.1325C582.444 15.2355 581.118 13.8416 579.54 12.9487C577.994 12.0185 576.195 11.552 574.143 11.552Z" fill="black"/>
<path fill-rule="evenodd" clip-rule="evenodd" d="M630.621 0C634.251 0 637.533 0.744046 640.468 2.23221C643.435 3.72048 645.975 5.93591 648.09 8.87525C650.204 11.8145 651.829 15.4792 652.965 19.8692C654.101 24.2221 654.671 29.3 654.671 35.1037V48.9447C654.671 54.6745 654.101 59.6993 652.965 64.0153C651.86 68.3307 650.252 71.9403 648.138 74.8421C646.055 77.7066 643.53 79.8639 640.564 81.3149C637.63 82.7658 634.346 83.4934 630.718 83.4935C627.12 83.4935 623.837 82.7658 620.871 81.3149C617.936 79.864 615.395 77.7066 613.249 74.8421C611.135 71.9403 609.494 68.3308 608.326 64.0153C607.19 59.6993 606.622 54.6745 606.622 48.9447V35.1037C606.622 29.3001 607.19 24.2221 608.326 19.8692C609.462 15.4792 611.087 11.8144 613.201 8.87525C615.347 5.93591 617.888 3.72048 620.823 2.23221C623.789 0.744056 627.055 6.94854e-05 630.621 0ZM630.621 11.552C628.633 11.5521 626.851 12.0186 625.273 12.9487C623.727 13.8415 622.401 15.2354 621.296 17.1325C620.223 18.9929 619.401 21.4138 618.833 24.3904C618.297 27.3294 618.031 30.8642 618.031 34.9934V48.9447C618.031 53 618.313 56.4981 618.881 59.4374C619.449 62.3395 620.271 64.7214 621.344 66.5817C622.449 68.4042 623.789 69.7623 625.366 70.6552C626.944 71.5481 628.729 71.9951 630.718 71.9951C632.737 71.995 634.537 71.548 636.114 70.6552C637.692 69.7622 639.002 68.4044 640.043 66.5817C641.116 64.7214 641.921 62.3394 642.458 59.4374C642.994 56.4982 643.263 52.9999 643.263 48.9447V34.9934C643.263 30.8641 642.977 27.3294 642.41 24.3904C641.873 21.4138 641.068 18.9929 639.995 17.1325C638.922 15.2355 637.596 13.8415 636.018 12.9487C634.472 12.0186 632.673 11.552 630.621 11.552Z" fill="black"/>
<path d="M505.027 34.9366H528.887V1.11611H540.341V82.3774H528.887V46.3215H505.027V82.3774H493.525V1.11611H505.027V34.9366Z" fill="black"/>
<path d="M675.878 71.0461H701.489V82.3774H664.376V1.11611H675.878V71.0461Z" fill="black"/>
<path fill-rule="evenodd" clip-rule="evenodd" d="M489.607 95.0897C494.047 95.0898 498.067 96.0141 501.665 97.8642C505.301 99.6692 508.422 102.355 511.025 105.92C513.667 109.485 515.678 113.934 517.056 119.259C518.472 124.584 519.179 130.79 519.179 137.874V154.461C519.179 161.411 518.49 167.506 517.112 172.741C515.734 177.975 513.743 182.353 511.14 185.873C508.537 189.348 505.417 191.966 501.78 193.726C498.144 195.486 494.124 196.368 489.722 196.368C485.281 196.368 481.242 195.486 477.605 193.726C473.968 191.966 470.83 189.348 468.189 185.873C465.586 182.353 463.557 177.976 462.102 172.741C460.686 167.506 459.976 161.411 459.976 154.461V137.874C459.976 130.789 460.686 124.584 462.102 119.259C463.519 113.934 465.527 109.485 468.13 105.92C470.771 102.355 473.912 99.6693 477.549 97.8642C481.185 96.0142 485.205 95.0897 489.607 95.0897ZM489.607 110.39C487.272 110.39 485.204 110.907 483.405 111.945C481.645 112.983 480.151 114.609 478.926 116.819C477.739 118.985 476.84 121.81 476.228 125.284C475.615 128.759 475.308 132.911 475.308 137.738V154.461C475.308 159.199 475.615 163.262 476.228 166.647C476.84 170.031 477.76 172.786 478.985 174.907C480.248 177.028 481.76 178.608 483.52 179.646C485.319 180.638 487.387 181.134 489.722 181.134C492.019 181.134 494.048 180.638 495.809 179.646C497.607 178.608 499.102 177.028 500.288 174.907C501.513 172.786 502.412 170.031 502.986 166.647C503.599 163.262 503.906 159.199 503.906 154.461V137.738C503.906 132.911 503.599 128.759 502.986 125.284C502.374 121.81 501.454 118.985 500.229 116.819C499.004 114.609 497.492 112.982 495.694 111.945C493.933 110.907 491.903 110.39 489.607 110.39Z" fill="black"/>
<path d="M544.566 164.55C544.566 169.017 545.025 172.47 545.943 174.907C546.9 177.344 548.24 179.014 549.963 179.917C551.685 180.819 553.809 181.269 556.335 181.269C558.862 181.269 560.988 180.819 562.711 179.917C564.433 179.014 565.753 177.343 566.671 174.907C567.59 172.47 568.051 169.017 568.051 164.55V96.4423H583.439V164.55C583.439 172.086 582.253 178.203 579.88 182.896C577.506 187.589 574.27 191.018 570.175 193.184C566.079 195.305 561.465 196.368 556.335 196.368C551.091 196.368 546.421 195.305 542.325 193.184C538.229 191.018 535.014 187.589 532.679 182.896C530.382 178.203 529.232 172.086 529.232 164.55V96.4423H544.566V164.55Z" fill="black"/>
<path d="M619.159 95.0897C624.557 95.0898 629.189 96.4219 633.055 99.0843C636.921 101.747 639.908 105.357 642.014 109.914C644.119 114.472 645.172 119.619 645.172 125.351H629.84C629.84 122.373 629.458 119.732 628.693 117.431C627.966 115.084 626.798 113.253 625.19 111.945C623.582 110.636 621.514 109.984 618.988 109.984C616.615 109.984 614.663 110.549 613.132 111.677C611.601 112.76 610.471 114.249 609.743 116.144C609.016 117.994 608.652 120.116 608.652 122.507C608.652 124.222 608.978 125.78 609.628 127.179C610.317 128.533 611.255 129.775 612.442 130.903C613.628 132.031 615.064 133.113 616.747 134.15C618.47 135.143 620.386 136.116 622.491 137.063C626.357 138.778 629.745 140.672 632.654 142.748C635.563 144.779 637.976 147.083 639.89 149.656C641.842 152.183 643.298 155.05 644.255 158.254C645.211 161.457 645.688 165.113 645.688 169.219C645.688 173.281 645.096 176.984 643.91 180.324C642.723 183.663 640.998 186.53 638.74 188.921C636.482 191.312 633.745 193.162 630.53 194.47C627.353 195.734 623.81 196.368 619.905 196.368C616.154 196.368 612.575 195.734 609.168 194.47C605.8 193.162 602.813 191.199 600.209 188.581C597.607 185.963 595.56 182.668 594.067 178.697C592.574 174.681 591.826 169.965 591.826 164.55H607.157C607.157 167.573 607.447 170.19 608.021 172.4C608.595 174.567 609.456 176.328 610.604 177.682C611.753 178.99 613.131 179.96 614.739 180.592C616.347 181.178 618.166 181.474 620.194 181.474C622.605 181.474 624.558 180.955 626.051 179.917C627.544 178.879 628.635 177.456 629.324 175.651C630.013 173.801 630.357 171.701 630.357 169.355C630.357 167.415 630.185 165.698 629.84 164.209C629.534 162.676 628.922 161.276 628.003 160.013C627.084 158.749 625.762 157.508 624.04 156.289C622.318 155.026 620.098 153.739 617.381 152.43C614.165 150.896 611.119 149.271 608.248 147.556C605.378 145.796 602.813 143.763 600.554 141.462C598.296 139.16 596.515 136.453 595.214 133.34C593.951 130.226 593.321 126.592 593.321 122.441C593.321 118.379 593.933 114.676 595.158 111.336C596.421 107.952 598.202 105.064 600.498 102.672C602.795 100.236 605.514 98.3626 608.652 97.0539C611.829 95.7454 615.332 95.0897 619.159 95.0897Z" fill="black"/>
<path d="M406.86 136.928H433.848V96.4423H449.121V195.013H433.848V152.024H406.86V195.013H391.469V96.4423H406.86V136.928Z" fill="black"/>
<path d="M702.308 111.607H670.669V136.928H697.657V151.617H670.669V179.917H702.538V195.013H655.278V96.4423H702.308V111.607Z" fill="black"/>
<path d="M414.979 313.364H452.237V335.765H391.469V208.863H414.979V313.364Z" fill="black"/>
<path fill-rule="evenodd" clip-rule="evenodd" d="M544.28 335.765H519.216L513.935 310.839H485.89L480.627 335.765H455.566L489.053 208.863H510.643L544.28 335.765ZM490.621 288.438H509.191L499.887 244.534L490.621 288.438Z" fill="black"/>
<path d="M603.943 288.264V208.863H626.786V335.765H603.793L573.336 256.799V335.765H550.417V208.863H573.411L603.943 288.264Z" fill="black"/>
<path d="M702.492 231.349H663.309V259.763H696.283V281.378H663.309V313.364H702.492V335.765H639.799V208.863H702.492V231.349Z" fill="black"/>
</svg>
