<svg preserveAspectRatio="none" width="100%" height="100%" overflow="visible" style="display: block;" viewBox="0 0 157.438 12.8953" fill="none" xmlns="http://www.w3.org/2000/svg">
<g id="Vector">
<path d="M110.931 0.000955064H128.283C128.644 0.194833 129.368 0.236856 129.731 0.616972C130.455 1.3772 130.563 2.24058 130.577 3.24149C130.602 5.18982 129.982 5.90994 128.128 6.27764C128.23 6.36264 128.341 6.33494 128.475 6.35691C129.741 6.56129 130.445 7.49153 130.556 8.73311C130.733 10.6929 130.204 12.6622 127.91 12.8074C127.803 12.8151 127.607 12.8256 127.524 12.8934H110.931V0.000955064ZM114.137 5.08858H127.406V2.72098H114.137V5.08858ZM114.137 10.0989H127.406V7.80765H114.137V10.0989Z" fill="var(--fill-0, #1E1E20)"/>
<path d="M24.7788 0.000955064H41.2536V2.72098H25.1301V5.08858H37.2806C37.7402 5.08858 38.5521 5.08476 38.9842 5.1392C39.4475 5.28151 40.3401 5.56325 40.6677 5.92235C41.4663 6.7991 41.4188 8.09513 41.434 9.14761C41.4587 10.9212 41.0115 12.519 39.0098 12.7186C38.8807 12.731 38.7306 12.8523 38.5891 12.8361C38.3831 12.838 38.0071 12.7616 37.8494 12.8953H21.9756V10.0998H38.1998V7.80861H29.6861C28.2684 7.80765 25.2649 7.97288 24.0362 7.61855C22.8948 7.29001 22.4362 6.84017 22.1238 5.69505C22.0725 5.50595 22.0744 5.26431 21.9813 5.09813L21.9756 5.08763V2.72002C22.0041 2.68278 22.1589 1.8958 22.2007 1.75541C22.5207 0.683826 23.4351 0.298935 24.4331 0.088821C24.585 0.0573039 24.6078 0.0983716 24.7702 0.00573039L24.7806 0L24.7788 0.000955064Z" fill="var(--fill-0, #1E1E20)"/>
<path d="M67.7928 0.000955064H86.9967V2.72098H70.9473V5.08858H80.8873V7.80861H70.9473V10.0998H86.9967V12.8953H67.7928V0.000955064Z" fill="var(--fill-0, #1E1E20)"/>
<path d="M44.4821 0.000955064H47.6375V5.08763H61.5068V0.000955064H64.7372V12.8943H61.5068V7.80765H47.6375V12.8943H44.4821V0.000955064Z" fill="var(--fill-0, #1E1E20)"/>
<path d="M132 0.000955064H136.954C137.509 0.398262 144.66 5.74662 144.762 5.74853C146.968 4.19464 149.123 2.55193 151.307 0.96748C151.731 0.65995 152.202 0.328542 152.606 0.000955064H157.438V0.0601691C156.799 0.625567 155.046 1.81367 154.303 2.35137L148.85 6.36359C148.086 6.92422 147.259 7.53546 146.487 8.09704C146.354 8.1935 146.361 8.31193 146.351 8.46092C146.335 9.93172 146.344 11.4254 146.347 12.8943H143.217C143.217 12.4072 143.247 8.28518 143.185 8.23743C140.427 6.11528 137.54 4.13543 134.76 2.04002C134.019 1.48226 132.589 0.577814 132 0.000955064Z" fill="var(--fill-0, #1E1E20)"/>
<path d="M89.9755 0.000955064H93.2059V10.0989H107.852V12.8943H89.9755V0.000955064Z" fill="var(--fill-0, #1E1E20)"/>
<path d="M2.46885 0.000955064H1.13947C0.510159 0.000955064 0 0.514071 0 1.14703V2.48412C0 3.11708 0.510159 3.6302 1.13947 3.6302H2.46885C3.09817 3.6302 3.60833 3.11708 3.60833 2.48412V1.14703C3.60833 0.514071 3.09817 0.000955064 2.46885 0.000955064Z" fill="#FE3E00"/>
<path d="M13.9728 0.000955064H11.6786C10.7452 0.000955064 9.98936 0.762141 9.98936 1.70097V3.9893C9.98936 4.97875 9.19173 5.78005 8.20894 5.78005H4.58162C3.64821 5.78005 2.89141 6.54124 2.89141 7.48006V11.1953C2.89141 12.1341 3.64821 12.8943 4.58162 12.8943H8.27446C9.20788 12.8943 9.96468 12.1341 9.96468 11.1953V7.60518C9.96468 6.61573 10.7623 5.81348 11.7451 5.81348H13.9728C14.9062 5.81348 15.663 5.05325 15.663 4.11442V1.70097C15.663 0.762141 14.9062 0.000955064 13.9728 0.000955064Z" fill="var(--fill-0, #1E1E20)"/>
</g>
</svg>
