<svg preserveAspectRatio="none" width="100%" height="100%" overflow="visible" style="display: block;" viewBox="0 0 136.646 36.6323" fill="none" xmlns="http://www.w3.org/2000/svg">
<g id="Vector">
<path d="M20.5169 36.2798C20.5169 36.4741 20.3587 36.6323 20.1644 36.6323H16.4734C16.2792 36.6323 16.121 36.4741 16.121 36.2798V24.4715C16.121 24.1579 15.7436 24.0025 15.5188 24.2217L7.17105 32.5694C7.03229 32.7082 6.81028 32.7082 6.67152 32.5694L4.06008 29.958C3.92132 29.8192 3.92132 29.5972 4.06008 29.4585L12.405 21.1135C12.627 20.8915 12.4689 20.5113 12.1553 20.5113H0.352449C0.158186 20.5113 0 20.3531 0 20.1589V16.4651C0 16.2708 0.158186 16.1127 0.352449 16.1127H17.8138C19.3069 16.1127 20.5169 17.3226 20.5169 18.8157V36.2798Z" fill="var(--fill-0, #1E1E20)"/>
<path d="M36.2826 20.5169H24.4743C24.1607 20.5169 24.0053 20.8943 24.2245 21.1191L32.5722 29.464C32.711 29.6028 32.711 29.8248 32.5722 29.9636L29.9608 32.575C29.822 32.7138 29.6 32.7138 29.4612 32.575L21.6019 24.7157C21.2911 24.4049 21.1191 23.9858 21.1191 23.5473V18.8185C21.1191 16.9979 19.6288 15.5077 17.8083 15.5077H13.0794C12.6409 15.5077 12.2219 15.3328 11.9138 15.0248L4.06008 7.16827C3.92132 7.02952 3.92132 6.8075 4.06008 6.67152L6.67152 4.06008C6.81028 3.92132 7.03229 3.92132 7.17105 4.06008L15.5188 12.4078C15.7408 12.6298 16.121 12.4716 16.121 12.158V0.352447C16.121 0.158185 16.2792 0 16.4734 0H20.1644C20.3587 0 20.5169 0.158185 20.5169 0.352447V12.1608C20.5169 12.4744 20.8943 12.6298 21.1191 12.4106L29.4668 4.06285C29.6056 3.9241 29.8276 3.9241 29.9635 4.06285L32.575 6.67429C32.7137 6.81305 32.7137 7.03507 32.575 7.17382L24.2273 15.5188C24.0052 15.7408 24.1634 16.121 24.477 16.121H36.2854C36.4797 16.121 36.6378 16.2792 36.6378 16.4734V20.1672C36.6378 20.3614 36.4797 20.5196 36.2854 20.5196L36.2826 20.5169Z" fill="var(--fill-0, #1E1E20)"/>
<path d="M20.5169 36.2798C20.5169 36.4741 20.3587 36.6323 20.1644 36.6323H16.4734C16.2792 36.6323 16.121 36.4741 16.121 36.2798V24.4715C16.121 24.1579 15.7436 24.0025 15.5188 24.2217L7.17105 32.5694C7.03229 32.7082 6.81028 32.7082 6.67152 32.5694L4.06008 29.958C3.92132 29.8192 3.92132 29.5972 4.06008 29.4585L12.405 21.1135C12.627 20.8915 12.4689 20.5113 12.1553 20.5113H0.352449C0.158186 20.5113 0 20.3531 0 20.1589V16.4651C0 16.2708 0.158186 16.1127 0.352449 16.1127H17.8138C19.3069 16.1127 20.5169 17.3226 20.5169 18.8157V36.2798Z" fill="var(--fill-0, #1E1E20)"/>
<path d="M51.0465 3.85733C52.9218 3.85733 54.4846 4.51121 55.7276 5.81898C56.9705 7.12675 57.5957 8.74159 57.5957 10.6599C57.5957 12.5782 56.9742 14.175 55.7276 15.49C54.481 16.8049 52.9218 17.4624 51.0465 17.4624H45.6712V3.85733H51.0465ZM51.0465 15.3238C52.3367 15.3238 53.3907 14.883 54.2048 14.0016C55.0189 13.1201 55.4259 12.0074 55.4259 10.6599C55.4259 9.31238 55.0189 8.18163 54.2048 7.30738C53.3907 6.43313 52.3367 5.996 51.0465 5.996H47.9173V15.3238H51.0465Z" fill="var(--fill-0, #1E1E20)"/>
<path d="M66.4939 7.7445H68.6054V17.4624H66.4939V16.0644C65.6979 17.1662 64.5567 17.7153 63.0739 17.7153C61.7328 17.7153 60.5843 17.2204 59.6321 16.2269C58.6799 15.2371 58.2038 14.0268 58.2038 12.6035C58.2038 11.1801 58.6799 9.95542 59.6321 8.96918C60.5843 7.98294 61.7292 7.49162 63.0739 7.49162C64.5604 7.49162 65.7016 8.03713 66.4939 9.12453V7.7445ZM61.1949 14.8288C61.78 15.4177 62.5178 15.7139 63.4046 15.7139C64.2914 15.7139 65.0292 15.4177 65.6143 14.8288C66.1995 14.24 66.4939 13.4958 66.4939 12.6035C66.4939 11.7112 66.1995 10.967 65.6143 10.3781C65.0292 9.78925 64.2914 9.49301 63.4046 9.49301C62.5178 9.49301 61.78 9.78925 61.1949 10.3781C60.6098 10.967 60.3154 11.7112 60.3154 12.6035C60.3154 13.4958 60.6098 14.24 61.1949 14.8288Z" fill="var(--fill-0, #1E1E20)"/>
<path d="M75.6961 9.76757H73.272V14.4315C73.272 14.8325 73.3628 15.1215 73.5446 15.2949C73.7263 15.4683 73.9989 15.5658 74.355 15.5875C74.7148 15.6056 75.1582 15.6056 75.6961 15.5767V17.4624C74.0788 17.6575 72.9194 17.5166 72.2144 17.0434C71.5093 16.5701 71.1568 15.6995 71.1568 14.4278V9.76395H69.3577V7.7409H71.1568V5.64196L73.2683 5.02059V7.7409H75.6925V9.76395L75.6961 9.76757Z" fill="var(--fill-0, #1E1E20)"/>
<path d="M84.3496 7.7445H86.4612V17.4624H84.3496V16.0644C83.5537 17.1662 82.4125 17.7153 80.9296 17.7153C79.5885 17.7153 78.4401 17.2204 77.4879 16.2269C76.5356 15.2371 76.0595 14.0268 76.0595 12.6035C76.0595 11.1801 76.5356 9.95542 77.4879 8.96918C78.4401 7.98294 79.5849 7.49162 80.9296 7.49162C82.4161 7.49162 83.5573 8.03713 84.3496 9.12453V7.7445ZM79.0543 14.8288C79.6394 15.4177 80.3772 15.7139 81.264 15.7139C82.1508 15.7139 82.8886 15.4177 83.4737 14.8288C84.0588 14.24 84.3532 13.4958 84.3532 12.6035C84.3532 11.7112 84.0588 10.967 83.4737 10.3781C82.8886 9.78925 82.1508 9.49301 81.264 9.49301C80.3772 9.49301 79.6394 9.78925 79.0543 10.3781C78.4691 10.967 78.1748 11.7112 78.1748 12.6035C78.1748 13.4958 78.4691 14.24 79.0543 14.8288Z" fill="var(--fill-0, #1E1E20)"/>
<path d="M102.588 5.88766C102.319 6.155 102.003 6.28505 101.639 6.28505C101.276 6.28505 100.96 6.15139 100.691 5.88766C100.422 5.62394 100.291 5.30964 100.291 4.94477C100.291 4.57989 100.422 4.26921 100.684 4.00188C100.945 3.73816 101.265 3.60449 101.643 3.60449C102.021 3.60449 102.341 3.73816 102.603 4.00188C102.864 4.26921 102.995 4.5835 102.995 4.94477C102.995 5.30603 102.861 5.62394 102.595 5.88766H102.588ZM100.585 17.4625V7.74454H102.697V17.4625H100.585Z" fill="var(--fill-0, #1E1E20)"/>
<path d="M106.56 9.37745C107.095 8.17084 108.098 7.57115 109.573 7.57115V9.84348C108.767 9.7929 108.061 9.98438 107.462 10.4179C106.862 10.8514 106.564 11.5667 106.564 12.5674V17.4661H104.452V7.74816H106.564V9.38106L106.56 9.37745Z" fill="var(--fill-0, #1E1E20)"/>
<path d="M111.947 13.4994C112.103 14.2364 112.463 14.8036 113.022 15.201C113.582 15.5948 114.265 15.7935 115.076 15.7935C116.195 15.7935 117.038 15.3925 117.598 14.5868L119.339 15.5984C118.376 17.0109 116.948 17.7154 115.058 17.7154C113.466 17.7154 112.183 17.2313 111.205 16.2667C110.228 15.3021 109.737 14.0811 109.737 12.6035C109.737 11.126 110.22 9.93741 111.183 8.95839C112.146 7.97937 113.386 7.49166 114.898 7.49166C116.333 7.49166 117.507 7.9902 118.427 8.98729C119.346 9.98437 119.804 11.1982 119.804 12.6216C119.804 12.8419 119.779 13.1346 119.724 13.4958H111.943L111.947 13.4994ZM111.928 11.7871H117.678C117.533 10.9959 117.206 10.3998 116.689 9.99882C116.173 9.59782 115.57 9.39552 114.88 9.39552C114.098 9.39552 113.444 9.60866 112.924 10.0386C112.401 10.4648 112.07 11.0501 111.928 11.7871Z" fill="var(--fill-0, #1E1E20)"/>
<path d="M125.597 17.7154C124.125 17.7154 122.897 17.2241 121.912 16.2378C120.927 15.2516 120.437 14.0413 120.437 12.6035C120.437 11.1657 120.927 9.93741 121.912 8.95839C122.897 7.97937 124.125 7.49166 125.597 7.49166C126.55 7.49166 127.415 7.71926 128.2 8.17084C128.981 8.62603 129.57 9.23295 129.959 9.99882L128.141 11.0501C127.92 10.5841 127.585 10.2192 127.135 9.95185C126.684 9.68813 126.168 9.55448 125.579 9.55448C124.718 9.55448 123.998 9.84709 123.42 10.4287C122.839 11.0104 122.552 11.7365 122.552 12.6071C122.552 13.4778 122.843 14.2003 123.42 14.7855C124.002 15.3672 124.721 15.6598 125.579 15.6598C126.153 15.6598 126.67 15.5225 127.135 15.2516C127.596 14.9806 127.945 14.6157 128.181 14.1642L129.999 15.1938C129.581 15.9705 128.981 16.5882 128.2 17.0398C127.418 17.4914 126.55 17.719 125.597 17.719V17.7154Z" fill="var(--fill-0, #1E1E20)"/>
<path d="M136.646 9.76761H134.222V14.4315C134.222 14.8325 134.313 15.1215 134.494 15.2949C134.676 15.4683 134.949 15.5659 135.305 15.5875C135.665 15.6056 136.108 15.6056 136.646 15.5767V17.4625C135.029 17.6576 133.869 17.5167 133.164 17.0434C132.459 16.5702 132.107 15.6995 132.107 14.4279V9.764H130.308V7.74094H132.107V5.642L134.218 5.02064V7.74094H136.642V9.764L136.646 9.76761Z" fill="var(--fill-0, #1E1E20)"/>
<path d="M93.1818 3.85734C95.0571 3.85734 96.6199 4.51122 97.8629 5.81899C99.1058 7.12675 99.7309 8.74159 99.7309 10.6599C99.7309 12.5782 99.1095 14.175 97.8629 15.49C96.6163 16.805 95.0571 17.4625 93.1818 17.4625H87.8065V3.85734H93.1818ZM93.1818 15.3238C94.472 15.3238 95.5259 14.883 96.3401 14.0016C97.1542 13.1201 97.5612 12.0074 97.5612 10.6599C97.5612 9.31239 97.1542 8.18164 96.3401 7.30739C95.5259 6.43313 94.472 5.996 93.1818 5.996H90.0526V15.3238H93.1818Z" fill="var(--fill-0, #1E1E20)"/>
<path d="M48.2805 32.9493L46.0101 25.1605H46.847L48.8047 31.8908L50.8646 25.1605H51.7956L53.8582 31.8997L55.8096 25.1605H56.6104L54.3489 32.9493H53.3981L51.3283 26.1878L49.2585 32.9493H48.2787H48.2805Z" fill="var(--fill-0, #1E1E20)"/>
<path d="M59.3897 27.2525C60.2276 27.2525 60.9045 27.544 61.4206 28.1262C61.9376 28.7083 62.1961 29.3962 62.1961 30.1907C62.1961 30.2725 62.1889 30.3871 62.1735 30.5355H57.2051C57.2801 31.099 57.5242 31.546 57.9354 31.8766C58.3467 32.2072 58.8537 32.3717 59.4575 32.3717C59.8877 32.3717 60.2592 32.2846 60.5719 32.1104C60.8847 31.9362 61.1206 31.7078 61.2796 31.426L61.9358 31.8046C61.6873 32.1983 61.3474 32.5094 60.9172 32.7396C60.487 32.9698 59.9962 33.0844 59.4457 33.0844C58.5554 33.0844 57.8315 32.8098 57.2729 32.2606C56.7143 31.7113 56.435 31.0146 56.435 30.1685C56.435 29.3224 56.7107 28.6443 57.2611 28.088C57.8116 27.5316 58.5211 27.2534 59.3888 27.2534L59.3897 27.2525ZM59.3897 27.9644C58.8013 27.9644 58.3087 28.1368 57.9128 28.4817C57.5169 28.8265 57.281 29.2735 57.2051 29.8228H61.4261C61.3501 29.2371 61.1206 28.7803 60.7355 28.4541C60.3505 28.1279 59.9022 27.9644 59.3888 27.9644H59.3897Z" fill="var(--fill-0, #1E1E20)"/>
<path d="M70.5133 27.3858H71.2599V32.7272C71.2599 33.5288 70.9806 34.1589 70.422 34.6184C69.8635 35.0778 69.1964 35.308 68.4191 35.308C67.0914 35.308 66.1975 34.8557 65.7374 33.9509L66.3936 33.5839C66.7334 34.2584 67.4086 34.5962 68.4191 34.5962C69.0681 34.5962 69.5788 34.4273 69.9529 34.0896C70.3262 33.7519 70.5133 33.2977 70.5133 32.7263V31.858C69.9927 32.6738 69.2308 33.0818 68.2275 33.0818C67.4204 33.0818 66.7316 32.8 66.1622 32.2357C65.5928 31.6722 65.3081 30.9817 65.3081 30.1658C65.3081 29.35 65.5928 28.6603 66.1622 28.0959C66.7316 27.5325 67.4204 27.2499 68.2275 27.2499C69.2308 27.2499 69.9927 27.6578 70.5133 28.4737V27.3832V27.3858ZM66.7 31.7309C67.1302 32.1575 67.6581 32.3708 68.2844 32.3708C68.9108 32.3708 69.4387 32.1575 69.8689 31.7309C70.2991 31.3043 70.5142 30.7835 70.5142 30.1676C70.5142 29.5517 70.2991 29.0309 69.8689 28.6043C69.4387 28.1777 68.9108 27.9644 68.2844 27.9644C67.6581 27.9644 67.1302 28.1777 66.7 28.6043C66.2698 29.0309 66.0547 29.5517 66.0547 30.1676C66.0547 30.7835 66.2698 31.3043 66.7 31.7309Z" fill="var(--fill-0, #1E1E20)"/>
<path d="M74.9874 27.2525C75.8252 27.2525 76.5022 27.544 77.0183 28.1262C77.5353 28.7083 77.7938 29.3962 77.7938 30.1907C77.7938 30.2725 77.7866 30.3871 77.7712 30.5355H72.8028C72.8778 31.099 73.1218 31.546 73.5331 31.8766C73.9443 32.2072 74.4514 32.3717 75.0552 32.3717C75.4854 32.3717 75.8569 32.2846 76.1696 32.1104C76.4823 31.9362 76.7182 31.7078 76.8773 31.426L77.5335 31.8046C77.285 32.1983 76.9451 32.5094 76.5149 32.7396C76.0846 32.9698 75.5939 33.0844 75.0434 33.0844C74.1531 33.0844 73.4291 32.8098 72.8706 32.2606C72.312 31.7113 72.0327 31.0146 72.0327 30.1685C72.0327 29.3224 72.3084 28.6443 72.8588 28.088C73.4093 27.5316 74.1188 27.2534 74.9865 27.2534L74.9874 27.2525ZM74.9874 27.9644C74.399 27.9644 73.9064 28.1368 73.5105 28.4817C73.1146 28.8265 72.8787 29.2735 72.8028 29.8228H77.0237C76.9478 29.2371 76.7182 28.7803 76.3332 28.4541C75.9482 28.1279 75.4999 27.9644 74.9865 27.9644H74.9874Z" fill="var(--fill-0, #1E1E20)"/>
<path d="M81.2917 28.0977H79.6621V31.4696C79.6621 31.7735 79.7226 31.9913 79.8428 32.1201C79.9631 32.2499 80.1447 32.3165 80.386 32.3201C80.6274 32.3237 80.9293 32.3183 81.2917 32.3032V32.9484C80.4999 33.0666 79.9052 33.0116 79.5093 32.7814C79.1134 32.5512 78.9155 32.1139 78.9155 31.4687V28.0968H77.7269V27.385H78.9155V26.0501L79.6621 25.8279V27.3858H81.2917V28.0977Z" fill="var(--fill-0, #1E1E20)"/>
<path d="M84.9125 25.1605H85.7043V32.9493H84.9125V25.1605Z" fill="var(--fill-0, #1E1E20)"/>
<path d="M92.11 25.1605V25.8946H89.6768V32.9493H88.8851V25.8946H86.4519V25.1605H92.11Z" fill="var(--fill-0, #1E1E20)"/>
<path d="M92.6839 32.8827C92.5628 33.0009 92.4164 33.0604 92.2429 33.0604C92.0693 33.0604 91.922 33.0009 91.8018 32.8827C91.6807 32.7645 91.621 32.6196 91.621 32.449C91.621 32.2783 91.6816 32.1335 91.8018 32.0153C91.922 31.8971 92.0693 31.8375 92.2429 31.8375C92.4164 31.8375 92.5637 31.8971 92.6839 32.0153C92.8041 32.1344 92.8647 32.2783 92.8647 32.449C92.8647 32.6196 92.8041 32.7645 92.6839 32.8827Z" fill="var(--fill-0, #1E1E20)"/>
</g>
</svg>
