<svg preserveAspectRatio="none" width="100%" height="100%" overflow="visible" style="display: block;" viewBox="0 0 98.5507 59.1304" fill="none" xmlns="http://www.w3.org/2000/svg">
<g id="Vector">
<path d="M19.8491 3.27151L8.98001 42.6107C8.82483 43.2393 8.39978 43.7665 7.77233 43.7665H1.15371C0.526252 43.7665 0 43.2393 0 42.6107L0.364328 1.48029C0.418303 0.898988 0.836605 0.378521 1.46406 0.378521H3.56232C4.18977 0.378521 4.71602 0.905747 4.71602 1.53436L3.98062 38.305C3.98062 39.0958 4.34495 39.5149 5.03312 39.5149C5.7213 39.5149 6.08563 39.0958 6.29478 38.305L15.909 1.53436C16.0169 0.905747 16.4352 0.378521 17.0627 0.378521H19.161C19.6872 0.378521 20.2607 0.797598 20.2607 1.48029C20.2607 1.7439 20.0515 2.42659 19.8424 3.27151H19.8491Z" fill="var(--fill-0, #1E1E20)"/>
<path d="M35.6502 41.7185C35.6502 42.8743 34.7596 43.7733 33.6059 43.7733H30.138C28.9843 43.7733 28.0937 42.8811 28.0937 41.7185V2.42659C28.0937 1.27075 28.9843 0.371762 30.138 0.371762H33.6059C34.7596 0.371762 35.6502 1.31807 35.6502 2.47391V41.7185Z" fill="var(--fill-0, #1E1E20)"/>
<path d="M60.5931 41.4548C60.384 42.9824 59.1223 43.7665 57.8607 43.7665H54.6087C53.455 43.7665 52.1394 43.2393 51.8763 41.4548L46.101 2.42659C46.047 2.06159 45.993 1.7439 45.993 1.37214C45.993 1.05445 46.3101 0.371762 47.2007 0.371762H48.4624C48.9886 0.371762 49.4609 0.736765 49.6161 1.42621L55.1282 39.3527C55.2362 40.1435 55.6005 40.4545 56.2279 40.4545C56.8554 40.4545 57.2265 40.1368 57.3277 39.3527L62.8466 1.42621C63.0018 0.743524 63.474 0.371762 64.0003 0.371762H65.2619C66.1525 0.371762 66.4696 1.05445 66.4696 1.37214C66.4696 1.73714 66.4156 2.05483 66.3617 2.42659L60.5864 41.4548H60.5931Z" fill="var(--fill-0, #1E1E20)"/>
<path d="M95.4539 32.884C94.8737 36.7774 94.0371 39.4608 92.4583 41.1912C90.6704 43.1379 88.2079 44.1383 84.8479 44.1383C81.488 44.1383 78.4452 42.7729 77.0216 40.8262C75.76 39.1432 75.2877 37.406 75.2877 35.3039C75.2877 33.9385 75.3417 32.3027 75.6048 30.6197L78.3845 11.261C78.9647 7.36765 79.8013 4.6842 81.3801 2.94706C83.168 1.00038 85.6306 0 88.9905 0C92.3504 0 95.3932 1.36538 96.8168 3.31206C98.0784 4.99513 98.5507 6.73227 98.5507 8.83442C98.5507 10.1998 98.4428 11.7815 98.2336 13.5186L95.4539 32.8773V32.884ZM90.9403 11.1596C91.0483 10.4769 91.0483 9.9497 91.0483 9.5847C91.0483 8.21932 90.1577 7.21894 88.842 7.21894C86.9529 7.21894 86.3187 8.69247 86.0624 10.4296L82.9656 32.6813C82.8104 33.6816 82.8104 34.2089 82.8104 34.5739C82.8104 35.9392 83.701 36.9396 85.0166 36.9396C86.9057 36.9396 87.5399 35.4661 87.7963 33.729L90.9471 11.1664L90.9403 11.1596Z" fill="var(--fill-0, #1E1E20)"/>
<path d="M34.9822 54.6693H35.6097V59.0764H34.9822V57.1567H32.5129V59.0764H31.8854V54.6693H32.5129V56.5754H34.9822V54.6693Z" fill="var(--fill-0, #1E1E20)"/>
<path d="M42.6061 54.6085C43.2876 54.6085 43.8543 54.8248 44.2996 55.2574C44.7449 55.6899 44.9743 56.2307 44.9743 56.8796C44.9743 57.5285 44.7449 58.0692 44.2928 58.4951C43.8408 58.9209 43.2606 59.1304 42.5657 59.1304C41.8707 59.1304 41.3512 58.9209 40.9127 58.4951C40.4741 58.0692 40.2515 57.5352 40.2515 56.8931C40.2515 56.251 40.4741 55.6899 40.9194 55.2574C41.3647 54.8248 41.9247 54.6085 42.6061 54.6085ZM42.6264 55.21C42.1204 55.21 41.7088 55.3655 41.385 55.6832C41.0611 56.0009 40.8992 56.3997 40.8992 56.8931C40.8992 57.3865 41.0611 57.7651 41.385 58.076C41.7088 58.3869 42.1136 58.5491 42.6061 58.5491C43.0987 58.5491 43.5035 58.3869 43.8341 58.0692C44.1646 57.7448 44.3266 57.346 44.3266 56.8661C44.3266 56.3862 44.1646 56.0076 43.8341 55.6899C43.5035 55.3723 43.1054 55.21 42.6264 55.21Z" fill="var(--fill-0, #1E1E20)"/>
<path d="M48.8267 54.6625H52.497V55.2236H50.9654V59.0764H50.3312V55.2236H48.8267V54.6625Z" fill="var(--fill-0, #1E1E20)"/>
<path d="M56.9634 54.6693H59.4529V55.2303H57.5908V56.5754H59.3922V57.1364H57.5908V58.5018H59.5136V59.0628H56.9634V54.6625V54.6693Z" fill="var(--fill-0, #1E1E20)"/>
<path d="M64.675 54.6693V58.5018H66.6518V59.0764H64.0408V54.6693H64.675Z" fill="var(--fill-0, #1E1E20)"/>
<path d="M72.1639 57.2311L71.6849 56.9404C71.388 56.7579 71.1721 56.5754 71.044 56.3997C70.9158 56.2239 70.855 56.0212 70.855 55.7846C70.855 55.4399 70.9765 55.156 71.2126 54.9397C71.4555 54.7234 71.7659 54.6152 72.1504 54.6152C72.535 54.6152 72.8521 54.7166 73.1625 54.9261V55.6426C72.8454 55.3385 72.508 55.183 72.1369 55.183C71.9345 55.183 71.7591 55.2303 71.6309 55.3249C71.496 55.4196 71.4353 55.5412 71.4353 55.6899C71.4353 55.8184 71.4825 55.9468 71.5837 56.0617C71.6782 56.1766 71.8401 56.2983 72.056 56.4267L72.535 56.7106C73.068 57.0351 73.3379 57.4406 73.3379 57.934C73.3379 58.2855 73.2232 58.5762 72.987 58.7925C72.7509 59.0088 72.4473 59.1237 72.0695 59.1237C71.6377 59.1237 71.2396 58.9885 70.882 58.7249V57.9205C71.2194 58.3531 71.6174 58.5694 72.0627 58.5694C72.2584 58.5694 72.4271 58.5153 72.5552 58.4072C72.6834 58.299 72.7509 58.1571 72.7509 57.9949C72.7509 57.7245 72.5552 57.4744 72.1707 57.2311H72.1639Z" fill="var(--fill-0, #1E1E20)"/>
</g>
</svg>
