<svg preserveAspectRatio="none" width="100%" height="100%" overflow="visible" style="display: block;" viewBox="0 0 86.7209 80" fill="none" xmlns="http://www.w3.org/2000/svg">
<g id="Vector">
<path d="M18.7195 8.28467C19.6699 9.62406 21.9658 9.62895 23.1653 8.22293C23.2068 8.17463 23.1823 8.06399 23.2098 8.05176C23.23 8.04259 23.3258 8.02364 23.3356 8.00408C23.7867 7.13173 23.9741 6.58583 23.8209 5.46895C23.783 5.19386 23.6158 4.86681 23.4876 4.61556C23.0926 3.84225 22.3473 3.38865 21.4847 3.29695C20.6344 3.20587 19.944 3.43144 19.2628 3.95289C18.6908 4.3906 18.3624 5.04042 18.1964 5.74894C18.0682 6.2979 18.1109 6.66958 18.1939 7.23015C18.2342 7.50035 18.5583 8.05787 18.7195 8.28467ZM20.284 4.89615C20.9384 4.46579 21.865 4.53181 22.3052 5.22626C22.8106 6.02342 22.5866 7.02658 21.8528 7.60672C21.4084 7.95823 20.9036 8.11717 20.3927 7.935C19.9208 7.76689 19.5362 7.35914 19.4374 6.82974C19.2866 6.02219 19.6083 5.34119 20.284 4.89615Z" fill="#1E1E20"/>
<path d="M71.0352 40.4435C69.9144 41.7719 69.9218 43.9182 71.4033 44.9464C72.2365 45.5247 73.2413 45.669 74.1673 45.323C74.934 45.0363 75.5487 44.5937 75.918 43.8357C76.244 43.1681 76.3685 42.4993 76.2269 41.7878C76.023 40.7602 75.4211 39.8414 74.359 39.5271C73.1937 39.1817 71.8379 39.4923 71.0352 40.4435ZM71.5522 42.0781C71.8129 41.2498 72.5478 40.622 73.4317 40.5994C73.9256 40.5872 74.3236 40.8794 74.6379 41.2419C75.1159 41.7927 75.158 42.6234 74.8064 43.2629C74.4658 43.8834 73.7809 44.2923 72.9709 44.2251C71.8904 44.1358 71.2409 43.0673 71.5522 42.0781Z" fill="#1E1E20"/>
<path d="M83.5533 48.3454L74.5897 49.7936C74.384 50.0155 74.4542 50.3388 74.3224 50.4287C74.1783 50.5271 74.1325 49.837 72.7432 50.0668L68.0093 50.8505C65.5877 51.2509 64.7545 52.8532 64.7398 52.8532C64.7209 52.8483 64.6483 52.8324 64.6202 52.8293C64.047 51.9001 63.0575 51.6666 62.0332 51.8463L60.7702 52.0676C60.7751 52.0481 60.7922 51.9766 60.794 51.9692L61.8012 51.0571L62.69 50.2404C65.3496 47.7964 67.7206 44.0875 69.2625 40.814C69.7038 39.8774 70.5279 37.7451 70.8032 36.7884L71.0504 35.9295L71.2525 35.1611C71.3801 34.6757 71.518 34.2179 71.6017 33.7209L71.6969 33.1536L71.9197 31.8722L72.1224 30.2339C72.1779 29.7834 72.1541 29.3249 72.1913 28.8731C72.2359 28.3309 72.22 27.8272 72.184 27.2868C72.1407 26.6498 72.1987 26.014 72.1163 25.3874L71.9276 23.9521L71.4594 21.3656C71.3825 20.9426 71.2488 20.5305 71.1243 20.1307L70.6872 18.7259C70.3558 17.661 69.6318 15.9909 69.127 14.9932L68.7284 14.2059C68.4866 13.7284 68.2095 13.2889 67.9275 12.8188L68.6936 10.6205L69.8351 7.11584L70.3985 5.35769L70.8606 3.99874L70.99 3.56471C71.0028 3.52192 71.0022 3.40026 70.9613 3.39476C70.9339 3.39048 70.813 3.38131 70.7831 3.38926L69.6489 3.6937L64.6599 4.8931L63.2424 5.22626L62.5795 5.3797L61.2292 5.71226C60.4418 5.90666 60.7385 5.7092 59.716 5.04164L58.3736 4.16563C57.4842 3.58549 57.6662 3.75544 56.8708 3.30184C56.5637 3.12701 56.2829 2.94545 55.9643 2.80179L55.33 2.51447C54.7672 2.26016 54.2191 2.02909 53.644 1.82919L52.3328 1.37498L51.2963 1.05282C51.1376 1.0033 50.9819 0.973346 50.8159 0.929331L49.7678 0.651183L47.2931 0.192085L46.2761 0.119339C45.5387 0.0667659 44.1622 -0.0304331 43.4639 0.00930234L41.4922 0.121784C41.1925 0.139512 40.8757 0.140735 40.5912 0.196365C39.6994 0.369367 38.8539 0.481849 37.9798 0.700088C35.9837 1.19831 34.0926 1.86648 32.2393 2.75166L31.0007 3.40821C29.2976 4.3154 27.6763 5.35586 26.2565 6.66713L25.3994 7.45878C24.8751 7.94233 24.5601 8.21009 24.0614 8.76638C22.9498 10.0061 21.8736 11.2465 20.9274 12.6256L20.646 13.0358C18.9545 15.5025 17.5554 18.1727 16.6849 21.0324L16.4169 21.9139L16.268 22.4421L15.9335 23.7363L15.5312 25.3098L14.7328 26.2897C13.9264 27.2788 13.2177 28.3547 12.7464 29.548C12.6109 29.8916 12.5102 30.2376 12.4021 30.5922C12.3258 30.841 12.3203 31.1729 12.2856 31.4382C12.1476 32.4976 12.3313 33.51 12.8954 34.3988L13.1981 34.8763L13.0199 36.1887C12.9894 36.4125 12.9833 36.6099 13.012 36.8331L13.1524 37.92C13.2696 38.8253 13.7561 39.6341 14.4489 40.243C14.737 40.4961 15.2254 40.5982 15.4415 40.9356C15.6557 41.2694 15.7192 41.7181 15.8993 42.0892C16.3358 42.9902 17.0225 44.1309 17.7501 44.8052L18.0675 45.0993C18.175 45.1983 18.3514 45.3634 18.4356 45.4795C19.054 46.3347 19.6736 47.1319 20.3847 47.904L20.7974 48.3527C21.0629 48.6412 21.3395 48.9029 21.6337 49.1621L22.6793 50.0833C23.3801 50.7007 23.5028 50.5308 23.382 50.9985L22.9064 52.8342L22.7117 53.6277C22.6973 53.6862 22.6795 53.7628 22.6597 53.8504C22.5264 54.4397 23.0432 54.9692 23.6407 54.8647L24.7188 54.6761L28.0517 54.0232C29.0229 54.6517 29.9838 55.1884 31.0245 55.6628C31.3707 55.8205 31.6844 55.9794 32.044 56.1084L32.887 56.411C32.9205 56.4233 32.9846 56.4648 33.0048 56.4826C33.0255 56.4997 33.0066 56.5565 32.981 56.5571C32.9633 56.5571 32.9266 56.5474 32.7649 56.5736L20.2236 58.594C20.118 58.6112 19.9977 58.5671 20.0112 58.5243L20.06 58.3691L20.6318 57.3849C20.9954 56.7591 20.463 55.9944 19.747 56.114L11.3589 57.5151L3.53626 58.7939L0.718414 59.2597C-0.0329492 59.3839 -0.261635 60.3487 0.354658 60.7943L2.6023 62.4196L4.25229 63.5744C4.17904 63.7052 4.15585 63.789 4.13204 63.9382L3.44958 68.1532L2.32639 75.382C2.2275 76.019 2.10114 76.6193 1.82583 77.2086L1.03899 78.8901C0.749666 79.5084 1.25923 80.149 1.92001 79.9692C1.997 79.9483 2.07471 79.9274 2.15363 79.9069L5.41944 79.056L8.89401 78.1793C9.0167 78.1482 9.25477 78.1427 9.32192 78.051L9.60271 76.1865L10.3957 71.063C10.7094 70.9738 11 70.9181 11.3052 70.8711L12.6323 70.6675L14.1712 70.404C14.2347 70.393 14.4068 70.423 14.3995 70.4645L14.3683 70.6479C14.234 71.4323 13.9319 73.117 13.9984 73.8268C14.0589 74.4742 14.2298 75.091 14.7102 75.5195C15.3774 76.1143 16.2509 76.3154 17.1299 76.324C17.9937 76.3319 18.783 76.2788 19.6382 76.1155L24.5039 75.1876L26.077 74.9002C26.0849 75.0665 26.0367 75.1894 25.9531 75.341L25.2334 76.6437C25.0371 76.9998 25.3398 77.3852 25.7407 77.3104L29.4509 76.618L32.3077 76.1565L33.1763 76.0293L35.6046 75.7096L36.7125 75.5984L38.6598 75.3985L39.6084 75.3031L40.5454 75.2114L41.8377 75.0989L45.0724 74.822L46.3488 74.715L47.389 74.6154L48.2429 74.5273L49.5737 74.413L50.3178 74.3348L51.3531 74.2278L52.3261 74.1214L53.0617 74.0377L54.1995 73.9062C58.298 73.4331 62.3524 72.7301 66.4228 71.903C70.8777 70.9982 75.2551 69.8025 79.5 68.1984L84.2107 66.4183C84.2913 66.0759 84.3169 65.7544 84.3554 65.4065L84.4366 64.6662L84.5464 63.6496L84.7387 61.9832L84.8541 60.8577L85.0958 58.6857L85.1789 57.8048L85.3766 55.9911L85.4767 55.137L85.5762 54.3466L85.6715 53.5421L85.8088 52.1447C85.8485 51.9766 85.8607 51.7204 85.9132 51.5529L86.6811 49.0982C86.8705 48.4928 86.3552 47.9001 85.7265 48L83.5533 48.3454ZM64.2509 64.2157L64.5481 61.6751L64.6489 60.8302L64.7465 60.0294L64.8424 59.2934L64.9455 58.3269L65.0365 57.5835L65.1366 56.8133L65.2343 55.9984L65.3441 55.2184C65.5285 53.9089 66.3062 52.7835 67.5698 52.3378C68.077 52.1593 68.6209 52.0621 69.1599 51.9741L70.3185 51.7858L70.8417 51.7033L71.4399 51.6165C71.9227 51.5462 72.4465 51.5578 72.919 51.6195C73.48 51.6935 73.8871 52.0371 74.0733 52.5353C74.2985 53.1374 74.2198 53.7182 74.1533 54.3442L74.055 55.2642L73.9585 56.1879L73.8523 57.0939L73.7559 57.8935L73.6625 58.6576L73.5605 59.5984L73.4635 60.4524L73.179 62.6507C73.0954 63.2963 72.9995 63.9528 72.6772 64.5275C72.2554 65.2782 71.5351 65.766 70.7178 66.0343C69.6361 66.3889 68.533 66.5662 67.3976 66.7172C66.5095 66.8352 65.3777 66.9238 64.6483 66.2453C64.1801 65.81 64.1733 64.882 64.2509 64.2157ZM61.3489 53.5152C61.8409 53.4345 62.2572 53.404 62.759 53.5684C63.4359 53.7897 63.7613 54.4891 63.757 55.2043L63.7528 55.933C63.7509 56.3083 63.7033 56.6592 63.6575 57.0291L63.4829 58.4473C63.2772 60.107 63.0495 61.5577 61.2598 62.2136L62.3268 66.1872L62.5765 66.8792L60.504 67.2802L59.5164 67.4777L58.7515 64.6613L58.2479 62.6917L57.3945 62.7944L57.3011 63.446L57.1906 64.363L57.093 65.1577L56.8879 66.9709C56.8506 67.2985 56.9562 67.5767 57.0515 67.9092L53.4163 68.5346C53.71 67.9863 53.8992 67.4936 53.9694 66.9305L54.0603 66.1951L54.158 65.4292L54.2569 64.6711L54.8423 60.2703L54.9418 59.4866L55.0407 58.6888L55.1249 58.0231L55.2458 57.0951L55.33 56.4801C55.3813 56.1072 55.4033 55.7465 55.4228 55.3565L57.4977 54.225C57.7229 54.1015 57.9805 54.0397 58.2296 54.0012L60.1292 53.7109L60.6853 53.6241L61.3489 53.5152ZM49.0481 60.8241C49.2392 60.8131 49.4626 60.755 49.6402 60.7324L50.4448 60.6279L51.8427 60.3993C52.1448 60.3503 52.4451 60.3222 52.7168 60.3161L52.4976 61.9599L52.3481 63.0933L48.5146 63.7248L48.1141 66.5986L48.9022 66.4617L49.4028 66.3895L52.6698 65.8522C52.6661 66.1309 52.6283 66.4317 52.5886 66.7386L52.3438 68.6184C52.2498 68.7651 51.9513 68.7156 51.77 68.7437L44.6207 69.8465C45.0321 69.1735 45.1633 68.4527 45.2524 67.7069L45.3367 66.9966L45.4276 66.3883L45.5357 65.5869L45.6285 64.9132L45.7322 64.1289L45.8317 63.3929L45.9264 62.7027L46.0179 61.9171L46.118 61.3107L46.2212 60.5191L46.3146 59.78L46.4172 59.0293C46.4892 58.503 46.4635 57.9601 46.6558 57.877C48.2979 57.6514 49.8777 57.3457 51.4526 56.9074C52.1058 56.7252 53.0196 56.4281 53.633 56.1213C53.652 56.4911 53.5323 57.4741 53.4371 57.8458C53.0629 57.6942 52.7571 57.7718 52.3902 57.8329L49.371 58.3367C49.2935 58.6546 49.2386 58.9676 49.1995 59.2891L49.0982 60.1321C49.0707 60.3632 49.028 60.5674 49.0481 60.8241ZM41.3078 70.3625L39.15 70.7347C38.7147 70.8099 38.3039 70.8845 37.8217 70.931C38.053 70.3991 38.2038 69.9675 38.2844 69.4259L38.3735 68.8219L38.4767 68.1153L38.5731 67.3902L38.6677 66.7367L38.8649 65.3405L38.965 64.6803L39.0651 64.0011L39.172 63.2645L39.2483 62.5933L39.3612 61.8047L39.4564 61.153L39.5565 60.2825C39.5742 60.1266 39.634 59.9762 39.6157 59.7812C38.8722 59.8735 38.191 59.9719 37.4914 60.1951L37.0709 60.4219L37.3468 58.4302C37.384 58.16 37.4298 57.9173 37.5006 57.6532L38.7898 57.8513L39.302 57.9222C40.7023 58.1172 42.9426 58.2242 44.3325 58.1252L45.0187 58.0763C45.0119 58.4204 44.9698 58.7261 44.8953 59.0073L42.5043 59.3735L41.3652 67.8359L41.2578 68.6991C41.1882 69.2621 41.1406 69.7731 41.3078 70.3625ZM63.4036 47.3477C61.7975 49.3607 59.2112 51.6801 56.9648 52.9284L55.515 53.7341C54.0231 54.563 52.4488 55.0955 50.8214 55.6347C49.523 56.0656 48.199 56.3212 46.8469 56.4844L45.7396 56.6177C45.3727 56.6617 45.0351 56.7081 44.6957 56.6415L45.4093 56.5223C46.3842 56.3591 47.2937 56.205 48.1953 55.9049L50.1652 55.2489C51.2395 54.8913 52.2523 54.4658 53.2906 54.022C53.945 53.7426 55.6383 52.855 56.1804 52.4736L57.0454 51.8635C58.2326 51.0278 59.4449 50.3266 60.5803 49.417C61.6889 48.5287 62.6949 47.6228 63.6752 46.5982L64.9187 45.2979C64.4969 46.0792 63.9371 46.6789 63.4036 47.3477ZM69.4261 24.4851L69.4896 23.6684C69.5457 22.9416 69.5427 22.2159 69.4975 21.4787C69.4932 21.4029 69.2167 20.1063 69.3858 20.1289C70.2026 23.2221 70.7892 26.8546 70.3967 30.045C69.9938 33.3211 69.0025 36.4791 67.3683 39.3492C66.4612 40.9423 65.3875 42.363 64.2063 43.747C63.7991 44.2239 63.3767 44.6163 62.9421 45.0675C61.6999 46.3567 60.3795 47.4822 58.9517 48.5703C57.2034 49.9024 55.3893 51.0235 53.4383 52.0328C52.7186 52.4051 51.9983 52.6979 51.2536 53.0103L49.6213 53.6944C49.0243 53.945 48.4322 54.2103 47.801 54.3864L46.3177 54.8002C45.3373 55.0741 44.3765 55.2868 43.3742 55.4519C42.8266 55.5417 42.2821 55.6518 41.7174 55.6811C40.6901 55.7349 39.6933 55.7233 38.669 55.6719C37.9419 55.6359 37.1874 55.4861 36.4671 55.3033L35.3684 55.0246L33.5529 54.5588C33.603 54.4053 33.7721 54.4597 33.9076 54.4371C35.2078 54.2195 36.4183 53.882 37.6947 53.5464C39.7842 52.9968 41.7742 52.3568 43.8124 51.6177C46.8499 50.5161 49.766 49.2293 52.5709 47.6399C53.5879 47.0634 54.495 46.4613 55.4717 45.828C56.9709 44.8554 58.3456 43.78 59.6751 42.5941L60.2623 42.0708C60.9948 41.4179 61.6327 40.7522 62.3152 40.029C66.4386 35.6587 68.9585 30.5072 69.4261 24.4851ZM17.3265 26.2463C17.8319 23.3236 18.8129 20.4003 20.2102 17.7833C21.1447 16.0331 22.1355 14.3783 23.4021 12.8536L24.0418 12.0834C24.753 11.2275 26.6673 9.28967 27.514 8.61233L28.0926 8.14896C31.0068 5.81496 35.1572 3.77194 38.7984 2.86781C39.4949 2.69481 40.9282 2.41605 41.6057 2.34514C42.7778 2.22287 44.7073 2.14279 45.8623 2.24549L46.9061 2.3378L47.5696 2.43622L48.2948 2.53648C49.9143 2.76083 53.2509 3.63807 54.6659 4.52936C54.4577 4.53976 54.274 4.44317 54.086 4.41077C52.4635 4.13507 51.0051 4.13812 49.3515 4.21515C46.7053 4.33863 44.1848 4.85886 41.6509 5.64379C37.4151 6.95506 33.7104 9.05676 30.1687 11.6787C28.7177 12.7534 27.4212 13.8947 26.1081 15.1711C24.2158 17.0112 22.5487 18.9295 21.0477 21.0728C19.4447 23.3609 18.0981 25.7212 17.0225 28.3694C17.0158 27.6151 17.2044 26.9512 17.3265 26.2463ZM17.3924 31.6314L18.4497 29.5688L20.7217 25.6717C22.0988 23.3096 25.0991 19.3794 27.0799 17.4568L28.537 16.0423L29.3709 15.2952L30.1583 14.6161L30.5362 14.3141L31.0734 13.8861L31.8254 13.3482C36.0697 10.2073 42.5733 7.08894 47.7796 6.37981L48.6165 6.26611L49.4608 6.17319L50.6248 6.0711C51.864 5.9629 53.0788 6.03687 54.3155 6.05643C53.8577 6.04909 55.609 6.21109 55.6408 6.21109H55.6401L56.4184 6.29423C56.3348 6.47151 56.2304 6.40243 56.1077 6.43177L51.665 7.49974C49.169 8.09944 46.7956 8.9186 44.4119 9.88998C42.8321 10.5337 41.3549 11.274 39.9008 12.1494C36.9695 13.9137 35.278 15.2329 32.727 17.4892C31.4024 18.6617 30.2377 19.9107 29.1151 21.2702C28.3258 22.2257 27.6287 23.1781 26.8877 24.166L25.4422 26.0923C24.2323 27.7049 22.9351 29.1947 21.4695 30.5799C20.61 31.3924 18.0456 33.6176 16.8388 32.8779C17.0231 32.3986 17.1855 32.0342 17.3924 31.6314ZM13.4887 32.1406C13.3379 30.572 14.1083 29.2846 15.0734 27.98C14.5564 29.9484 14.4465 32.8828 16.3895 34.1714C16.0452 34.3267 15.7192 34.3034 15.3328 34.2319C14.2786 34.0363 13.59 33.197 13.4887 32.1406ZM15.8083 39.0393C14.6534 38.6585 14.1822 37.0849 14.3513 35.9289C14.767 36.1521 15.063 36.2517 15.4549 36.3177C17.3424 36.635 20.1009 34.8218 21.5012 33.6188L22.2923 32.939L23.0352 32.2776C23.609 31.7671 24.1224 31.212 24.6449 30.6484L25.4934 29.7333L26.1533 28.9862L26.4842 28.5828L26.9597 28.0167L27.5384 27.3253L28.432 26.1919L28.6976 25.8508L30.6107 23.3517L29.7805 25.8563L28.7086 29.6422C28.5633 30.1551 28.3649 30.586 28.0322 31.0054C26.9347 32.3913 25.726 33.6273 24.4398 34.8463C23.5211 35.718 22.5853 36.4797 21.5629 37.22C20.0588 38.3088 17.6915 39.6604 15.8083 39.0393ZM19.9153 43.0471C19.4111 43.1339 18.8892 43.1803 18.4906 42.9713C17.7709 42.5941 17.332 41.8569 17.0573 41.1025C18.7586 41.292 21.0648 40.1122 22.4468 39.2166C24.347 37.9842 26.0233 36.5354 27.5536 34.8011C26.8919 36.4375 26.6172 38.0551 25.9873 39.7484C24.4948 41.4454 22.1654 42.6595 19.9153 43.0471ZM24.7524 44.3449L23.9228 47.4987C22.647 46.7847 21.5122 45.9881 20.4098 44.9837C21.71 44.7698 22.9046 44.4097 24.0546 43.8112L25.1015 43.2659C24.9642 43.6535 24.8488 43.9787 24.7524 44.3449ZM25.5356 52.0945L27.3162 45.7228L28.6579 40.5431L30.6919 32.5306L33.1708 22.9373C33.4003 22.0484 33.7666 21.2721 34.1805 20.47C34.5357 19.7811 35.0277 19.2345 35.5594 18.6813C36.226 17.9875 36.9421 17.4324 37.7478 16.8932C39.4601 15.7476 41.2083 14.7249 43.0555 13.7944C46.6931 11.9617 51.3574 10.6046 55.3136 9.63934L57.812 9.02986L61.2323 8.23271L67.6607 6.78573L67.4233 7.45267L67.0552 8.50963C66.5156 10.0593 65.968 11.5729 65.2758 13.0633C64.2478 15.2757 62.5728 17.3499 60.1524 18.0785L52.1637 20.4841L51.0497 20.8093L44.7275 22.7575C44.0835 23.0406 43.7691 23.5871 43.6012 24.2455L42.7131 27.73L47.1802 26.2879L55.4363 23.7558C57.6546 23.0754 59.7966 22.3492 61.9965 21.475L61.2152 23.3713C60.1805 25.8838 59.3888 28.0381 57.5447 30.1288C54.4577 33.6273 50.1426 35.0804 45.8757 36.6295L43.5988 37.456C42.8602 37.7244 42.135 37.9554 41.4055 38.2984C41.0386 38.4708 40.7548 38.7489 40.6553 39.1243L39.8007 42.3673C39.4003 43.8852 38.998 45.3297 38.6915 46.8647C38.401 47.1924 37.4951 47.6332 37.0672 47.8496C33.2019 49.8076 29.7445 50.9777 25.5356 52.0945ZM32.9376 52.8856C32.7496 52.94 32.5512 53.003 32.3522 52.8978C35.4892 52.0493 38.6726 50.6959 41.4098 48.9139L42.5836 44.6469C42.6581 44.3767 42.6978 44.1468 42.8119 43.8882C45.0522 43.0183 47.1924 42.0574 49.2648 40.8347C50.9526 39.8395 52.5959 38.8529 54.1476 37.6651C57.1522 35.3647 59.9199 32.6914 62.0088 29.5181C64.5781 25.6148 65.8716 21.5276 66.438 16.9378C66.4826 16.5747 66.4857 16.2183 66.5088 15.8307C66.7744 15.8821 66.637 16.0844 66.667 16.2336L67.1864 18.7907C67.4391 20.0366 67.5899 22.5784 67.4813 23.861L67.4111 24.6893C66.9252 30.4179 63.6111 35.8923 59.3754 39.724C57.414 41.498 55.3282 43.0654 53.0653 44.4604C48.2185 47.4492 40.8354 50.6042 35.3824 52.1795L32.9376 52.8856ZM15.3401 62.1342L9.6723 63.0964L9.23707 66.1089L9.99766 65.975L10.5452 65.8956L11.6367 65.7256L12.2154 65.6425L12.8581 65.5386L13.424 65.4481L14.6192 65.2598L14.2719 67.4948C14.2188 67.8341 14.1919 68.136 14.1175 68.479L13.3617 68.5945L8.65838 69.3666L7.80378 74.8746L7.68291 75.6791L7.79218 76.3643L4.00751 77.1664C3.85918 77.1976 3.70046 77.1902 3.55518 77.1682C3.99042 76.5428 4.06672 75.8551 4.18209 75.1417L4.55079 72.8511L4.86639 70.8319L5.1539 69.0188L5.24607 68.4918L5.34924 67.8603L5.43714 67.2943L5.53664 66.6347L5.63614 65.9518L5.73747 65.3503L5.9206 64.2377C6.00728 63.7077 6.0903 63.1954 6.14585 62.6568L3.31528 60.6462C3.5033 60.5276 3.64553 60.5056 3.82927 60.4787L5.10568 60.2923L5.72465 60.1975L6.39124 60.0924L7.5535 59.9035L8.28357 59.794L8.8995 59.7115L9.93601 59.5416L10.4317 59.4597L11.0281 59.36L11.7002 59.2524L12.3222 59.1601L12.9198 59.0629L14.7602 58.7695L15.3768 58.6729L16.0379 58.5708L17.3851 58.3434C16.7972 59.6638 16.4078 60.7171 16.0501 62.1592C15.7473 62.0694 15.6093 62.0889 15.3401 62.1342ZM24.1889 70.5721C24.1108 71.1003 23.9857 71.6187 23.7183 72.0784C23.3105 72.779 22.6091 73.276 21.8296 73.5174C20.718 73.8622 19.601 74.0151 18.4448 74.2058C17.9162 74.2926 17.3167 74.2773 16.8137 74.2076C15.8853 74.0786 15.7565 73.0822 15.8627 72.3394L15.9903 71.4494L16.0733 70.89L16.2759 69.6124L16.5641 67.6623L16.6648 67.0106L16.7679 66.3767L16.8583 65.7629L16.9895 64.9163L17.1049 64.1808L17.205 63.5781L17.3088 62.9075L17.3991 62.2888C17.4907 61.6647 17.5316 61.0968 17.0109 60.549L17.6848 60.4708L18.783 60.2837L19.3299 60.1963L19.9874 60.0881C20.2285 60.0484 20.4385 59.9921 20.6484 60.0655C20.3396 60.7318 20.2828 61.3657 20.179 62.0706L19.1218 69.245L18.8983 70.6877C18.8745 70.8417 18.8233 71.0594 18.8843 71.1847C19.0772 71.5814 19.803 71.2862 20.5013 71.1981C21.0287 71.1321 21.3346 70.6327 21.4213 70.1081L21.5208 69.5066L21.6141 68.8886L21.71 68.2473L21.8107 67.5999L22.0079 66.3424L22.1049 65.7036L22.2075 65.1033L22.2972 64.4932L22.3961 63.8104L22.6916 61.7967L22.7966 61.1457C22.8759 60.6511 22.9791 60.1731 22.564 59.7616C22.7752 59.681 22.9431 59.6455 23.1659 59.6045L23.7189 59.5031L24.3263 59.4077L24.9965 59.3074L25.7187 59.1974C25.8432 59.1784 25.9806 59.1595 26.1155 59.1503C25.8743 59.6975 25.737 60.096 25.6552 60.6487L24.1889 70.5721ZM28.5621 71.5093C28.5291 71.7911 28.5438 72.0485 28.5334 72.3767L26.8901 72.6744L25.2633 72.9752C25.5551 72.4324 25.7449 71.9183 25.8292 71.3289L25.9348 70.5996L26.0178 70.0403L26.1203 69.3721L26.2272 68.6985L26.3163 68.0908L26.4243 67.3627L26.5147 66.8126L26.6093 66.0704L26.7106 65.3802L26.8089 64.753L26.906 64.1191L27.0116 63.4112L27.1037 62.6617L27.1984 62.0296L27.2973 61.378L27.4047 60.7086C27.5005 60.1138 27.5781 59.4749 27.1068 58.9865L27.9474 58.8435L28.7678 58.7096L29.9813 58.5243C30.1846 58.4932 30.375 58.4155 30.593 58.4687L32.3339 65.6669C32.387 65.3882 32.4224 65.1651 32.4542 64.915L32.5329 64.2994L32.7423 62.7718L33.0268 60.7556L33.1525 59.8417C33.2068 59.4432 33.3649 58.9718 33.2019 58.5977L32.945 58.0078L35.2444 57.6642L36.4476 57.4882C36.0118 58.3024 35.9684 59.0984 35.8555 59.9346L35.1175 65.3992L34.432 70.404L34.2989 71.5252L31.5043 71.969L29.9996 65.9683L29.5815 64.1539C29.4844 64.5109 29.4228 64.8288 29.3782 65.1706L28.6835 70.4804L28.5621 71.5093ZM78.9128 66.6677C73.4354 68.4821 67.3702 69.9572 61.5869 70.9542L58.3022 71.5203L56.7621 71.7538L53.6025 72.1597L52.6838 72.2643L51.8396 72.3584L50.9844 72.4507L49.9528 72.5571L49.0988 72.6512L48.1178 72.7472L46.8988 72.8523L46.1095 72.9495L44.7061 73.0412L40.7994 73.4416L39.8251 73.5401L38.9748 73.6409L38.1147 73.7308L37.2033 73.8274L36.3481 73.9301L35.5429 74.0334L32.177 74.4913C31.1497 74.6307 30.1492 74.9223 29.0571 74.844L35.5979 73.4062L41.1607 72.3877L44.1604 71.8859L49.6994 71.0184L50.3343 70.9359L61.3568 69.2676L62.1492 69.16L66.446 68.5022L67.9531 68.2797L77.6321 66.7661L78.986 66.5301C79.0147 66.5246 79.0776 66.5277 79.1002 66.5326C79.1246 66.5375 79.1417 66.5919 78.9128 66.6677ZM84.0343 52.1428L83.8548 53.7946L83.7578 54.7116L83.654 55.771L83.5643 56.6659L83.4648 57.6398L83.3634 58.5592L83.1687 60.2825L83.0668 61.2453L82.9783 62.1048L82.8684 63.0786L82.847 63.9877L79.7802 64.5054L77.9746 56.9661L77.8714 57.8281L77.7725 58.6222L77.6767 59.4163L77.5802 60.2715L77.4862 61.1273L77.3873 61.9807L77.286 62.8347L77.1938 63.6417L77.0485 65.0006L74.033 65.5465C74.1734 65.2237 74.3498 64.9584 74.4035 64.6723C74.4774 64.2787 74.6618 63.1312 74.6856 62.8243L74.7411 62.1103L74.8467 61.3645L74.9377 60.6639L75.13 59.0574L75.2319 58.1307L75.3271 57.3751L75.4327 56.5559L75.5273 55.8138L75.6287 54.9818L75.8173 53.3514L75.9144 52.4057C75.9638 51.924 75.9833 51.6263 75.7074 51.1103C75.846 51.0419 76.0163 51.0082 76.1775 50.9826L77.2793 50.8065L77.7743 50.7283L78.6387 50.5999C78.693 50.5919 78.8188 50.5901 78.8688 50.5938C78.9317 50.598 78.9 50.8065 78.9165 50.8762L80.3021 56.7809L80.6641 58.385L80.7673 57.4558L80.879 56.5486L81.1549 54.0397L81.2513 53.006L81.3588 52.2034L81.3826 51.2925C81.4058 50.4024 80.9522 50.4941 81.0835 50.3009C81.1647 50.1817 81.443 50.2068 81.8911 50.1316L82.4692 50.0356L83.1449 49.9366L83.8652 49.8296L84.5233 49.722C84.1979 50.5993 84.1399 51.1733 84.0343 52.1428Z" fill="#1E1E20"/>
<path d="M69.3644 63.4839C69.9791 63.3146 70.2514 62.9007 70.332 62.2656L70.6225 59.9738L70.7257 59.1124L70.8246 58.3758L70.9235 57.5334L71.023 56.7332L71.1109 56.0607C71.1579 55.7025 71.272 55.2954 71.1329 54.9365C70.9906 54.5691 70.1031 54.7434 69.8278 54.7904C68.3981 55.0325 68.121 55.8859 67.9617 57.1446L67.7877 58.5176L67.6711 59.4737L67.347 62.2252L67.2505 63.2088C67.2377 63.336 67.2902 63.542 67.3683 63.6227C67.6638 63.9302 68.9487 63.5976 69.3657 63.4827L69.3644 63.4839Z" fill="#1E1E20"/>
<path d="M59.6006 56.5755L58.1692 56.8157L58.08 57.8354L57.9811 58.6344L57.8816 59.412L57.7657 60.3607L58.5116 60.2476L59.1904 60.1425C59.5805 60.082 60.0816 60.0178 60.3472 59.684C60.6396 59.3166 60.6731 58.7774 60.7244 58.333L60.8257 57.4545C60.855 57.1984 61.04 56.7326 60.7342 56.5571C60.4143 56.3737 59.9528 56.5162 59.6 56.5755H59.6006Z" fill="#1E1E20"/>
<path d="M20.3927 7.935C20.9036 8.11717 21.4084 7.95823 21.8528 7.60672C22.5866 7.02658 22.8106 6.02342 22.3052 5.22626C21.865 4.53181 20.9384 4.46579 20.284 4.89615C19.6083 5.34119 19.2866 6.02219 19.4374 6.82974C19.5362 7.35914 19.9208 7.76689 20.3927 7.935Z" fill="white"/>
<path d="M72.9709 44.2251C73.7809 44.2923 74.4658 43.8834 74.8064 43.2629C75.158 42.6234 75.1159 41.7927 74.6379 41.2419C74.3236 40.8794 73.9256 40.5872 73.4317 40.5994C72.5478 40.622 71.8129 41.2498 71.5522 42.0781C71.2409 43.0673 71.8904 44.1358 72.9709 44.2251Z" fill="white"/>
<path d="M60.5803 49.417C59.4449 50.3266 58.2326 51.0278 57.0454 51.8635L56.1804 52.4736C55.6383 52.855 53.945 53.7426 53.2906 54.022C52.2523 54.4658 51.2395 54.8913 50.1652 55.2489L48.1953 55.9049C47.2937 56.205 46.3842 56.3591 45.4093 56.5223L44.6957 56.6415C45.0351 56.7081 45.3727 56.6617 45.7396 56.6177L46.8469 56.4844C48.199 56.3212 49.523 56.0656 50.8214 55.6347C52.4488 55.0955 54.0231 54.563 55.515 53.7341L56.9648 52.9284C59.2112 51.6801 61.7975 49.3607 63.4036 47.3477C63.9371 46.6789 64.4969 46.0792 64.9187 45.2979L63.6752 46.5982C62.6949 47.6228 61.6889 48.5287 60.5803 49.417Z" fill="white"/>
<path d="M60.2623 42.0708L59.6751 42.5941C58.3456 43.78 56.9709 44.8554 55.4717 45.828C54.495 46.4613 53.5879 47.0634 52.5709 47.6399C49.766 49.2293 46.8499 50.5161 43.8124 51.6177C41.7742 52.3568 39.7842 52.9968 37.6947 53.5464C36.4183 53.882 35.2078 54.2195 33.9076 54.4371C33.7721 54.4597 33.603 54.4053 33.5529 54.5588L35.3684 55.0246L36.4671 55.3033C37.1874 55.4861 37.9419 55.6359 38.669 55.6719C39.6933 55.7233 40.6901 55.7349 41.7174 55.6811C42.2821 55.6518 42.8266 55.5417 43.3742 55.4519C44.3765 55.2868 45.3373 55.0741 46.3177 54.8002L47.801 54.3864C48.4322 54.2103 49.0243 53.945 49.6213 53.6944L51.2536 53.0103C51.9983 52.6979 52.7186 52.4051 53.4383 52.0328C55.3893 51.0235 57.2034 49.9024 58.9517 48.5703C60.3795 47.4822 61.6999 46.3567 62.9421 45.0675C63.3767 44.6163 63.7991 44.2239 64.2063 43.747C65.3875 42.363 66.4612 40.9423 67.3683 39.3492C69.0025 36.4791 69.9938 33.3211 70.3967 30.045C70.7892 26.8546 70.2026 23.2221 69.3858 20.1289C69.2167 20.1063 69.4932 21.4029 69.4975 21.4787C69.5427 22.2159 69.5457 22.9416 69.4896 23.6684L69.4261 24.4851C68.9585 30.5072 66.4386 35.6587 62.3152 40.029C61.6327 40.7522 60.9948 41.4179 60.2623 42.0708Z" fill="white"/>
<path d="M26.1081 15.1711C27.4212 13.8947 28.7177 12.7534 30.1687 11.6787C33.7104 9.05676 37.4151 6.95506 41.6509 5.64379C44.1848 4.85886 46.7053 4.33863 49.3515 4.21515C51.0051 4.13812 52.4635 4.13507 54.086 4.41077C54.274 4.44317 54.4577 4.53976 54.6659 4.52936C53.2509 3.63807 49.9143 2.76083 48.2948 2.53648L47.5696 2.43622L46.9061 2.3378L45.8623 2.24549C44.7073 2.14279 42.7778 2.22287 41.6057 2.34514C40.9282 2.41605 39.4949 2.69481 38.7984 2.86781C35.1572 3.77194 31.0068 5.81496 28.0926 8.14896L27.514 8.61233C26.6673 9.28967 24.753 11.2275 24.0418 12.0834L23.4021 12.8536C22.1355 14.3783 21.1447 16.0331 20.2102 17.7833C18.8129 20.4003 17.8319 23.3236 17.3265 26.2463C17.2044 26.9512 17.0158 27.6151 17.0225 28.3694C18.0981 25.7212 19.4447 23.3609 21.0477 21.0728C22.5487 18.9295 24.2158 17.0112 26.1081 15.1711Z" fill="white"/>
<path d="M67.3976 66.7172C68.533 66.5662 69.6361 66.3889 70.7178 66.0343C71.5351 65.766 72.2554 65.2782 72.6772 64.5275C72.9995 63.9528 73.0954 63.2963 73.179 62.6507L73.4635 60.4524L73.5605 59.5984L73.6625 58.6576L73.7559 57.8935L73.8523 57.0939L73.9585 56.1879L74.055 55.2642L74.1533 54.3442C74.2198 53.7182 74.2985 53.1374 74.0733 52.5353C73.8871 52.0371 73.48 51.6935 72.919 51.6195C72.4465 51.5578 71.9227 51.5462 71.4399 51.6165L70.8417 51.7033L70.3185 51.7858L69.1599 51.9741C68.6209 52.0621 68.077 52.1593 67.5698 52.3378C66.3062 52.7835 65.5285 53.9089 65.3441 55.2184L65.2343 55.9984L65.1366 56.8133L65.0365 57.5835L64.9455 58.3269L64.8424 59.2934L64.7465 60.0294L64.6489 60.8302L64.5481 61.6751L64.2509 64.2157C64.1733 64.882 64.1801 65.81 64.6483 66.2453C65.3777 66.9238 66.5095 66.8352 67.3976 66.7172ZM67.2499 63.2101L67.3464 62.2265L67.6705 59.4749L67.7871 58.5188L67.9611 57.1458C68.1204 55.8865 68.3975 55.0331 69.8271 54.7917C70.1025 54.7452 70.99 54.571 71.1322 54.9378C71.2714 55.2966 71.1573 55.7037 71.1103 56.062L71.0224 56.7344L70.9229 57.5346L70.824 58.377L70.7251 59.1136L70.6219 59.975L70.3314 62.2668C70.2514 62.902 69.9785 63.3158 69.3638 63.4852C68.9469 63.6001 67.662 63.9327 67.3665 63.6252C67.2884 63.5439 67.2365 63.3385 67.2487 63.2113L67.2499 63.2101Z" fill="var(--fill-0, white)"/>
<path d="M60.1292 53.7109L58.2296 54.0012C57.9805 54.0397 57.7229 54.1015 57.4977 54.225L55.4228 55.3565C55.4033 55.7465 55.3813 56.1072 55.33 56.4801L55.2458 57.0951L55.1249 58.0231L55.0407 58.6888L54.9418 59.4866L54.8423 60.2703L54.2569 64.6711L54.158 65.4292L54.0603 66.1951L53.9694 66.9305C53.8992 67.4936 53.71 67.9863 53.4163 68.5346L57.0515 67.9092C56.9562 67.5767 56.8506 67.2985 56.8879 66.9709L57.093 65.1577L57.1906 64.363L57.3011 63.446L57.3945 62.7944L58.2479 62.6917L58.7515 64.6613L59.5164 67.4777L60.504 67.2802L62.5765 66.8792L62.3268 66.1872L61.2598 62.2136C63.0495 61.5577 63.2772 60.107 63.4829 58.4473L63.6575 57.0291C63.7033 56.6592 63.7509 56.3083 63.7528 55.933L63.757 55.2043C63.7613 54.4891 63.4359 53.7897 62.759 53.5684C62.2572 53.404 61.8409 53.4345 61.3489 53.5152L60.6853 53.6241L60.1292 53.7109ZM60.8264 57.4539L60.725 58.3324C60.6737 58.7768 60.6402 59.316 60.3478 59.6834C60.0822 60.0172 59.5817 60.0814 59.191 60.1419L58.5122 60.247L57.7663 60.3601L57.8822 59.4114L57.9817 58.6338L58.0806 57.8348L58.1698 56.8151L59.6012 56.5749C59.954 56.5156 60.4155 56.3731 60.7354 56.5565C61.0406 56.732 60.8563 57.1972 60.827 57.4539H60.8264Z" fill="var(--fill-0, white)"/>
<path d="M21.4695 30.5799C22.9351 29.1947 24.2323 27.7049 25.4422 26.0923L26.8877 24.166C27.6287 23.1781 28.3258 22.2257 29.1151 21.2702C30.2377 19.9107 31.4024 18.6617 32.727 17.4892C35.278 15.2329 36.9695 13.9137 39.9008 12.1494C41.3549 11.274 42.8321 10.5337 44.4119 9.88998C46.7956 8.9186 49.169 8.09944 51.665 7.49974L56.1077 6.43177C56.2304 6.40243 56.3348 6.47151 56.4184 6.29423L55.6401 6.21048H55.6408C55.609 6.21109 53.8577 6.04909 54.3155 6.05643C53.0788 6.03687 51.864 5.9629 50.6248 6.0711L49.4608 6.17319L48.6165 6.26611L47.7796 6.37981C42.5733 7.08894 36.0697 10.2073 31.8254 13.3482L31.0734 13.8861L30.5362 14.3141L30.1583 14.6161L29.3709 15.2952L28.537 16.0423L27.0799 17.4568C25.0991 19.3794 22.0988 23.3096 20.7217 25.6717L18.4497 29.5688L17.3924 31.6314C17.1855 32.0342 17.0231 32.3986 16.8388 32.8779C18.0456 33.6176 20.61 31.3924 21.4695 30.5799Z" fill="white"/>
<path d="M41.3652 67.8359L42.5043 59.3735L44.8953 59.0073C44.9698 58.7261 45.0119 58.4204 45.0187 58.0763L44.3325 58.1252C42.9426 58.2242 40.7023 58.1172 39.302 57.9222L38.7898 57.8513L37.5006 57.6532C37.4298 57.9173 37.384 58.16 37.3468 58.4302L37.0709 60.4219L37.4914 60.1951C38.191 59.9719 38.8722 59.8735 39.6157 59.7812C39.634 59.9762 39.5742 60.1266 39.5565 60.2825L39.4564 61.153L39.3612 61.8047L39.2483 62.5933L39.172 63.2645L39.0651 64.0011L38.965 64.6803L38.8649 65.3405L38.6677 66.7367L38.5731 67.3902L38.4767 68.1153L38.3735 68.8219L38.2844 69.4259C38.2038 69.9675 38.053 70.3991 37.8217 70.931C38.3039 70.8845 38.7147 70.8099 39.15 70.7347L41.3078 70.3625C41.1406 69.7731 41.1882 69.2621 41.2578 68.6991L41.3652 67.8359Z" fill="var(--fill-0, white)"/>
<path d="M49.1995 59.2891C49.2386 58.9676 49.2935 58.6546 49.371 58.3367L52.3902 57.8329C52.7571 57.7718 53.0629 57.6942 53.4371 57.8458C53.5323 57.4741 53.652 56.4911 53.633 56.1213C53.0196 56.4281 52.1058 56.7252 51.4526 56.9074C49.8777 57.3457 48.2979 57.6514 46.6558 57.877C46.4635 57.9601 46.4892 58.503 46.4172 59.0293L46.3146 59.78L46.2212 60.5191L46.118 61.3107L46.0179 61.9171L45.9264 62.7027L45.8317 63.3929L45.7322 64.1289L45.6285 64.9132L45.5357 65.5869L45.4276 66.3883L45.3367 66.9966L45.2524 67.7069C45.1633 68.4527 45.0321 69.1735 44.6207 69.8465L51.77 68.7437C51.9513 68.7156 52.2498 68.7651 52.3438 68.6184L52.5886 66.7386C52.6283 66.4317 52.6661 66.1309 52.6698 65.8522L49.4028 66.3895L48.9022 66.4617L48.1141 66.5986L48.5146 63.7248L52.3481 63.0933L52.4976 61.9599L52.7168 60.3161C52.4451 60.3222 52.1448 60.3503 51.8427 60.3993L50.4448 60.6279L49.6402 60.7324C49.4626 60.755 49.2392 60.8131 49.0481 60.8241C49.028 60.5674 49.0707 60.3632 49.0982 60.1321L49.1995 59.2891Z" fill="var(--fill-0, white)"/>
<path d="M29.5815 64.1539L29.9996 65.9683L31.5043 71.969L34.2989 71.5252L34.432 70.404L35.1175 65.3992L35.8555 59.9346C35.9684 59.0984 36.0118 58.3024 36.4476 57.4882L35.2444 57.6642L32.945 58.0078L33.2019 58.5977C33.3649 58.9718 33.2068 59.4432 33.1525 59.8417L33.0268 60.7556L32.7423 62.7718L32.5329 64.2994L32.4542 64.915C32.4224 65.1651 32.387 65.3882 32.3339 65.6669L30.593 58.4687C30.375 58.4155 30.1846 58.4932 29.9813 58.5243L28.7678 58.7096L27.9474 58.8435L27.1068 58.9865C27.5781 59.4749 27.5005 60.1138 27.4047 60.7086L27.2973 61.378L27.1984 62.0296L27.1037 62.6617L27.0116 63.4112L26.906 64.1191L26.8089 64.753L26.7106 65.3802L26.6093 66.0704L26.5147 66.8126L26.4243 67.3627L26.3163 68.0908L26.2272 68.6985L26.1203 69.3721L26.0178 70.0403L25.9348 70.5996L25.8292 71.3289C25.7449 71.9183 25.5551 72.4324 25.2633 72.9752L26.8901 72.6744L28.5334 72.3767C28.5438 72.0485 28.5291 71.7911 28.5621 71.5093L28.6835 70.4804L29.3782 65.1706C29.4228 64.8288 29.4844 64.5109 29.5815 64.1539Z" fill="var(--fill-0, white)"/>
<path d="M16.3895 34.1714C14.4465 32.8828 14.5564 29.9484 15.0734 27.98C14.1083 29.2846 13.3379 30.572 13.4887 32.1406C13.59 33.197 14.2786 34.0363 15.3328 34.2319C15.7192 34.3034 16.0452 34.3267 16.3895 34.1714Z" fill="white"/>
<path d="M26.1155 59.1503C25.9806 59.1595 25.8432 59.1784 25.7187 59.1974L24.9965 59.3074L24.3263 59.4077L23.7189 59.5031L23.1659 59.6045C22.9431 59.6455 22.7752 59.681 22.564 59.7616C22.9791 60.1731 22.8759 60.6511 22.7966 61.1457L22.6916 61.7967L22.3961 63.8104L22.2972 64.4932L22.2075 65.1033L22.1049 65.7036L22.0079 66.3424L21.8107 67.5999L21.71 68.2473L21.6141 68.8886L21.5208 69.5066L21.4213 70.1081C21.3346 70.6327 21.0287 71.1321 20.5013 71.1981C19.803 71.2862 19.0772 71.5814 18.8843 71.1847C18.8233 71.0594 18.8745 70.8417 18.8983 70.6877L19.1218 69.245L20.179 62.0706C20.2828 61.3657 20.3396 60.7318 20.6484 60.0655C20.4385 59.9921 20.2285 60.0484 19.9874 60.0881L19.3299 60.1963L18.783 60.2837L17.6848 60.4708L17.0109 60.549C17.5316 61.0968 17.4907 61.6647 17.3991 62.2888L17.3088 62.9075L17.205 63.5781L17.1049 64.1808L16.9895 64.9163L16.8583 65.7629L16.7679 66.3767L16.6648 67.0106L16.5641 67.6623L16.2759 69.6124L16.0733 70.89L15.9903 71.4494L15.8627 72.3394C15.7565 73.0822 15.8853 74.0786 16.8137 74.2076C17.3167 74.2773 17.9162 74.2926 18.4448 74.2058C19.601 74.0151 20.718 73.8622 21.8296 73.5174C22.6091 73.276 23.3105 72.779 23.7183 72.0784C23.9857 71.6187 24.1108 71.1003 24.1889 70.5721L25.6552 60.6487C25.737 60.096 25.8743 59.6975 26.1155 59.1503Z" fill="var(--fill-0, white)"/>
<path d="M79.1002 66.5326C79.0776 66.5277 79.0147 66.5246 78.986 66.5301L77.6321 66.7661L67.9531 68.2797L66.446 68.5022L62.1492 69.16L61.3568 69.2676L50.3343 70.9359L49.6994 71.0184L44.1604 71.8859L41.1607 72.3877L35.5979 73.4062L29.0571 74.844C30.1492 74.9223 31.1497 74.6307 32.177 74.4913L35.5429 74.0334L36.3481 73.9301L37.2033 73.8274L38.1147 73.7308L38.9748 73.6409L39.8251 73.5401L40.7994 73.4416L44.7061 73.0412L46.1095 72.9495L46.8988 72.8523L48.1178 72.7472L49.0988 72.6512L49.9528 72.5571L50.9844 72.4507L51.8396 72.3584L52.6838 72.2643L53.6025 72.1597L56.7621 71.7538L58.3022 71.5203L61.5869 70.9542C67.3702 69.9572 73.4354 68.4821 78.9128 66.6677C79.1417 66.5919 79.1246 66.5375 79.1002 66.5326Z" fill="white"/>
<path d="M83.1449 49.9366L82.4692 50.0356L81.8911 50.1316C81.443 50.2068 81.1647 50.1817 81.0835 50.3009C80.9522 50.4941 81.4058 50.4024 81.3826 51.2925L81.3588 52.2034L81.2513 53.006L81.1549 54.0397L80.879 56.5486L80.7673 57.4558L80.6641 58.385L80.3021 56.7809L78.9165 50.8762C78.9 50.8065 78.9317 50.598 78.8688 50.5938C78.8188 50.5901 78.693 50.5919 78.6387 50.5999L77.7743 50.7283L77.2793 50.8065L76.1775 50.9826C76.0163 51.0082 75.846 51.0419 75.7074 51.1103C75.9833 51.6263 75.9638 51.924 75.9144 52.4057L75.8173 53.3514L75.6287 54.9818L75.5273 55.8138L75.4327 56.5559L75.3271 57.3751L75.2319 58.1307L75.13 59.0574L74.9377 60.6639L74.8467 61.3645L74.7411 62.1103L74.6856 62.8243C74.6618 63.1312 74.4774 64.2787 74.4035 64.6723C74.3498 64.9584 74.1734 65.2237 74.033 65.5465L77.0485 65.0006L77.1938 63.6417L77.286 62.8347L77.3873 61.9807L77.4862 61.1273L77.5802 60.2715L77.6767 59.4163L77.7725 58.6222L77.8714 57.8281L77.9746 56.9661L79.7802 64.5054L82.847 63.9877L82.8684 63.0786L82.9783 62.1048L83.0668 61.2453L83.1687 60.2825L83.3634 58.5592L83.4648 57.6398L83.5643 56.6659L83.654 55.771L83.7578 54.7116L83.8548 53.7946L84.0343 52.1428C84.1399 51.1733 84.1979 50.5993 84.5233 49.722L83.8652 49.8296L83.1449 49.9366Z" fill="var(--fill-0, white)"/>
<path d="M17.3851 58.3434L16.0379 58.5708L15.3768 58.6729L14.7602 58.7695L12.9198 59.0629L12.3222 59.1601L11.7002 59.2524L11.0281 59.36L10.4317 59.4597L9.93601 59.5416L8.8995 59.7115L8.28357 59.794L7.5535 59.9035L6.39124 60.0924L5.72465 60.1975L5.10568 60.2923L3.82927 60.4787C3.64553 60.5056 3.5033 60.5276 3.31528 60.6462L6.14585 62.6568C6.0903 63.1954 6.00728 63.7077 5.9206 64.2377L5.73747 65.3503L5.63614 65.9518L5.53664 66.6347L5.43714 67.2943L5.34924 67.8603L5.24607 68.4918L5.1539 69.0188L4.86639 70.8319L4.55079 72.8511L4.18209 75.1417C4.06672 75.8551 3.99042 76.5428 3.55518 77.1682C3.70046 77.1902 3.85918 77.1976 4.00751 77.1664L7.79218 76.3643L7.68291 75.6791L7.80378 74.8746L8.65838 69.3666L13.3617 68.5945L14.1175 68.479C14.1919 68.136 14.2188 67.8341 14.2719 67.4948L14.6192 65.2598L13.424 65.4481L12.8581 65.5386L12.2154 65.6425L11.6367 65.7256L10.5452 65.8956L9.99766 65.975L9.23707 66.1089L9.6723 63.0964L15.3401 62.1342C15.6093 62.0889 15.7473 62.0694 16.0501 62.1592C16.4078 60.7171 16.7972 59.6638 17.3851 58.3434Z" fill="var(--fill-0, white)"/>
<path d="M24.4398 34.8463C25.726 33.6273 26.9347 32.3913 28.0322 31.0054C28.3649 30.586 28.5633 30.1551 28.7086 29.6422L29.7805 25.8563L30.6107 23.3517L28.6976 25.8508L28.432 26.1919L27.5384 27.3253L26.9597 28.0167L26.4842 28.5828L26.1533 28.9862L25.4934 29.7333L24.6449 30.6484C24.1224 31.212 23.609 31.7671 23.0352 32.2776L22.2923 32.939L21.5012 33.6188C20.1009 34.8218 17.3424 36.635 15.4549 36.3177C15.063 36.2517 14.767 36.1521 14.3513 35.9289C14.1822 37.0849 14.6534 38.6585 15.8083 39.0393C17.6915 39.6604 20.0588 38.3088 21.5629 37.22C22.5853 36.4797 23.5211 35.718 24.4398 34.8463Z" fill="white"/>
<path d="M25.9873 39.7484C26.6172 38.0551 26.8919 36.4375 27.5536 34.8011C26.0233 36.5354 24.347 37.9842 22.4468 39.2166C21.0648 40.1122 18.7586 41.292 17.0573 41.1025C17.332 41.8569 17.7709 42.5941 18.4906 42.9713C18.8892 43.1803 19.4111 43.1339 19.9153 43.0471C22.1654 42.6595 24.4948 41.4454 25.9873 39.7484Z" fill="white"/>
<path d="M53.0653 44.4604C55.3282 43.0654 57.414 41.498 59.3754 39.724C63.6111 35.8923 66.9252 30.4179 67.4111 24.6893L67.4813 23.861C67.5899 22.5784 67.4391 20.0366 67.1864 18.7907L66.667 16.2336C66.637 16.0844 66.7744 15.8821 66.5088 15.8307C66.4857 16.2183 66.4826 16.5747 66.438 16.9378C65.8716 21.5276 64.5781 25.6148 62.0088 29.5181C59.9199 32.6914 57.1522 35.3647 54.1476 37.6651C52.5959 38.8529 50.9526 39.8395 49.2648 40.8347C47.1924 42.0574 45.0522 43.0183 42.8119 43.8882C42.6978 44.1468 42.6581 44.3767 42.5836 44.6469L41.4098 48.9139C38.6726 50.6959 35.4892 52.0493 32.3522 52.8978C32.5512 53.003 32.7496 52.94 32.9376 52.8856L35.3824 52.1795C40.8354 50.6042 48.2185 47.4492 53.0653 44.4604Z" fill="white"/>
<path d="M20.4098 44.9837C21.5122 45.9881 22.647 46.7847 23.9228 47.4987L24.7524 44.3449C24.8488 43.9787 24.9642 43.6535 25.1015 43.2659L24.0546 43.8112C22.9046 44.4097 21.71 44.7698 20.4098 44.9837Z" fill="white"/>
<path d="M38.6915 46.8647C38.998 45.3297 39.4003 43.8852 39.8007 42.3673L40.6553 39.1243C40.7548 38.7489 41.0386 38.4708 41.4055 38.2984C42.135 37.9554 42.8602 37.7244 43.5988 37.456L45.8757 36.6295C50.1426 35.0804 54.4577 33.6273 57.5447 30.1288C59.3888 28.0381 60.1805 25.8838 61.2152 23.3713L61.9965 21.475C59.7966 22.3492 57.6546 23.0754 55.4363 23.7558L47.1802 26.2879L42.7131 27.73L43.6012 24.2455C43.7691 23.5871 44.0835 23.0406 44.7275 22.7575L51.0497 20.8093L52.1637 20.4841L60.1524 18.0785C62.5728 17.3499 64.2478 15.2757 65.2758 13.0633C65.968 11.5729 66.5156 10.0593 67.0552 8.50963L67.4233 7.45267L67.6607 6.78573L61.2323 8.23271L57.812 9.02986L55.3136 9.63934C51.3574 10.6046 46.6931 11.9617 43.0555 13.7944C41.2083 14.7249 39.4601 15.7476 37.7478 16.8932C36.9421 17.4324 36.226 17.9875 35.5594 18.6813C35.0277 19.2345 34.5357 19.7811 34.1805 20.47C33.7666 21.2721 33.4003 22.0484 33.1708 22.9373L30.6919 32.5306L28.6579 40.5431L27.3162 45.7228L25.5356 52.0945C29.7445 50.9777 33.2019 49.8076 37.0672 47.8496C37.4951 47.6332 38.401 47.1924 38.6915 46.8647Z" fill="var(--fill-0, white)"/>
</g>
</svg>
