<svg preserveAspectRatio="none" width="100%" height="100%" overflow="visible" style="display: block;" viewBox="0 0 75.125 43.2299" fill="none" xmlns="http://www.w3.org/2000/svg">
<g id="Group">
<path id="Vector" d="M74.6243 32.6827C74.2958 32.0178 73.8347 31.4558 73.2569 31.0105C72.7266 30.6049 72.1211 30.312 71.4502 30.1379C70.9397 30.0053 70.3995 29.94 69.8474 29.94C69.2953 29.94 68.7927 30.0033 68.2782 30.1319C68.1179 30.1715 67.9596 30.219 67.8052 30.2724C70.1818 27.9057 71.6224 24.4863 72.4931 22.4204C72.5663 22.2443 72.6375 22.078 72.7028 21.9237C72.7543 21.803 72.7978 21.6783 72.8354 21.5517L72.9166 21.2647C72.9977 20.9818 73.0392 20.6889 73.0392 20.394C73.0392 19.654 72.7919 18.2648 71.1356 17.2694C70.9377 17.1507 70.728 17.0538 70.5083 16.9805C70.4113 16.9489 70.2708 16.9014 70.0967 16.8579C71.6264 15.999 72.4278 14.0459 72.4278 12.5341C72.4278 11.3626 71.9153 10.3376 71.1079 9.69048C71.1692 9.44312 71.1989 9.18785 71.1989 8.93258C71.1989 8.18458 70.9239 6.31853 68.3791 5.16486C67.3877 4.71567 66.2479 4.45644 65.2485 4.45644C63.7624 4.45644 62.4999 5.05009 61.7163 6.07909C60.5666 4.98479 58.8549 4.41488 57.4638 4.41488C55.6136 4.41488 54.1334 5.35879 53.5002 6.93791C53.2785 7.49001 52.4969 9.67663 52.4969 11.143C52.4969 11.2419 52.5008 11.3408 52.5088 11.4358C52.3089 11.5644 52.1229 11.7089 51.9507 11.8692C51.8973 11.8454 51.8458 11.8177 51.7924 11.796C50.9059 11.4081 49.8531 11.1924 48.935 11.0203C48.8598 11.0064 48.7945 10.9945 48.747 10.9846C48.5431 10.9431 48.3334 10.9233 48.1256 10.9233H48.0841C46.8809 10.9233 45.8084 11.4873 45.1237 12.3639C43.8968 11.4457 42.2346 11.0064 40.9206 11.0064C40.9068 11.0064 40.7841 11.0064 40.7386 11.0064C39.3494 11.0064 38.2235 11.4279 37.3845 11.9127C36.2387 11.1093 34.7506 10.7215 33.5633 10.7215C32.1247 10.7215 30.8958 11.2775 30.1082 12.2452C29.7699 11.9503 29.3484 11.6733 28.8279 11.4279C27.9216 11.0044 26.859 10.761 25.9091 10.761C25.5826 10.761 25.2818 10.7887 25.0048 10.8343C25.3333 9.91211 25.6697 9.00382 26.0219 8.12521C26.3465 7.35742 26.5028 6.64306 26.5028 5.94453C26.5028 4.85419 26.0912 2.16692 22.2879 0.795578C20.8849 0.288995 19.0802 8.34021e-05 17.3368 8.34021e-05C17.2682 8.34021e-05 16.9588 0.017893 16.4087 0.0535122C16.3731 0.055491 16.3395 0.0594487 16.3038 0.0614275C13.6166 0.324614 10.7749 2.13328 8.08174 5.29547C7.26844 6.23344 3.34439 10.8936 2.24613 14.8869C2.03044 15.5716 1.9216 16.3315 1.9216 17.1547C1.92754 19.1098 2.82989 20.7542 4.39911 21.6724C5.252 22.1889 6.34828 22.4619 7.57912 22.4619C8.05997 22.4619 8.54083 22.4224 8.99795 22.361C8.65363 23.4395 8.29348 24.516 7.90365 25.5826C6.39775 25.6439 4.96111 26.014 3.72829 26.665C3.68079 26.6887 3.63528 26.7145 3.58977 26.7422C1.37544 28.0541 0.000145575 30.4723 0.000145575 33.0547C0.000145575 34.7604 0.62546 36.3574 1.75934 37.5546C2.67356 38.5183 4.3536 39.67 7.15564 39.6719H7.1596C7.24271 39.6719 7.32384 39.668 7.40696 39.662C7.40696 39.662 8.05997 39.6106 8.07976 39.6086C8.97222 39.5235 10.6641 39.3593 12.3165 38.54C12.6252 38.7617 12.9358 38.9892 13.2426 39.2128C15.9417 41.1877 18.7339 43.2299 22.3373 43.2299H22.7212C22.7925 43.2299 22.8716 43.2279 22.9468 43.222C25.9131 43.0221 27.7712 40.2874 29.2593 38.075C29.5146 39.5077 30.2507 40.4081 30.8879 40.9364C31.8556 41.7398 33.126 42.1455 34.6675 42.1475H69.3467C69.8632 42.1475 70.3856 42.0841 70.8962 41.9615C71.5373 41.8071 72.131 41.5479 72.6652 41.1877C73.2747 40.7761 73.7754 40.2418 74.1573 39.5948C74.5867 38.8665 74.8024 38.0374 74.8024 37.1311C74.8024 36.8818 74.7866 36.6384 74.7529 36.4029C74.9904 35.9596 75.125 35.4511 75.125 34.9128C75.125 34.0975 74.9587 33.3476 74.6283 32.6787L74.6243 32.6827Z" fill="var(--fill-0, #1E1E20)"/>
<g id="Vector_2">
<path d="M31.5941 35.5124C31.6515 35.647 31.7346 35.7519 31.8454 35.831C31.9562 35.9102 32.0868 35.9656 32.2392 36.0012C32.3915 36.0368 32.5558 36.0527 32.7339 36.0527C32.8605 36.0527 32.9852 36.0368 33.1118 36.0052C33.2385 35.9735 33.3513 35.926 33.4542 35.8627C33.5571 35.7994 33.6402 35.7182 33.7055 35.6193C33.7708 35.5203 33.8044 35.3996 33.8044 35.2572C33.8044 35.1147 33.7629 35.0098 33.6778 34.9227C33.5927 34.8357 33.4858 34.7625 33.3513 34.6991C33.2167 34.6358 33.0643 34.5804 32.8942 34.5349C32.724 34.4894 32.5518 34.4379 32.3797 34.3865C32.2016 34.335 32.0274 34.2717 31.8612 34.1965C31.693 34.1233 31.5426 34.0283 31.4081 33.9135C31.2735 33.7988 31.1666 33.6563 31.0855 33.4881C31.0044 33.3199 30.9628 33.1161 30.9628 32.8746C30.9628 32.56 31.0281 32.2929 31.1587 32.0712C31.2893 31.8516 31.4595 31.6715 31.6693 31.533C31.879 31.3945 32.1165 31.2916 32.3816 31.2263C32.6468 31.161 32.9159 31.1273 33.189 31.1273C33.4779 31.1273 33.749 31.161 34.0043 31.2263C34.2596 31.2916 34.4812 31.3984 34.6731 31.5449C34.8651 31.6913 35.0175 31.8793 35.1303 32.1068C35.2431 32.3344 35.3004 32.6114 35.3004 32.936H34.129C34.1349 32.7777 34.1112 32.6471 34.0617 32.5382C34.0122 32.4314 33.941 32.3423 33.8499 32.275C33.7589 32.2078 33.6501 32.1583 33.5234 32.1286C33.3968 32.0989 33.2642 32.0851 33.1217 32.0851C33.007 32.0851 32.8902 32.0969 32.7715 32.1207C32.6527 32.1444 32.5479 32.184 32.4529 32.2394C32.3579 32.2948 32.2827 32.3661 32.2253 32.4551C32.1679 32.5442 32.1382 32.655 32.1382 32.7856C32.1382 32.9162 32.1897 33.0369 32.2926 33.1279C32.3955 33.219 32.5182 33.2961 32.6626 33.3555C32.8071 33.4149 32.9555 33.4624 33.1079 33.498C33.2603 33.5316 33.3829 33.5593 33.4779 33.5811C33.6976 33.6385 33.8994 33.7057 34.0835 33.7809C34.2675 33.8561 34.4258 33.9551 34.5604 34.0758C34.6949 34.1965 34.7978 34.3429 34.871 34.5171C34.9442 34.6892 34.9818 34.9029 34.9818 35.1543C34.9818 35.4907 34.9126 35.7756 34.7741 36.0111C34.6355 36.2466 34.4575 36.4385 34.2398 36.585C34.0221 36.7314 33.7767 36.8383 33.5037 36.9036C33.2306 36.9689 32.9614 37.0025 32.6943 37.0025C31.9067 37.0025 31.321 36.8422 30.9351 36.5236C30.5492 36.203 30.3573 35.7004 30.3573 35.0138H31.5288C31.5189 35.2136 31.5426 35.3798 31.6 35.5144L31.5941 35.5124Z" fill="white"/>
<path d="M40.3722 31.2619C40.6552 31.2619 40.9164 31.2896 41.1558 31.345C41.3953 31.4004 41.6011 31.4914 41.7732 31.6161C41.9474 31.7427 42.0819 31.909 42.1789 32.1187C42.2759 32.3285 42.3253 32.5877 42.3253 32.8984C42.3253 33.2091 42.266 33.4841 42.1492 33.7275C42.0325 33.9709 41.8702 34.1767 41.6703 34.3449C41.4685 34.5131 41.237 34.6417 40.9738 34.7308C40.7106 34.8198 40.4336 34.8654 40.1407 34.8654H38.615L38.1896 36.8798H36.9627L38.1262 31.2619H40.3762H40.3722ZM40.0734 33.9036C40.388 33.9036 40.6354 33.8245 40.8175 33.6642C40.9975 33.5039 41.0886 33.2566 41.0886 32.9201C41.0886 32.7777 41.0628 32.6629 41.0134 32.5699C40.9639 32.4789 40.8966 32.4076 40.8135 32.3582C40.7304 32.3087 40.6374 32.2731 40.5345 32.2513C40.4316 32.2295 40.3267 32.2196 40.2159 32.2196H39.1612L38.8149 33.9036H40.0734Z" fill="white"/>
<path d="M44.3062 33.2288C44.4467 32.8192 44.6505 32.4591 44.9156 32.1464C45.1808 31.8338 45.5034 31.5864 45.8833 31.4024C46.2632 31.2183 46.6907 31.1273 47.1616 31.1273C47.5396 31.1273 47.8819 31.1788 48.1926 31.2817C48.5013 31.3846 48.7645 31.5369 48.9802 31.7427C49.1959 31.9466 49.3621 32.1998 49.4789 32.4987C49.5976 32.7975 49.655 33.1438 49.655 33.5375C49.655 33.9986 49.5877 34.4399 49.4511 34.8594C49.3146 35.2789 49.1167 35.649 48.8575 35.9695C48.5983 36.2901 48.2777 36.5434 47.8978 36.7294C47.5178 36.9154 47.0805 37.0084 46.5878 37.0084C45.7903 37.0084 45.1749 36.7967 44.7435 36.3713C44.3101 35.9458 44.0944 35.3324 44.0944 34.5309C44.0944 34.0738 44.1657 33.6424 44.3062 33.2328V33.2288ZM45.4044 35.0771C45.4539 35.2512 45.5311 35.4036 45.632 35.5382C45.7349 35.6727 45.8655 35.7776 46.0258 35.8568C46.1861 35.9359 46.378 35.9755 46.6036 35.9755C46.9083 35.9755 47.1735 35.9042 47.3991 35.7598C47.6247 35.6153 47.8127 35.4293 47.965 35.2018C48.1174 34.9742 48.2302 34.7209 48.3074 34.4419C48.3826 34.1629 48.4221 33.8918 48.4221 33.6246C48.4221 33.4248 48.4004 33.2368 48.3549 33.0626C48.3113 32.8865 48.2381 32.7341 48.1392 32.6016C48.0402 32.4709 47.9116 32.3661 47.7533 32.2869C47.595 32.2078 47.4011 32.1682 47.1715 32.1682C46.8569 32.1682 46.5818 32.2394 46.3503 32.3839C46.1168 32.5283 45.9249 32.7143 45.7764 32.9419C45.628 33.1695 45.5152 33.4248 45.442 33.7057C45.3688 33.9867 45.3312 34.2598 45.3312 34.527C45.3312 34.7209 45.3549 34.9049 45.4064 35.0771H45.4044Z" fill="white"/>
<path d="M55.3283 31.2619C55.5796 31.2559 55.8092 31.2797 56.017 31.3292C56.2247 31.3786 56.4008 31.4637 56.5473 31.5805C56.6937 31.6992 56.8065 31.8516 56.8857 32.0415C56.9648 32.2295 57.0044 32.4611 57.0044 32.7341C57.0044 32.9221 56.9727 33.1042 56.9094 33.2763C56.8461 33.4505 56.757 33.6028 56.6423 33.7374C56.5275 33.872 56.391 33.9828 56.2326 34.0718C56.0763 34.1609 55.9022 34.2183 55.7142 34.246V34.2618C55.9457 34.335 56.1001 34.4617 56.1792 34.6437C56.2584 34.8238 56.2979 35.0276 56.2979 35.2532C56.2979 35.3798 56.292 35.5302 56.2782 35.7064C56.2643 35.8825 56.2584 36.0566 56.2584 36.2288C56.2584 36.3554 56.2643 36.4742 56.2742 36.5869C56.2841 36.6997 56.3059 36.7987 56.3375 36.8818H55.1344C55.1186 36.8145 55.1047 36.7492 55.0948 36.6898C55.0849 36.6305 55.079 36.5672 55.079 36.5058C55.079 36.3178 55.0889 36.1259 55.1106 35.9359C55.1324 35.744 55.1423 35.554 55.1423 35.366C55.1423 35.2295 55.1225 35.1186 55.0829 35.0316C55.0434 34.9445 54.9879 34.8752 54.9187 34.8238C54.8494 34.7723 54.7624 34.7367 54.6634 34.7169C54.5645 34.6991 54.4537 34.6892 54.333 34.6892H53.1694L52.7044 36.8838H51.4775L52.649 31.2658H55.3323L55.3283 31.2619ZM54.4952 33.8027C54.6634 33.8027 54.8237 33.7849 54.9741 33.7513C55.1265 33.7176 55.261 33.6642 55.3798 33.5949C55.4985 33.5257 55.5915 33.4327 55.6627 33.3199C55.734 33.2071 55.7696 33.0725 55.7696 32.9142C55.7696 32.7559 55.7439 32.6411 55.6944 32.5481C55.6449 32.4571 55.5776 32.3878 55.4945 32.3403C55.4114 32.2929 55.3145 32.2612 55.2036 32.2454C55.0928 32.2295 54.9781 32.2216 54.8573 32.2216H53.6859L53.3554 33.8027H54.4952Z" fill="white"/>
<path d="M59.0347 32.2988L59.2543 31.2599H63.9442L63.7245 32.2988H62.0406L61.0808 36.8778H59.8381L60.7978 32.2988H59.0347Z" fill="white"/>
<path d="M66.2713 35.5124C66.3287 35.647 66.4138 35.7519 66.5226 35.831C66.6334 35.9102 66.764 35.9656 66.9164 36.0012C67.0688 36.0368 67.233 36.0527 67.4111 36.0527C67.5378 36.0527 67.6624 36.0368 67.7891 36.0052C67.9157 35.9735 68.0285 35.926 68.1314 35.8627C68.2343 35.7994 68.3174 35.7182 68.3827 35.6193C68.448 35.5203 68.4817 35.3996 68.4817 35.2572C68.4817 35.1147 68.4401 35.0098 68.355 34.9227C68.2699 34.8357 68.1631 34.7625 68.0285 34.6991C67.894 34.6358 67.7416 34.5804 67.5714 34.5349C67.4012 34.4874 67.2291 34.4379 67.0569 34.3865C66.8788 34.335 66.7047 34.2717 66.5385 34.1965C66.3703 34.1233 66.2199 34.0283 66.0853 33.9135C65.9507 33.7988 65.8439 33.6563 65.7628 33.4881C65.6816 33.3199 65.6401 33.1161 65.6401 32.8746C65.6401 32.56 65.7054 32.2929 65.836 32.0712C65.9666 31.8516 66.1368 31.6715 66.3465 31.533C66.5563 31.3945 66.7937 31.2916 67.0589 31.2263C67.3241 31.161 67.5932 31.1273 67.8663 31.1273C68.1552 31.1273 68.4263 31.161 68.6815 31.2263C68.9368 31.2916 69.1584 31.3984 69.3504 31.5449C69.5423 31.6913 69.6947 31.8793 69.8075 32.1068C69.9203 32.3344 69.9757 32.6114 69.9757 32.936H68.8042C68.8102 32.7777 68.7864 32.6471 68.737 32.5382C68.6875 32.4294 68.6162 32.3423 68.5252 32.275C68.4342 32.2078 68.3254 32.1583 68.1987 32.1286C68.0721 32.0989 67.9395 32.0851 67.797 32.0851C67.6822 32.0851 67.5655 32.0969 67.4467 32.1207C67.328 32.1444 67.2231 32.184 67.1282 32.2394C67.0332 32.2948 66.958 32.3661 66.9006 32.4551C66.8432 32.5442 66.8135 32.655 66.8135 32.7856C66.8135 32.9162 66.865 33.0369 66.9679 33.1279C67.0708 33.219 67.1935 33.2961 67.3379 33.3555C67.4824 33.4149 67.6308 33.4624 67.7832 33.498C67.9355 33.5316 68.0582 33.5593 68.1532 33.5811C68.3728 33.6385 68.5747 33.7057 68.7587 33.7809C68.9428 33.8561 69.1011 33.9551 69.2356 34.0758C69.3702 34.1965 69.4731 34.3429 69.5463 34.5171C69.6195 34.6892 69.6571 34.9029 69.6571 35.1543C69.6571 35.4907 69.5879 35.7756 69.4493 36.0111C69.3108 36.2466 69.1327 36.4385 68.915 36.585C68.6974 36.7314 68.452 36.8383 68.1789 36.9036C67.9058 36.9689 67.6367 37.0025 67.3696 37.0025C66.582 37.0025 65.9963 36.8422 65.6104 36.5236C65.2245 36.203 65.0326 35.7004 65.0326 35.0138H66.204C66.1941 35.2136 66.2179 35.3798 66.2753 35.5144L66.2713 35.5124Z" fill="white"/>
</g>
<g id="Vector_3">
<path d="M55.8913 10.2702C56.2179 10.2702 56.5048 10.1891 56.5879 9.98329C56.9144 9.28674 57.5694 7.69179 57.7752 7.32372C57.8563 7.20103 57.8563 7.1199 57.8563 6.99721C57.8563 6.30066 56.5048 5.60609 55.4817 5.60609C55.0305 5.60609 54.6229 5.72878 54.4587 6.1384C54.2133 6.71226 53.681 8.4299 53.681 9.16801C53.681 9.74187 55.0325 10.2722 55.8913 10.2722V10.2702Z" fill="var(--fill-0, white)"/>
<path d="M67.523 18.0055C67.4003 17.964 67.2776 17.9244 67.1549 17.9244C66.9511 17.9244 66.7869 17.9659 66.7037 18.1282C65.9261 19.8874 63.1438 24.1459 61.6696 24.1459C61.26 24.1459 61.0957 23.8174 61.0957 23.3682L61.1373 22.4678C61.3826 19.1117 62.9796 15.3044 64.0442 12.1541H66.4188C66.8284 12.1541 67.2776 11.131 67.2776 10.5572C67.2776 10.3118 67.1965 10.1475 67.0322 10.1475L64.7803 10.0664C65.2315 9.04334 65.8449 8.05985 66.0072 7.1199L66.0487 6.95566C66.0487 6.34222 64.4122 5.64566 63.2665 5.64566C62.7342 5.64566 62.3246 5.80991 62.1623 6.17797C61.7527 7.1199 61.2204 8.38834 60.6485 9.94371C59.6254 9.90216 58.6835 9.90216 57.8662 9.90216C57.4566 9.90216 57.1301 10.8441 57.1301 11.416C57.1301 11.6613 57.2112 11.8671 57.3755 11.8671L59.9124 11.9087C59.2435 13.7372 58.452 16.2463 57.8722 18.7674C56.6512 20.9025 54.4883 24.1478 53.1922 24.1478C52.741 24.1478 52.5788 23.7382 52.5788 23.2475L52.6599 22.4698C52.9053 20.1367 54.706 15.6744 55.6064 13.4641L55.6479 13.2603C55.6479 12.5637 54.2153 11.9087 53.1111 11.9087C52.6203 11.9087 52.2107 12.0314 52.0069 12.3599C50.6553 15.9614 49.1831 19.1552 48.6923 22.919C48.6112 23.5324 48.5281 24.1478 48.5281 24.7613C48.5281 26.2751 49.0188 27.5455 50.8196 27.7078L51.3519 27.7493C53.9501 27.7493 55.7568 25.6933 57.1123 23.3326C57.0707 23.8154 57.049 24.2804 57.049 24.7217V24.886C57.049 26.6867 57.7851 27.7513 59.8728 27.7513H59.9539C64.252 27.7513 66.6246 21.4883 67.8119 18.706L67.893 18.4191C67.893 18.2549 67.7288 18.1322 67.525 18.0095L67.523 18.0055Z" fill="var(--fill-0, white)"/>
<path d="M49.1296 13.5452C49.1296 13.1356 49.0485 12.9318 48.5558 12.726C47.8196 12.3995 46.5492 12.1937 46.1416 12.1125H46.1C45.8131 12.1125 45.5262 12.3579 45.5262 12.6448L45.5677 12.8091C45.6093 12.9318 45.6489 13.096 45.6489 13.3414C45.6489 15.5933 43.1516 21.9375 41.1866 23.942C40.8601 24.2686 40.5731 24.4744 40.3673 24.4744C39.9993 24.4744 39.7539 24.0647 39.7123 23.0417V22.4678C39.7123 19.644 40.5711 16.6144 41.6358 13.7906L41.6773 13.5868C41.6773 12.8506 40.0804 12.1956 38.9346 12.1956C38.9208 12.1956 38.9069 12.1956 38.8931 12.1956C37.3812 12.1382 36.4175 13.0307 36.1366 13.3434C35.8496 13.662 36.0435 14.4871 36.1524 14.7048C36.2296 14.8572 37.2962 14.1586 37.2882 14.6474C36.9795 15.904 36.6985 17.2694 36.4927 18.6506C35.155 21.0589 33.0773 24.1459 31.7435 24.1459C31.2528 24.1459 31.1301 23.5324 31.1301 22.8774C31.2112 20.4217 33.5047 15.9594 34.037 13.2583V13.1771C34.037 12.5221 32.6043 11.9087 31.5813 11.9087C31.0489 11.9087 30.6393 12.0729 30.4751 12.441C30.107 13.3414 29.2066 15.4291 28.0193 17.7206C26.7509 20.1348 25.2351 22.8379 24.1725 22.8379H24.0498C23.7628 22.8379 23.6402 22.6736 23.6402 22.3471L23.6817 22.0602C23.8855 19.9725 25.8505 15.7971 26.3413 13.2603V13.1791C26.3413 12.5241 24.9086 11.9503 23.9271 11.9503C23.4324 11.9503 23.0445 12.0591 22.8625 12.3718H22.8585C22.8585 12.3718 18.79 19.9863 18.5822 20.3683C18.3745 20.7502 19.3698 20.9303 19.8052 20.3683C19.9199 20.2198 20.1178 19.8676 20.3454 19.4323C20.1475 20.1189 19.9734 20.7878 19.8348 21.4052C19.5479 22.6321 19.3837 23.7798 19.3837 24.7613C19.3837 25.4974 19.5063 26.1524 19.7517 26.6036C20.2425 27.4228 21.2655 27.6682 22.2886 27.6682H23.1078C24.7443 27.6267 26.5055 24.4348 27.2001 23.0021C27.1585 23.4929 27.0774 24.0667 27.0774 24.599C27.0774 26.1128 27.487 27.6286 29.4105 27.7098L30.1881 27.7513C32.8477 27.7513 34.8087 24.9948 36.1563 22.4124C36.1544 22.541 36.1524 22.6716 36.1524 22.7983C36.1524 24.4763 36.3562 25.9902 36.8489 27.1775C37.2586 28.1194 38.4043 28.2817 39.4689 28.2817H39.8785C40.6147 28.2401 40.7374 27.9947 41.4339 27.5455C44.0539 25.909 48.9238 17.026 49.1296 13.7926V13.5452Z" fill="var(--fill-0, white)"/>
<path d="M20.3533 37.9879C17.8164 37.9879 15.5665 36.3415 13.1859 34.6001C12.2539 33.9194 11.2922 33.2149 10.3186 32.6272C10.3027 32.6173 10.2849 32.6133 10.2671 32.6133C10.2394 32.6133 10.2117 32.6252 10.1919 32.647C9.09763 33.9016 7.42551 34.2221 5.78109 34.3804L5.16765 34.4279C2.30228 34.424 1.2812 32.6193 1.2812 31.0758C1.2812 29.6629 2.06284 28.2876 3.26994 27.5712C4.14063 27.1141 5.23889 26.8589 6.36287 26.8589C7.006 26.8589 7.54028 26.9182 7.9974 27.0389C8.00531 27.0409 8.01521 27.0429 8.02312 27.0429C8.0627 27.0429 8.09832 27.0192 8.11415 26.9816C9.62796 23.2871 10.7223 19.4877 11.7829 15.813C12.8812 12.0037 14.0151 8.06975 15.6357 4.11998C15.6456 4.09425 15.6456 4.06655 15.6357 4.04082C15.6239 4.01708 15.6021 3.99729 15.5764 3.98739L15.4774 3.95375C15.4675 3.9498 15.4557 3.94782 15.4458 3.94782H15.4418C14.7175 3.9775 13.2354 5.61994 11.4821 8.34481C9.92281 10.7669 8.63458 13.2662 8.41889 14.2853L8.32193 15.063C8.32786 15.3163 8.39119 15.4449 8.5119 15.4607C8.75134 15.528 8.85226 15.8011 8.85226 16.0267C8.85226 16.2839 8.72957 16.6005 8.45847 16.6916C7.90835 16.9033 6.69532 17.216 5.5931 17.216C4.95789 17.216 4.42361 17.0992 4.08918 16.8875C3.50146 16.553 3.20464 15.9732 3.20266 15.1619C3.20266 14.6672 3.26796 14.2081 3.39263 13.8361C4.03575 11.41 6.45786 7.87384 8.57324 5.44382C10.6807 2.96631 12.8337 1.50592 14.6384 1.32981C14.6384 1.32981 15.3468 1.28429 15.3587 1.28429C16.7122 1.28429 18.1508 1.50988 19.1977 1.88784C20.5433 2.37266 21.2537 3.09098 21.2537 3.96365C21.2537 4.2209 21.1745 4.53553 21.0182 4.89964C19.7121 8.16473 18.6 11.7187 17.5235 15.154C16.0671 19.8063 14.5612 24.6168 12.5745 28.7091C12.5507 28.7566 12.5705 28.8159 12.618 28.8397C13.4234 29.2552 14.2367 29.7183 15.0223 30.1655C17.5216 31.5883 20.1079 33.0606 22.5656 33.0606C23.1633 33.0606 23.7371 32.9715 24.3743 32.7815L24.402 32.7736H24.5366C24.7918 32.7736 25.0511 33.0823 25.0511 33.3851C25.0511 33.5117 25.0095 33.5988 24.9699 33.676L24.96 33.6938C24.8591 33.8402 24.7602 33.9886 24.6593 34.137L24.59 34.2399C23.4937 35.8685 22.1283 37.8929 20.7431 37.9859H20.3533V37.9879ZM5.21118 30.1497C4.9757 30.1497 4.77188 30.1972 4.56608 30.2961C4.32466 30.397 4.18812 30.591 4.18812 30.8363C4.18812 31.1292 4.4335 31.3785 4.7699 31.426H4.92425C5.66632 31.426 5.87212 30.9373 6.07198 30.4623C6.08188 30.4386 6.08188 30.4109 6.07198 30.3871C6.06209 30.3634 6.0423 30.3436 6.01855 30.3337C5.71183 30.2051 5.47041 30.1517 5.21118 30.1517V30.1497Z" fill="var(--fill-0, white)"/>
</g>
</g>
</svg>
