<svg preserveAspectRatio="none" width="100%" height="100%" overflow="visible" style="display: block;" viewBox="0 0 75.0306 63.6445" fill="none" xmlns="http://www.w3.org/2000/svg">
<g id="Group 2609">
<path id="Vector" d="M11.2601 9.43978C11.5484 9.71105 11.6902 9.84791 11.9761 10.1216C10.9301 10.41 10.4096 10.564 9.37097 10.8841C9.46384 10.5004 9.51272 10.3074 9.61536 9.92367L8.19793 5.23147C7.89489 4.96998 7.74337 4.83801 7.43789 4.57896C8.54495 4.23683 9.10215 4.07553 10.219 3.76516C10.1017 4.14885 10.043 4.34191 9.93061 4.72804C10.4634 6.61225 10.7298 7.55558 11.265 9.44223L11.2601 9.43978Z" fill="var(--fill-0, #1E1E20)"/>
<path id="Vector_2" d="M17.4334 7.90481C17.7096 8.19563 17.844 8.33982 18.1152 8.63797C17.0595 8.85791 16.5292 8.97277 15.4783 9.22205C15.5956 8.84569 15.6567 8.65752 15.7765 8.28361C15.7154 8.01723 15.6836 7.88526 15.6249 7.62133C14.75 6.88817 14.3053 6.5387 13.401 5.83487C13.6845 6.9737 13.8287 7.54556 14.1122 8.68196L14.8087 9.38334C13.7578 9.64239 13.2324 9.77925 12.1865 10.0652C12.294 9.68638 12.3453 9.49331 12.4528 9.11452C11.9445 7.22053 11.6903 6.27476 11.1796 4.38078C10.8863 4.10951 10.7397 3.97266 10.4464 3.70139C11.5633 3.39591 12.1229 3.25172 13.2446 2.96823C13.12 3.3397 13.0565 3.52543 12.9367 3.89934C13.8385 4.56895 14.2857 4.91109 15.1631 5.61004C14.97 4.77179 14.8698 4.35145 14.6743 3.51077C14.3908 3.22728 14.2466 3.08798 13.9607 2.80694C15.0849 2.54056 15.6469 2.41592 16.776 2.18131C16.6294 2.55767 16.5585 2.74584 16.4168 3.1222L17.4334 7.90481Z" fill="var(--fill-0, #1E1E20)"/>
<path id="Vector_3" d="M22.3687 1.16532C22.4444 1.6712 22.4835 1.92292 22.5593 2.42879C22.1267 2.32126 21.9092 2.2675 21.4718 2.16486C21.1687 2.21374 21.0172 2.23817 20.7166 2.29194C21.0441 4.22502 21.2054 5.19035 21.5329 7.12343C21.7919 7.42158 21.9239 7.5731 22.1805 7.87614C21.1174 8.04965 20.5846 8.14496 19.5265 8.3478C19.6584 7.97633 19.7269 7.7906 19.8637 7.41914C19.502 5.49338 19.3236 4.52806 18.9619 2.60231L18.2288 2.74405C17.85 2.98844 17.6594 3.11796 17.283 3.37212L17.0264 2.11842C19.1501 1.68098 20.2205 1.4928 22.3687 1.16532Z" fill="var(--fill-0, #1E1E20)"/>
<path id="Vector_4" d="M26.8826 3.90729L26.6137 1.46344C25.9808 1.53187 25.6655 1.57097 25.0326 1.64918C25.1548 2.62672 25.2158 3.11549 25.338 4.09303C25.9563 4.01238 26.2618 3.97572 26.8826 3.90729ZM29.3264 6.97433C28.4466 7.05253 28.0067 7.09652 27.1269 7.19183C26.7139 6.25339 26.5038 5.78661 26.0761 4.85306L25.4358 4.93127L25.7413 7.35801C24.8737 7.46798 24.4387 7.52664 23.5711 7.65372C23.7202 7.28958 23.7935 7.10874 23.9475 6.74216L23.251 1.89356C22.9944 1.58808 22.8624 1.43412 22.6009 1.12864C24.5169 0.845149 25.4773 0.725399 27.4031 0.529891C27.7917 0.830485 27.9872 0.982005 28.3806 1.28749C28.4735 2.26503 28.5175 2.7538 28.6079 3.73134C28.2951 4.10036 28.1411 4.28609 27.8308 4.65755C28.0996 5.2734 28.2316 5.58133 28.4931 6.19718C28.8327 6.50511 29.0014 6.65907 29.3386 6.97188L29.3264 6.97433Z" fill="var(--fill-0, #1E1E20)"/>
<path id="Vector_5" d="M32.7814 5.89126C32.6788 3.93618 32.6274 2.95864 32.537 1.00356C31.8918 1.03533 31.5595 1.05488 30.9265 1.09887L31.2564 5.98657C31.8674 5.94503 32.1753 5.92792 32.7912 5.89615L32.7814 5.89126ZM34.299 0.920472C34.3675 2.87555 34.3992 3.85309 34.4677 5.82039C34.1426 6.16986 33.9789 6.34582 33.6612 6.70018C32.3855 6.75639 31.7452 6.79304 30.4695 6.8908C30.1103 6.57554 29.9294 6.42158 29.5653 6.11121C29.3991 4.15613 29.3209 3.17859 29.1498 1.22351C29.4749 0.856932 29.6386 0.673643 29.9685 0.307065C31.3322 0.20198 32.014 0.160433 33.3899 0.101781C33.7614 0.426813 33.9471 0.590551 34.3137 0.915584L34.299 0.920472Z" fill="var(--fill-0, #1E1E20)"/>
<path id="Vector_6" d="M38.6058 5.75677C38.6204 3.80169 38.6278 2.82415 38.6449 0.869069C37.9973 0.869069 37.6673 0.869069 37.0319 0.869069C37.0442 2.82415 37.0539 3.80169 37.0686 5.75677C37.682 5.75188 37.9899 5.75188 38.6058 5.75677ZM40.4167 0.886176C40.3678 2.84126 40.3409 3.8188 40.292 5.77388C39.945 6.1038 39.7739 6.26265 39.4343 6.60479C37.6209 6.57302 36.7142 6.58035 34.9009 6.63411L35.3897 5.77388L35.2675 0.886176C35.0475 0.551368 34.9351 0.382744 34.7127 0.0528238C36.6507 -0.00582863 37.6185 -0.01316 39.5564 0.01861C39.9084 0.363193 40.0819 0.536705 40.4289 0.886176H40.4167Z" fill="var(--fill-0, #1E1E20)"/>
<path id="Vector_7" d="M47.1468 0.424615L46.5285 1.22376L46.1131 6.11146C45.7465 6.42183 45.5656 6.57579 45.204 6.89104C43.9331 6.79329 43.2977 6.75419 42.0269 6.70042C41.7019 6.34851 41.5382 6.17011 41.2083 5.81819C41.2742 3.86311 41.3085 2.88557 41.3769 0.930492C41.1765 0.583466 41.0763 0.412396 40.8734 0.0678135C42.0196 0.0995835 42.5841 0.124022 43.7376 0.190006L43.1584 1.00381C43.0583 2.95889 43.0069 3.93643 42.9018 5.89151C43.5104 5.92084 43.8158 5.94039 44.4244 5.98193C44.5563 4.02685 44.6223 3.04931 44.7567 1.09423C44.5685 0.742317 44.4757 0.563915 44.2802 0.214444C45.4263 0.285316 45.9909 0.329307 47.1419 0.431949L47.1468 0.424615Z" fill="var(--fill-0, #1E1E20)"/>
<path id="Vector_8" d="M50.85 2.86132C50.9087 2.39699 50.9405 2.16482 50.9991 1.70294C50.3637 1.61985 50.046 1.58074 49.4082 1.50987C49.1858 3.46495 49.0758 4.44249 48.8534 6.37802C49.4619 6.44645 49.765 6.48311 50.371 6.56131C50.4297 6.10187 50.459 5.87215 50.5201 5.4127C51.1971 5.50068 51.5392 5.54711 52.2161 5.65709L52.0451 6.80325C51.6614 7.08918 51.4708 7.23337 51.092 7.52174C49.8236 7.34579 49.1858 7.27736 47.915 7.13562C47.6193 6.76415 47.4677 6.57842 47.1623 6.20695C47.3504 4.25187 47.4433 3.27433 47.6315 1.31925C48.0176 1.01621 48.2107 0.862251 48.609 0.564101C49.9678 0.705845 50.6496 0.788936 52.0035 0.977113C52.3139 1.36324 52.4654 1.55386 52.766 1.95465C52.7 2.41654 52.6658 2.64626 52.5974 3.1106C51.9033 3.00551 51.5539 2.95908 50.8574 2.86621L50.85 2.86132Z" fill="var(--fill-0, #1E1E20)"/>
<path id="Vector_9" d="M54.6309 7.21099C54.7702 7.58001 54.841 7.7633 54.9779 8.13477C53.9173 7.94415 53.3869 7.85617 52.3214 7.69487C52.5658 7.38939 52.6953 7.23787 52.9495 6.93484L53.7071 2.09113C53.5507 1.72455 53.4627 1.53882 53.3087 1.17224C54.4476 1.34331 55.0194 1.43862 56.1485 1.64146C55.8772 1.93716 55.7428 2.08624 55.474 2.37461L54.6309 7.20366V7.21099Z" fill="var(--fill-0, #1E1E20)"/>
<path id="Vector_10" d="M60.8559 8.50859C60.9781 8.88738 61.0392 9.07556 61.1565 9.45436C60.1057 9.19531 59.5802 9.07067 58.5245 8.84095C58.7909 8.55258 58.9277 8.40839 59.199 8.12246C59.2601 7.85852 59.2894 7.72411 59.3481 7.46017C58.874 6.42887 58.6296 5.91566 58.1261 4.88924C57.8818 6.03785 57.7718 6.6146 57.5347 7.76321C57.6643 8.13712 57.7278 8.32285 57.8524 8.69676C56.7967 8.47437 56.2664 8.36929 55.2057 8.17378L55.8558 7.44062C56.2175 5.51487 56.3983 4.55199 56.7625 2.62379C56.6158 2.24988 56.5425 2.06415 56.391 1.69024C57.5225 1.89797 58.0895 2.00794 59.2186 2.24744C58.9424 2.52848 58.808 2.67023 58.5367 2.95127C59.0597 3.94836 59.3114 4.44691 59.8026 5.45133C59.9932 4.6082 60.0861 4.18786 60.2767 3.34717C60.1423 2.96838 60.0739 2.77776 59.937 2.4014C61.0637 2.64579 61.6282 2.77776 62.7499 3.05636C62.4542 3.33251 62.3076 3.47181 62.0168 3.75041C61.5549 5.65417 61.3252 6.60727 60.8608 8.51103L60.8559 8.50859Z" fill="var(--fill-0, #1E1E20)"/>
<path id="Vector_11" d="M65.9243 5.99409L66.2469 4.87236C65.6262 4.69151 65.3133 4.60598 64.6926 4.43491C64.177 6.32889 63.9228 7.27222 63.4071 9.1662C64.0034 9.3275 64.2967 9.41059 64.8906 9.58166C65.1154 8.80451 65.2254 8.4135 65.4502 7.62658C65.3451 7.24289 65.2913 7.04983 65.1814 6.66614C66.0636 6.91053 66.5059 7.04739 67.3808 7.31621C67.0436 8.41594 66.875 8.96581 66.5353 10.0655C66.1076 10.2904 65.8974 10.4003 65.4771 10.6301C64.2405 10.261 63.6198 10.0875 62.3709 9.76006C62.1266 9.34461 62.0068 9.13932 61.7624 8.72631C62.2512 6.825 62.4809 5.87434 62.9624 3.97547C63.3925 3.73108 63.6075 3.61378 64.0425 3.37672C65.3769 3.72619 66.0392 3.91193 67.3613 4.30539C67.6057 4.73306 67.7352 4.94812 67.9747 5.37824L67.6326 6.49508C66.9507 6.28246 66.6086 6.18226 65.9219 5.98431L65.9243 5.99409Z" fill="var(--fill-0, #1E1E20)"/>
<path id="Vector_12" d="M17.7179 54.9248L13.7051 43.556H11.6987L7.68835 54.9248L5.71372 43.556H0L1.76202 46.1392L4.40626 61.0613L3.5558 63.6445H9.81695L9.38927 61.0613L12.7031 51.7014L16.017 61.0613L15.6211 63.6445H21.8822L21.0293 61.0613L23.6443 46.1392L25.4063 43.556H19.7243L17.7179 54.9248Z" fill="var(--fill-0, #1E1E20)"/>
<path id="Vector_13" d="M32.7291 43.556H25.7104L27.0179 46.1392V61.0613L25.7104 63.6445H32.7291L31.4241 61.0613V46.1392L32.7291 43.556Z" fill="var(--fill-0, #1E1E20)"/>
<path id="Vector_14" d="M42.9428 54.8931H39.0327V46.1416H42.9428V54.8931ZM33.3385 43.556L34.646 46.1392V61.0613L33.3385 63.6445H40.3279L39.0229 61.0613V57.4762H45.1325L47.3198 54.8931V46.1416L45.1325 43.5585H33.3385V43.556Z" fill="var(--fill-0, #1E1E20)"/>
<path id="Vector_15" d="M49.6887 46.1392V61.0613L48.3812 63.6445H60.7813V59.7563L58.1982 61.0613H54.0656V54.8931H58.3204L59.5056 52.3099H54.0656V46.1392H58.1982L60.7813 47.4466V43.556H48.3812L49.6887 46.1392Z" fill="var(--fill-0, #1E1E20)"/>
<path id="Vector_16" d="M75.0306 49.695V46.1392L72.8434 43.556H64.4878L62.2981 46.1392V52.3099L64.4878 54.8931H70.6243V61.0613H66.6726V57.5373H62.2981V61.0613L64.4878 63.6445H72.8434L75.0306 61.0613V54.8931L72.8434 52.3099H66.6726V46.1392H70.6243V49.695H75.0306Z" fill="var(--fill-0, #1E1E20)"/>
<path id="Vector_17" d="M10.229 39.4183H17.2502L15.9428 36.8352V28.9318L20.9575 37.3508L25.943 28.9318V36.8352L24.638 39.4183H31.6567L30.3248 36.8352V21.913L30.7647 21.065C30.5032 20.7766 30.2491 20.4834 30.0071 20.1828C29.8671 20.4299 29.7145 20.6697 29.5501 20.9013C29.032 21.6467 28.7876 21.8471 28.5237 21.9595C28.2902 22.0506 28.0412 22.0954 27.7905 22.0914C27.0183 22.0914 26.4367 21.7517 26.2314 21.1823C26.0456 20.6691 26.1458 20.0875 26.4195 19.3274H24.6453L25.8672 21.698L20.9795 29.7211L16.0918 21.698L17.2771 19.3274H10.2315L11.5683 21.9106V36.8327L10.2315 39.4159L10.229 39.4183Z" fill="var(--fill-0, #1E1E20)"/>
<path id="Vector_18" d="M38.8795 32.3655L40.6733 22.1526L42.4964 32.3655H38.8795ZM43.9701 20.9722C43.712 20.9618 43.4594 20.8952 43.2297 20.777C43.0001 20.6588 42.7991 20.4919 42.6406 20.288C42.5906 20.2257 42.5456 20.1595 42.5062 20.09C41.9392 20.5934 41.2672 20.9918 40.4729 20.9918C40.3484 20.9908 40.2243 20.9802 40.1014 20.96C40.1014 21.1067 40.1137 21.2557 40.1014 21.4219C40.0941 21.915 39.9472 22.396 39.6777 22.809C39.4082 23.2221 39.0273 23.5504 38.5789 23.7558C38.0211 24.0397 37.4038 24.1871 36.7778 24.1859C36.5051 24.184 36.233 24.1603 35.964 24.115L33.7108 36.8353L31.9488 39.4184H37.6576L38.447 34.9511H42.9754L43.7354 39.4184H49.4492L47.6774 36.8353L45.0307 21.9131L45.4364 20.6912C45.0474 20.884 44.6192 20.9844 44.1851 20.9845H43.9823L43.9701 20.9722Z" fill="var(--fill-0, #1E1E20)"/>
<path id="Vector_19" d="M50.0391 19.9291L51.041 21.9135V36.8356L49.736 39.4188H56.7572L55.4498 36.8356V27.9009L59.8487 34.7681V36.8356L58.5412 39.4188H65.5624L64.2256 36.8356V21.9135L65.5722 19.3328H58.551L59.8585 21.9159V28.4801L55.4937 21.8524L56.7597 19.3328H50.6867C50.4961 19.5283 50.2761 19.736 50.044 19.9315L50.0391 19.9291Z" fill="var(--fill-0, #1E1E20)"/>
<path id="Vector_20" d="M51.3616 10.4932C51.5253 10.3466 51.9261 10.0044 52.1754 10.0044C52.3 10.0044 52.3904 10.0875 52.3929 10.3221C52.4051 11.3681 49.4603 15.2098 48.6074 16.0212C48.4471 16.1864 48.2654 16.3294 48.0673 16.4464C48.0653 16.4473 48.0633 16.4477 48.0612 16.4477C48.059 16.4477 48.057 16.4473 48.055 16.4464C48.8053 14.506 49.7853 11.9131 51.3616 10.4932ZM51.1172 16.7201C50.9974 16.7201 49.9148 18.0838 49.6998 18.294C49.4236 18.5652 48.6636 19.3204 48.1406 19.3204C48.0416 19.3226 47.9452 19.2887 47.8693 19.2251C47.4881 18.9025 47.5589 17.6781 47.8204 17.27C48.0233 16.9523 48.9837 16.1947 49.3234 15.8379C50.2203 14.8897 52.9892 11.5783 52.9892 10.3588C52.9892 9.74782 52.5224 9.52543 52.0116 9.52543C51.8466 9.52701 51.6824 9.54918 51.5229 9.59141C50.1348 9.9531 48.7149 12.8466 48.1577 14.1003C47.3317 15.9552 47.3243 17.1771 45.7603 18.6679C45.5205 18.9141 45.2541 19.1329 44.966 19.3204C44.8434 19.3988 44.7031 19.445 44.5579 19.4548C44.5013 19.46 44.4443 19.4517 44.3916 19.4304C44.3389 19.4092 44.292 19.3756 44.2549 19.3326C44.223 19.2936 44.1959 19.2509 44.1742 19.2055C43.8321 18.4724 44.663 16.835 45.0149 16.1434C44.9448 16.0629 44.8595 15.997 44.7639 15.9496C44.6683 15.9022 44.5642 15.8742 44.4577 15.8672C44.3125 15.8698 44.1727 15.9225 44.0618 16.0163C43.4753 16.4782 42.8105 17.5193 42.2411 18.1131C41.8222 18.5585 41.366 18.9673 40.8775 19.335C40.6878 19.4887 40.4611 19.5898 40.2201 19.6283C40.0734 19.6283 39.9757 19.5428 39.9463 19.335C39.9315 19.1349 39.948 18.9338 39.9952 18.7387C40.2396 17.5168 42.5735 15.3174 44.0569 15.3174C44.1863 15.3166 44.315 15.3364 44.4381 15.376C44.4968 15.3931 44.7241 15.596 44.8512 15.596C44.8951 15.596 44.922 15.5715 44.9294 15.508C44.9733 15.0485 44.1033 14.8286 43.7294 14.8286H43.705C41.1732 14.9019 39.7288 17.9274 37.7958 19.335C37.5524 19.5153 37.2902 19.6685 37.0137 19.792C36.6455 19.9682 36.2459 20.0695 35.8382 20.0902H35.7429C35.0244 20.0389 34.7972 19.4181 35.3739 18.2524C35.8774 17.3615 36.5779 16.5975 37.4218 16.0187C37.6519 15.8523 37.9168 15.7403 38.1966 15.6913C38.3383 15.6913 38.4409 15.7646 38.4409 15.9796C38.4409 16.5075 37.2337 17.4288 36.7889 17.6903C36.4125 17.9152 36.0069 18.052 35.6281 18.2744C35.7183 18.3434 35.8298 18.3789 35.9433 18.3746C36.1904 18.3483 36.4319 18.284 36.6594 18.184C37.4658 17.9201 38.7318 17.16 38.9053 16.268C39.0641 15.4567 38.6609 15.1438 38.0988 15.1438C37.8482 15.1496 37.6003 15.1975 37.3656 15.2856C36.0655 15.7499 33.2111 18.3648 34.3182 19.8727C34.6383 20.3126 35.2199 20.4739 35.8162 20.4739H35.8724C36.3193 20.4645 36.7609 20.3768 37.1775 20.2148C37.395 20.1232 37.6029 20.0102 37.7982 19.8776C38.0327 19.7198 38.2572 19.5476 38.4703 19.3619L38.502 19.335C38.7195 19.1469 38.9273 18.9514 39.1228 18.773C39.1507 18.9727 39.2207 19.1643 39.3281 19.335C39.3952 19.4396 39.4775 19.5335 39.5724 19.6136C39.5923 19.6295 39.6111 19.6466 39.6286 19.665C39.7794 19.7777 39.9503 19.8606 40.1321 19.9093C40.2457 19.9418 40.3634 19.9583 40.4815 19.9582C40.9703 19.9582 41.4078 19.6894 41.8183 19.3253C42.422 18.7901 42.9523 18.0422 43.3946 17.6146C43.314 18.0569 43.1502 18.7974 43.3091 19.3253C43.3434 19.4958 43.4346 19.6497 43.5678 19.7616C43.701 19.8735 43.8683 19.9368 44.0422 19.9411H44.1742C44.716 19.9208 45.2309 19.6995 45.6185 19.3204C46.034 18.9636 46.3981 18.5139 46.7769 18.1498C46.75 19.1615 47.0604 19.7554 47.9451 19.7554C48.0968 19.7539 48.248 19.7392 48.3972 19.7114C49.0155 19.6014 50.015 18.5555 50.4231 18.0716C50.715 17.7391 50.9714 17.3771 51.1881 16.9914C51.2369 16.8448 51.2345 16.8057 51.1025 16.7128L51.1172 16.7201Z" fill="var(--fill-0, #1E1E20)"/>
<path id="Vector_21" d="M38.875 20.3785H38.8628L38.8433 20.3663C38.8214 20.3633 38.7992 20.3633 38.7773 20.3663C38.6942 20.3663 38.6624 20.4445 38.6551 20.5496C38.6429 20.7402 38.7089 21.0213 38.7015 21.1263C38.6355 22.0159 37.6116 22.2652 36.7464 22.2652C36.5974 22.2652 36.4556 22.2652 36.3212 22.2456C36.208 22.2363 36.0955 22.2208 35.984 22.1992C34.2879 21.8937 32.8412 20.7549 31.585 19.4963C31.5362 19.445 31.4897 19.3961 31.4408 19.3497C30.913 18.8071 30.4193 18.2475 29.955 17.7245C29.8988 17.6585 29.5175 17.2602 29.5713 17.2089C31.5264 17.1135 35.5001 16.0725 36.2894 14.0538C36.9615 12.3431 35.5196 11.2239 33.9971 10.9135C33.4007 10.7968 32.794 10.7403 32.1862 10.7449C29.8304 10.7449 27.0419 11.5 25.7491 13.1887C24.9524 14.2298 25.0844 15.525 26.3601 16.0529C26.4986 16.1267 26.6493 16.1747 26.8049 16.1947C26.8453 16.1972 26.8856 16.1884 26.9214 16.1695C26.9572 16.1505 26.9871 16.122 27.0077 16.0871C27.0712 15.8159 26.4065 15.6888 26.1988 15.5544C25.6343 15.1902 25.71 14.7381 25.9422 14.176C26.6607 12.5167 30.1847 11.4658 32.829 11.4658C33.8529 11.4658 34.7474 11.6247 35.2899 11.9546C36.9688 13.0103 35.3583 14.5915 34.2659 15.2758C32.7676 16.1765 31.0798 16.7154 29.3367 16.8496C29.2585 16.7836 29.6862 16.0407 29.7595 15.9063C30.1554 15.1731 31.2673 13.3011 32.0567 13.0836C32.2041 13.056 32.3539 13.0429 32.5039 13.0445C32.521 12.5558 32.0152 12.3603 31.5704 12.3603C31.4137 12.3579 31.258 12.3844 31.1109 12.4385C30.5635 12.6535 29.63 13.7581 29.5224 14.3422C29.5229 14.5128 29.5148 14.6833 29.498 14.853C29.3709 15.3833 28.9579 15.9332 28.7795 16.4537C28.7581 16.4749 28.7324 16.4913 28.7042 16.5019C28.676 16.5124 28.6458 16.5168 28.6158 16.5148C28.518 16.5148 28.4056 16.4806 28.2858 16.4806C28.2413 16.4803 28.1969 16.486 28.1539 16.4977C27.6651 16.6248 27.6993 17.3408 28.215 17.3408C28.2393 17.3433 28.2639 17.3433 28.2883 17.3408C28.2199 17.749 27.8191 18.5627 27.516 19.3423C27.2716 19.9631 27.0884 20.5472 27.1959 20.8453C27.2545 21.009 27.5356 21.075 27.7848 21.075C27.8986 21.0783 28.0121 21.0609 28.1197 21.0237C28.3127 20.9431 29.129 19.7407 29.1778 19.5305C29.1998 19.4425 29.2145 19.3643 29.1339 19.3643H29.0776C28.9897 19.3937 28.3445 20.2954 28.061 20.2954C27.9828 20.2954 27.9315 20.2246 27.9315 20.0511C27.9805 19.81 28.055 19.5749 28.1539 19.3497C28.3816 18.7359 28.6418 18.1347 28.9335 17.5486C28.9848 17.4655 28.9994 17.3702 29.1119 17.3702C29.1248 17.3679 29.138 17.3679 29.151 17.3702C29.6397 18.0104 30.1285 18.6874 30.6466 19.3448C30.8519 19.5892 31.0621 19.8507 31.2771 20.0975C32.4453 21.4269 33.7992 22.5658 35.5416 22.9861C35.7567 23.0399 35.9644 23.0839 36.1648 23.1156C36.3748 23.151 36.5873 23.1698 36.8002 23.1719C37.2661 23.1714 37.7252 23.06 38.1394 22.8468C38.424 22.7261 38.6663 22.5238 38.836 22.2654C39.0056 22.0071 39.0949 21.7042 39.0925 21.3952C39.0925 21.1899 39.0925 20.5789 38.9093 20.4176L38.8873 20.3981L38.875 20.3785Z" fill="var(--fill-0, #1E1E20)"/>
</g>
</svg>
