<svg preserveAspectRatio="none" width="100%" height="100%" overflow="visible" style="display: block;" viewBox="0 0 136.149 44.4649" fill="none" xmlns="http://www.w3.org/2000/svg">
<g id="Vector">
<path d="M89.22 7.9234H89.2227L86.7431 7.17771C86.4571 7.09365 86.1711 7.2672 86.0901 7.54107C85.1943 10.456 84.0314 13.5689 82.4935 16.2833L77.7663 7.97492C77.367 7.27533 76.7248 6.9879 75.9451 7.10721C74.3747 7.34583 71.8681 8.75044 72.7801 10.4777L73.487 11.82C74.5906 13.9133 73.5113 16.4459 71.2745 17.2296C69.0567 18.0078 65.7595 17.5577 65.147 14.7946C65.0364 14.2984 64.9716 13.7913 64.9716 13.2788V10.4967C65.5356 10.654 66.0563 10.7814 66.6337 10.7841H69.3184C69.4965 10.7868 69.7042 10.6377 69.7042 10.4533L69.7096 7.67936C69.6853 7.54378 69.5369 7.35125 69.3939 7.35125H64.977V3.01812C64.9743 2.33751 64.5804 1.84943 63.9221 1.65148C62.7753 1.3288 59.5403 1.08476 59.5376 2.99914L59.5295 14.0353C59.5295 15.5593 58.9871 17.0561 57.4087 17.4818C56.4617 17.7367 55.4418 17.6797 54.6053 17.132C53.9308 16.69 53.5261 15.8874 53.5234 15.0359L53.5018 7.70647C53.5018 7.50853 53.3102 7.35125 53.1267 7.35125H48.3807C48.235 7.35125 48.065 7.54649 48.065 7.69292V13.7371C48.065 14.4448 48.1055 15.0983 48.2296 15.787C48.5722 17.7177 49.8215 19.247 51.6481 20.0063C54.9372 21.3729 59.2569 21.0855 62.028 18.721C64.4617 20.7872 68.4954 21.2048 71.4472 20.5079C73.6678 19.9846 75.481 18.6667 76.6843 16.7307L78.5758 19.605C79.0237 20.2856 79.7009 20.6652 80.4915 20.7926C82.1103 20.9011 83.3569 20.8279 84.3147 19.3365C86.4787 15.966 88.1785 12.3596 89.5249 8.53351C89.6247 8.24879 89.3873 7.97763 89.2227 7.92882L89.22 7.9234Z" fill="var(--fill-0, #1E1E20)"/>
<path d="M50.7497 5.4911C52.293 5.50466 53.4937 4.43629 53.5342 2.82831C53.5773 1.14712 52.3605 -0.0134404 50.7497 0.000117545C49.1847 0.0136755 48.038 1.13628 48.0218 2.709C48.0056 4.30884 49.1577 5.48025 50.7497 5.4911Z" fill="var(--fill-0, #1E1E20)"/>
<path d="M13.8793 42.2685C12.5356 43.6975 10.709 44.4622 8.04321 44.4622C5.37743 44.4622 3.50221 43.6975 2.15583 42.2685C0.65835 40.6876 0 38.3665 0 35.4081C0 32.4498 0.661049 30.1558 2.15583 28.5749C3.49951 27.1459 5.37743 26.3812 8.04321 26.3812C10.709 26.3812 12.5356 27.1459 13.8793 28.5749C15.3768 30.1558 16.0352 32.4498 16.0352 35.4081C16.0352 38.3665 15.3741 40.6876 13.8793 42.2685ZM10.8088 30.4893C10.1505 29.8765 9.31134 29.4941 8.04321 29.4941C6.77507 29.4941 5.88738 29.8765 5.22633 30.4893C4.13628 31.5089 3.78012 33.1656 3.78012 35.4108C3.78012 37.6561 4.13628 39.3372 5.22633 40.3568C5.88468 40.9696 6.77507 41.352 8.04321 41.352C9.31134 41.352 10.1505 40.9696 10.8088 40.3568C11.8989 39.3372 12.255 37.6533 12.255 35.4108C12.255 33.1684 11.8989 31.5089 10.8088 30.4893Z" fill="var(--fill-0, #1E1E20)"/>
<path d="M18.3205 37.6018V37.4744C18.3205 32.9108 20.9836 30.5381 24.7664 30.5381C25.8322 30.5381 26.7954 30.7686 27.4807 31.0479V25.4891H31.0828V43.3911C31.0828 43.749 30.9317 43.9524 30.5243 44.0283C29.3074 44.2588 27.4538 44.4622 25.3222 44.4622C20.2982 44.4622 18.3178 42.0136 18.3178 37.6018H18.3205ZM21.9981 37.5774C21.9981 40.2809 23.1151 41.6828 25.4247 41.6828C26.1344 41.6828 26.8467 41.6068 27.4807 41.5309V33.651C26.8467 33.4477 26.0858 33.3202 25.2736 33.3202C23.0396 33.3202 22.0008 34.7492 22.0008 37.5801L21.9981 37.5774Z" fill="var(--fill-0, #1E1E20)"/>
<path d="M33.6703 37.6018V37.4744C33.6703 32.9108 36.3334 30.5381 40.1162 30.5381C41.182 30.5381 42.1452 30.7686 42.8306 31.0479V25.4891H46.4326V43.3911C46.4326 43.749 46.2815 43.9524 45.8741 44.0283C44.6572 44.2588 42.8036 44.4622 40.672 44.4622C35.6481 44.4622 33.6676 42.0136 33.6676 37.6018H33.6703ZM37.3506 37.5774C37.3506 40.2809 38.4676 41.6828 40.7773 41.6828C41.4869 41.6828 42.1992 41.6068 42.8333 41.5309V33.651C42.1992 33.4477 41.4383 33.3202 40.6262 33.3202C38.3921 33.3202 37.3533 34.7492 37.3533 37.5801L37.3506 37.5774Z" fill="var(--fill-0, #1E1E20)"/>
<path d="M58.2074 33.7785C57.2441 33.548 55.9247 33.3202 54.832 33.3202C53.0296 33.3202 52.32 33.7025 52.32 34.4943C52.32 35.2075 52.8542 35.438 54.3004 35.7688L55.5955 36.0752C56.8907 36.3816 57.7784 36.8399 58.3369 37.4527C58.9467 38.117 59.2003 38.9061 59.2003 39.9257C59.2003 42.6535 57.576 44.4649 53.491 44.4649C52.1203 44.4649 50.3692 44.1585 49.6353 43.8792C49.1281 43.6758 49.0255 43.5484 49.0255 43.1145C49.0255 42.9111 49.0498 42.4529 49.1011 42.019C49.1766 41.3818 49.3034 41.051 49.6596 41.051C49.8107 41.051 50.0643 41.1269 50.3962 41.2299C51.3109 41.4848 52.5035 41.6882 53.491 41.6882C55.1908 41.6882 55.9517 41.2299 55.9517 40.3622C55.9517 39.4186 55.2934 39.1881 53.947 38.8573L52.9325 38.6024C51.435 38.2201 50.523 37.7862 49.9375 37.149C49.3547 36.5118 49.0741 35.6956 49.0741 34.7275C49.0741 32.0241 51.0276 30.5462 54.581 30.5462C55.8762 30.5462 57.2954 30.7767 58.488 31.056L58.2101 33.7839L58.2074 33.7785Z" fill="var(--fill-0, #1E1E20)"/>
<path d="M73.4816 29.6487H65.2873V33.9574H72.3916V36.9402H65.2873V43.57C65.2873 44.0798 64.8556 44.3347 63.4337 44.3347C62.0118 44.3347 61.5828 44.0798 61.5828 43.5429V27.4523C61.5828 26.8395 61.8121 26.6361 62.4705 26.6361H73.4816V29.6487Z" fill="var(--fill-0, #1E1E20)"/>
<path d="M79.8763 26.6632V26.8151C79.8763 27.9892 79.2935 28.7268 77.8473 28.7268C76.3255 28.7268 75.7913 27.9865 75.7913 26.8151V26.6632C75.7913 25.4132 76.3255 24.7516 77.8473 24.7516C79.369 24.7516 79.8763 25.4159 79.8763 26.6632ZM79.6982 43.3911C79.6982 44.0554 78.9616 44.3347 77.8446 44.3347C76.7275 44.3347 76.0934 44.0554 76.0934 43.3911V30.793H79.6955V43.3911H79.6982Z" fill="var(--fill-0, #1E1E20)"/>
<path d="M94.9725 43.3911C94.9725 44.0554 94.2359 44.3347 93.1215 44.3347C92.0072 44.3347 91.3704 44.0554 91.3704 43.3911V35.9694C91.3704 35.0773 91.2436 34.413 90.9387 34.0062C90.6608 33.6239 90.1023 33.4205 89.3414 33.4205C88.3269 33.4205 87.3124 33.7785 86.3222 34.3398V43.3911C86.3222 44.0554 85.5856 44.3347 84.4685 44.3347C83.3515 44.3347 82.7174 44.0554 82.7174 43.3911V30.793H85.9903L86.1171 31.9671C87.4365 31.1265 88.934 30.5381 90.48 30.5381C91.8507 30.5381 93.0163 30.9964 93.7799 31.8126C94.6433 32.7562 94.9725 33.9547 94.9725 35.6874V43.3911Z" fill="var(--fill-0, #1E1E20)"/>
<path d="M97.5087 37.6018V37.4744C97.5087 32.9108 100.172 30.5381 103.955 30.5381C105.02 30.5381 105.984 30.7686 106.669 31.0479V25.4891H110.271V43.3911C110.271 43.749 110.12 43.9524 109.713 44.0283C108.496 44.2588 106.642 44.4622 104.51 44.4622C99.4865 44.4622 97.506 42.0136 97.506 37.6018H97.5087ZM101.189 37.5774C101.189 40.2809 102.306 41.6828 104.616 41.6828C105.325 41.6828 106.038 41.6068 106.672 41.5309V33.651C106.038 33.4477 105.277 33.3202 104.465 33.3202C102.231 33.3202 101.192 34.7492 101.192 37.5801L101.189 37.5774Z" fill="var(--fill-0, #1E1E20)"/>
<path d="M114.585 42.7783C113.393 41.6041 112.861 39.7955 112.861 37.4744C112.861 33.0111 115.068 30.5381 119.256 30.5381C123.087 30.5381 125.219 32.5772 125.219 36.6067C125.219 37.2683 125.143 38.0086 125.041 38.6458H116.49C116.515 39.4376 116.668 40.0992 116.973 40.5331C117.48 41.2218 118.444 41.6285 120.095 41.6285C121.185 41.6285 122.504 41.5011 123.317 41.3737C123.443 41.3492 123.622 41.3221 123.721 41.3221C124.102 41.3221 124.153 41.5255 124.204 42.0868C124.229 42.3417 124.256 42.8515 124.256 43.1823C124.256 43.6677 124.104 43.9741 123.546 44.1015C122.683 44.3049 121.236 44.4594 119.917 44.4594C117.429 44.4594 115.705 43.9253 114.588 42.7755L114.585 42.7783ZM121.563 36.0969C121.563 35.1777 121.412 34.3886 121.107 33.9547C120.726 33.4449 120.168 33.1629 119.229 33.1629C118.29 33.1629 117.707 33.4178 117.3 33.8517C116.844 34.3615 116.614 35.1532 116.563 36.0969H121.563Z" fill="var(--fill-0, #1E1E20)"/>
<path d="M131.357 43.3911C131.357 44.0554 130.621 44.3347 129.503 44.3347C128.386 44.3347 127.752 44.0554 127.752 43.3911V30.793H131.101L131.228 33.3175C132.496 31.8641 134.527 30.6656 136.149 30.4866V33.7758C134.525 33.9547 132.571 34.7709 131.354 35.8664V43.3884L131.357 43.3911Z" fill="var(--fill-0, #1E1E20)"/>
</g>
</svg>
